<svg width="27" height="27" viewBox="0 0 27 27" fill="none" xmlns="http://www.w3.org/2000/svg">
<circle cx="13.5" cy="13.5" r="13.25" transform="matrix(-1 0 0 1 27 0)" stroke="#C29166" stroke-width="0.5"/>
<g clip-path="url(#clip0_280_4815)">
<path d="M18.9781 16.523C18.9498 16.4292 18.7699 16.2911 18.4384 16.109C18.3486 16.0516 18.2206 15.9736 18.0551 15.8746C17.8893 15.7756 17.7389 15.6844 17.6041 15.6011C17.4689 15.5178 17.3424 15.437 17.2241 15.359C17.2052 15.3434 17.146 15.2979 17.0466 15.2222C16.947 15.1468 16.8631 15.0907 16.7943 15.0542C16.7257 15.0179 16.6582 14.9996 16.5919 14.9996C16.4972 14.9996 16.3789 15.0739 16.2369 15.2222C16.095 15.3707 15.9647 15.5321 15.8464 15.7067C15.7281 15.8813 15.6026 16.0426 15.4701 16.191C15.3375 16.3395 15.2285 16.4137 15.1434 16.4137C15.1007 16.4137 15.0474 16.4006 14.9835 16.3748C14.9197 16.3487 14.8711 16.3264 14.8378 16.3085C14.8048 16.2901 14.7481 16.2538 14.6675 16.1989C14.5868 16.1442 14.5419 16.1142 14.5325 16.109C13.8839 15.7131 13.3276 15.26 12.8635 14.7497C12.3996 14.2392 11.9876 13.6273 11.6278 12.9137C11.623 12.9033 11.5958 12.8538 11.5461 12.7653C11.4963 12.6767 11.4632 12.6143 11.4466 12.5777C11.43 12.5413 11.4099 12.4879 11.3863 12.4176C11.3626 12.3473 11.3508 12.2888 11.3508 12.2418C11.3508 12.1481 11.4183 12.0283 11.5532 11.8824C11.6881 11.7367 11.835 11.5986 11.9935 11.4685C12.1522 11.3384 12.2989 11.1951 12.4338 11.0389C12.5688 10.8826 12.6362 10.7525 12.6362 10.6484C12.6362 10.5755 12.6197 10.5012 12.5866 10.4257C12.5534 10.35 12.5025 10.2577 12.4338 10.1483C12.3651 10.0389 12.3237 9.97388 12.3095 9.95295C12.2385 9.82284 12.1652 9.68353 12.0894 9.53508C12.0135 9.38666 11.9308 9.22123 11.8408 9.03896C11.7508 8.85677 11.6799 8.7161 11.6277 8.61715C11.4621 8.25265 11.3367 8.05464 11.2514 8.0235C11.2182 8.00788 11.1685 8 11.1023 8C10.9744 8 10.8075 8.02599 10.6015 8.07815C10.3955 8.13022 10.2334 8.18484 10.115 8.24222C9.87829 8.35154 9.62737 8.66922 9.36219 9.19518C9.12072 9.68465 9 10.1691 9 10.6482C9 10.7887 9.00828 10.9254 9.02485 11.0584C9.04142 11.1912 9.07102 11.3409 9.11368 11.5076C9.15627 11.6743 9.19062 11.7981 9.21659 11.8787C9.24259 11.9593 9.29112 12.1038 9.36217 12.3122C9.43311 12.5206 9.47577 12.6481 9.48998 12.695C9.65568 13.2054 9.85217 13.6611 10.0794 14.0622C10.4533 14.7288 10.9635 15.4177 11.6098 16.1287C12.2561 16.8396 12.8823 17.4008 13.4883 17.8122C13.8529 18.0622 14.2673 18.2783 14.7312 18.4607C14.7739 18.4762 14.8898 18.5231 15.0792 18.6014C15.2686 18.6795 15.4 18.7329 15.4733 18.7615C15.5467 18.7902 15.6592 18.828 15.8106 18.8749C15.9623 18.9219 16.0983 18.9544 16.219 18.9728C16.3398 18.9908 16.4641 19 16.5919 19C17.0274 19 17.4679 18.8672 17.9129 18.6016C18.391 18.31 18.6797 18.0339 18.7792 17.7733C18.8315 17.6432 18.881 17.4648 18.9283 17.2382C18.9758 17.0117 18.9994 16.8282 18.9994 16.6875C18.9996 16.6144 18.9924 16.5598 18.9781 16.523Z" fill="#C29166"/>
</g>
<defs>
<clipPath id="clip0_280_4815">
<rect width="10" height="11" fill="white" transform="translate(9 8)"/>
</clipPath>
</defs>
</svg>
