<svg width="125" height="80" viewBox="0 0 125 80" fill="none" xmlns="http://www.w3.org/2000/svg">
<path d="M84.3423 1.00719C84.1174 0.91915 84.2318 1.03398 84.0961 0.951686L84.036 0.708623C83.5165 0.375608 83.3246 0.421542 83.0455 0.00240229C82.5318 -0.0741529 81.4656 1.70575 80.9268 1.52202C80.8705 1.65025 80.8919 1.73064 80.8783 1.79188L80.6593 1.84547C80.3491 2.2359 79.8839 2.46365 79.4439 2.80049C79.093 3.14308 78.6472 3.45313 78.2285 3.75552C76.1156 5.41677 73.9058 7.1584 72.0585 8.95553L70.9749 9.84931C70.7694 10.0713 70.5697 10.435 70.3158 10.5842C70.2402 10.7469 70.0425 10.6512 69.994 10.8062C69.4513 11.1967 69.0597 11.8359 68.422 12.0771C68.8891 11.39 70.151 8.76031 70.5639 8.08471C70.9283 7.68088 71.1009 7.32299 71.3141 7.01294C71.5622 6.60911 71.7813 6.32586 71.9615 5.87993C71.9829 5.73064 71.9228 5.48758 72.0255 5.31916L72.1437 4.97466C72.1321 4.46174 71.9635 4.01389 71.7037 3.67705C71.568 3.47992 71.4924 3.2981 71.2947 3.20241C70.9535 2.99762 70.3294 3.17944 69.9262 3.30576C68.6313 3.82059 67.3558 4.76222 66.2994 5.53543C65.9698 5.73064 65.4407 6.28949 65.0724 6.32203C64.8746 6.34117 64.6362 5.96988 64.4579 5.7249C64.1303 5.57562 63.8356 5.44547 63.4596 5.68088C63.2192 5.76701 63.0738 6.57849 62.8936 6.90768C62.6532 7.3383 62.4671 7.75744 62.3004 8.0273C62.0736 8.51342 61.9282 8.86366 61.6045 9.20051C61.3913 9.51055 60.9668 9.78615 60.7051 10.1364C59.3327 11.2732 58.0359 12.4771 56.8263 13.6905C56.1672 14.3106 55.5624 14.9153 54.9382 15.5546C53.7907 16.8943 52.6567 18.0599 51.5848 19.4685C51.104 20.102 50.54 20.8694 50.0321 21.5106C48.2119 23.6465 46.8763 25.8627 45.3488 28.012C44.0617 29.9604 42.7824 32.0503 41.9934 34.2494C41.9023 34.5862 41.6833 34.9843 41.8597 35.3441C42.3385 35.6293 43.1119 35.1259 43.6527 35.1948C44.7227 34.59 45.4031 33.7077 46.1785 32.8599C46.7968 32.3087 47.3726 31.5948 47.9366 31.0551C48.1421 30.8331 48.2797 30.5709 48.5686 30.4426C48.8768 30.1671 48.9466 30.0924 49.1327 29.79C49.2431 29.6484 49.4409 29.5144 49.5862 29.3938C49.8809 29.0647 50.0747 28.6723 50.4178 28.4178C50.6718 28.1556 50.9335 27.8053 51.2688 27.5221C51.5441 27.2254 51.7418 27.0914 51.9821 26.7757C52.4978 26.1632 52.9107 25.4895 53.3371 24.8694C53.5833 24.8101 53.686 24.6417 53.7345 24.4867C54.1338 23.989 54.6068 23.5584 54.8762 23.0053C55.7834 21.8666 56.7042 20.5536 57.5028 19.3268C58.0669 18.4445 58.8151 17.7173 59.2765 16.8886C59.573 16.3297 59.8832 15.8225 60.2534 15.3307C60.4046 15.122 60.488 14.7565 60.7283 14.5555C60.7225 14.5287 60.7768 14.5153 60.8853 14.4886C61.1044 14.3201 61.2769 13.8474 61.4766 13.5986C61.808 12.9441 62.3838 12.345 63.0157 11.8474C63.1804 11.8072 63.2405 11.9354 63.289 11.8952C63.8318 11.0455 64.328 10.123 64.7835 9.26558C64.9619 8.93448 65.2294 8.72586 65.3418 8.35649C65.493 8.2627 65.5143 8.11342 65.5143 7.99859C65.7818 7.67514 66.092 7.39955 66.4079 7.03591C67.3423 6.12107 67.8443 5.45313 69.2012 4.83686C68.6759 6.22634 67.8792 7.10864 67.2453 8.41007L67.1833 8.62634C66.2664 10.5421 65.1518 12.4771 64.1167 14.5058C63.2483 16.2665 62.283 18.1058 61.43 19.8053C61.2168 20.0005 61.0307 20.4178 61.1063 20.6015C61.1664 20.8445 61.4339 20.8656 61.653 20.9268C61.8778 21.0149 62.4787 21.4436 62.7656 21.4302C62.8199 21.6465 63.0448 21.7345 63.2444 21.7154C63.7814 20.8388 64.5567 20.1058 65.2313 19.1967C65.4872 18.7048 65.9524 18.3622 66.2141 17.8972C66.4952 17.5125 66.7646 17.0742 67.1503 16.523C67.8637 16.0063 68.3037 15.2101 68.6836 14.4005C69.0946 14.301 69.2322 13.922 69.5133 13.6541C69.7808 13.3307 70.0018 13.0474 70.2072 12.8254C70.3313 12.7374 70.5775 12.678 70.6802 12.5096C70.9613 12.3546 71.0524 11.9029 71.2715 11.7345C71.3606 11.6273 71.4013 11.7881 71.4362 11.6943C71.601 11.5393 71.7716 11.411 71.8006 11.1756C72.2193 10.9881 72.4655 10.5842 72.6594 10.3067C72.7427 10.1728 73.0083 10.079 73.0296 9.92969C73.3378 9.65409 73.5181 9.32299 73.7914 9.14118C73.9697 8.92491 74.1423 8.68376 74.3884 8.62251C74.4912 8.79859 74.3264 8.83878 74.2566 9.02826C74.6947 8.92108 74.8265 8.28759 75.1367 8.01199L75.4313 7.91246C75.9392 7.38806 76.5168 6.78902 77.1468 6.29141C77.1604 6.23017 77.298 5.96796 77.4201 6.10959C77.2263 6.61485 76.9724 7.10863 76.7708 7.5871C76.5711 7.83591 76.4141 8.01773 76.228 8.2072C76.0904 8.4694 75.9993 8.80816 75.8287 9.04931C75.3402 9.88567 74.8789 10.7144 74.4175 11.5431C73.1634 13.7402 71.979 15.9795 71.033 18.3603C70.845 19.0072 70.5639 19.6216 70.3081 20.2283C70.1549 20.7814 70.0095 21.4761 69.7537 22.0847C69.7052 22.3546 69.6218 22.4905 69.5055 22.6034C69.6218 22.8331 69.4765 22.9536 69.3931 23.2044C69.3369 23.4474 69.397 23.8053 69.2729 24.123C69.2458 24.1288 69.1023 24.1364 69.1295 24.2436C69.0112 24.7029 69.3388 25.1967 68.8368 25.5202C68.8155 25.8991 68.9434 26.412 69.1683 26.7297C69.5773 27.0895 69.9281 26.8599 70.3177 26.68C70.9846 25.8589 71.6708 25.1182 72.1457 24.2283C72.008 24.3757 71.6029 24.6187 71.2676 24.9001C71.0679 25.034 70.5949 25.4646 70.3216 25.302C70.1045 25.0111 70.3933 24.4235 70.3391 24.0924C70.2577 24.1115 70.2635 24.1402 70.2363 24.146C72.262 18.0599 74.9138 13.4283 76.7998 10.5039C76.8406 10.5517 76.8948 10.5383 76.9646 10.5785C77.0189 10.4503 77.1371 10.2206 77.2883 10.1268C77.2748 10.0732 77.1507 10.1594 77.1178 10.1402C77.1255 10.0522 77.2689 9.93161 77.3038 9.83783C77.3853 9.81869 77.4008 9.75744 77.393 9.73065C78.087 8.67227 78.7208 7.945 79.0426 7.49333C79.5233 7.0895 79.8878 6.57084 80.3821 6.2206C80.6903 5.945 80.8628 5.47227 81.1167 5.3249C81.1981 5.53543 81.1439 5.54882 81.171 5.656C81.5548 5.21772 81.8727 4.50959 82.3942 4.15361C82.5938 4.01963 82.84 3.95839 83.1211 3.80528C83.1831 3.70384 83.2936 3.56222 83.375 3.42825C83.8015 3.03782 84.1019 2.73542 84.4935 2.43877C84.4392 2.2225 84.4334 1.85121 84.4838 1.58135C84.3132 1.35934 84.2744 1.19666 84.3423 1.00719ZM57.7451 15.1603C55.8881 18.079 53.94 20.99 51.8096 23.746C51.1835 24.7297 50.4682 25.7077 49.7801 26.678C47.7312 29.413 46.0738 31.968 43.2263 34.1805C43.1875 33.7881 43.4337 33.4991 43.5791 33.2637C43.771 32.9881 43.8407 32.569 43.959 32.3393C44.4901 31.3211 45.122 30.479 45.5233 29.4053C46.3006 28.0981 47.1477 26.8312 48.1092 25.5642C48.3495 25.1336 48.6946 24.6474 48.9621 24.2091C49.2974 23.9259 49.5048 23.7039 49.7723 23.3804C49.9798 23.0436 50.1445 22.6589 50.4198 22.3623C50.5361 22.2474 50.7008 22.2072 50.7086 22.1192C50.9005 21.9584 51.0187 21.7288 51.1079 21.5067C51.6294 21.0359 52.0636 20.4426 52.523 19.8436C53.1762 19.1967 53.8411 18.4905 54.473 17.7632C55.3589 16.6589 56.3552 15.6426 57.3167 14.6053C57.7083 14.3086 58.0785 13.9316 58.2917 13.5067C58.9372 13.0627 59.418 12.4292 60.0828 11.9527L60.1371 11.9393C59.6137 12.9862 58.4526 14.1575 57.7451 15.1603ZM70.2053 24.2359C70.1782 24.2417 70.1704 24.3297 70.1917 24.412C70.0541 24.6742 70.0677 24.8446 70.0677 24.8446C70.0347 24.7087 70.1026 24.6359 70.1239 24.4867C70.1103 24.6627 70.1084 24.7776 70.0677 24.8446C70.027 24.6819 70.0076 24.6015 69.9805 24.4924L71.2114 21.0378C70.6919 22.3393 70.3933 23.5891 70.2053 24.2359ZM70.0173 23.1335C70.0851 23.0589 70.1956 23.0321 70.2499 23.0187C70.2421 23.1068 70.2073 23.2005 70.1258 23.3364C70.0522 23.2694 69.9553 23.235 70.0173 23.1335ZM70.2945 22.6091C70.3216 22.6034 70.3158 22.5747 70.3158 22.5747C70.31 22.4331 70.3643 22.4197 70.4127 22.3795L70.2945 22.6091ZM71.9034 18.345C71.9034 18.345 71.9576 18.3316 71.9518 18.3048C71.9576 18.3316 71.9034 18.345 71.9034 18.345ZM76.1214 9.63113L75.9624 10.0426C75.9566 10.0158 75.9566 10.0158 75.9838 10.0082C75.6814 10.5402 75.3906 11.1278 75.1289 11.7077C74.7858 12.1919 74.5978 12.8407 74.2062 13.2522L74.1093 13.5622C74.1713 13.5756 74.2256 13.5622 74.2741 13.522C74.1287 13.8723 73.9562 14.2302 73.7507 14.567C73.3242 15.4168 72.7854 16.4082 72.3512 17.4608C72.3725 17.3115 72.3647 17.2847 72.4074 17.2177L72.2697 17.2503C72.198 17.8991 71.6979 18.3355 71.6145 18.9307L71.6417 18.9249C71.6553 19.0933 71.5448 19.1201 71.539 19.2082C71.2715 19.302 71.3664 19.6809 71.2288 19.9431C71.0291 20.4216 70.624 20.8943 70.5116 21.4934C70.4437 21.4532 70.3759 21.4111 70.3333 21.48C70.2577 21.6426 70.3042 21.8302 70.1937 21.9718C70.3856 21.9259 70.3119 21.6273 70.4418 21.6828C70.3856 21.9259 70.2615 22.2436 70.1375 22.4445C70.184 22.634 70.0192 22.789 69.9785 22.9709C69.9087 23.1603 69.9494 23.3211 69.7982 23.4168C69.7924 23.1603 69.8894 22.8503 69.9514 22.634C70.0754 22.2015 70.1181 21.79 70.2635 21.4398C70.4496 20.791 70.6589 20.1096 71.002 19.6254C70.9342 19.3555 71.1474 19.2752 71.066 18.9498C71.3335 18.5115 71.5138 18.0656 71.7754 17.6005C71.8724 17.0608 72.1554 16.6761 72.3822 16.19L72.4733 15.7383C72.6729 15.4895 72.9133 15.2866 72.859 14.9555C73.0238 14.8005 73.113 14.5785 73.1963 14.5575C73.3475 14.1192 73.4716 13.9163 73.6984 13.6598C74.1248 12.8101 74.5455 11.9335 74.939 11.1775L75.158 11.124C75.1871 10.8866 75.2006 10.5976 75.4953 10.4962C75.6213 9.94883 75.9431 9.49716 76.2532 9.10673C76.3908 8.84452 76.5692 8.51342 76.7146 8.39285C76.5556 8.81007 76.3482 9.26175 76.1214 9.63113ZM77.6528 4.35456C77.804 4.26078 77.9067 4.20719 78.0308 4.00432L77.3775 4.65122C77.488 4.50959 77.6043 4.50959 77.6528 4.35456Z" fill="#C29166"/>
<path d="M0.00273523 56.811V55.9063H0.235225C0.88893 55.9063 1.28279 55.8519 1.41682 55.7433C1.54811 55.6346 1.62469 55.3249 1.63837 54.8141L1.84897 43.4816C1.84897 43.3892 1.85171 43.2778 1.85992 43.1447C1.86812 43.0143 1.87086 42.9246 1.87086 42.8785C1.87086 42.6149 1.82709 42.4437 1.7423 42.3677C1.65751 42.2916 1.48246 42.2508 1.21715 42.2508H0.0246166L0 41.3216H3.5311L8.86195 53.7218L14.0971 41.3216H17.836V42.2508H17.0401C16.5724 42.2508 16.2524 42.2943 16.0828 42.3785C15.9105 42.4628 15.8257 42.6692 15.8257 42.9926V54.8358C15.8257 55.3303 15.8913 55.6319 16.0254 55.7406C16.1566 55.8492 16.5669 55.9036 17.2535 55.9036H17.7212L17.7458 56.8083H12.0648L12.0402 55.9036H12.5079C13.178 55.9036 13.5829 55.8492 13.7223 55.7406C13.8618 55.6319 13.933 55.3466 13.933 54.882V44.2233L10.3335 52.6541C9.81926 53.8767 9.34334 55.045 8.90845 56.1617C8.75254 56.5638 8.65408 56.8002 8.61578 56.8708C8.57749 56.9415 8.51185 56.974 8.41612 56.974C8.2903 56.974 7.9867 56.4252 7.50531 55.3249L2.80628 44.5276L2.71329 55.1156C2.71329 55.5015 2.82543 55.7297 3.05245 55.8003C3.27947 55.871 3.94412 55.9036 5.05186 55.9036V56.8083H0.00273523V56.811ZM28.4977 55.9063H28.7795C29.2171 55.9063 29.5043 55.8302 29.6438 55.6753C29.7833 55.5205 30.0404 55.026 30.4151 54.1892C30.9758 52.9502 31.4791 51.8363 31.9222 50.8446C32.3653 49.8529 32.6908 49.141 32.8932 48.7091C33.0956 48.2743 33.2679 47.8994 33.4074 47.5815C33.5469 47.2636 33.6453 47.0463 33.7 46.9322C33.7547 46.8153 33.8122 46.6795 33.8751 46.5246L36.2601 40.7646H36.7497C37.6852 43.1963 39.3755 47.3451 41.8235 53.2111C42.3541 54.5125 42.7069 55.2868 42.8875 55.5341C43.068 55.7813 43.3907 55.9063 43.8584 55.9063H44.2085L44.1839 56.811H38.8531L38.8777 55.9063H39.5779C40.2644 55.9063 40.6063 55.8139 40.6063 55.6264C40.6063 55.5639 40.5297 55.3249 40.3738 54.9064L38.6452 50.6789H33.2214L31.3751 54.7652C31.2192 55.1374 31.1426 55.3846 31.1426 55.5096C31.1426 55.6808 31.2001 55.7895 31.3177 55.8356C31.4353 55.8818 31.6951 55.9063 32.1 55.9063H33.0573V56.811H28.5224L28.4977 55.9063ZM33.6645 49.6573H38.2459L36.0249 44.1527L33.6645 49.6573ZM54.9851 41.3216H58.6092L68.1933 53.605V43.0849C68.1933 42.7127 68.1112 42.4818 67.9471 42.3894C67.783 42.297 67.4356 42.2508 66.9077 42.2508H66.0899L66.1364 41.3216H71.1144V42.2508H70.5756C70.0778 42.2508 69.7386 42.3133 69.5581 42.4356C69.3776 42.5606 69.2901 42.8377 69.2901 43.2724V56.648C69.2901 56.773 69.2901 56.8572 69.2901 56.9034C69.2901 56.9496 69.2819 57.0039 69.2654 57.0664C69.249 57.1289 69.2271 57.167 69.1943 57.1833C69.1642 57.1996 69.1232 57.2077 69.0767 57.2077H68.7485C68.702 57.2077 68.6664 57.205 68.6446 57.1968C68.6199 57.1887 68.5981 57.186 68.5734 57.186C68.5488 57.186 68.5269 57.1751 68.5023 57.1507C68.4777 57.1262 68.4586 57.1045 68.4449 57.08C68.4285 57.0556 68.3984 57.0148 68.3519 56.9523C68.3054 56.8898 68.2671 56.8355 68.2343 56.7893L58.043 43.7859L58.1607 54.8385C58.1607 55.333 58.2536 55.6346 58.4424 55.7433C58.6284 55.8519 59.1125 55.9063 59.892 55.9063H60.2886V56.811H55.379V55.9063H56.0792C56.5168 55.9063 56.7876 55.8492 56.897 55.7324C57.0064 55.6156 57.0611 55.333 57.0611 54.8847V42.5307L56.8286 42.2508H55.0043L54.9851 41.3216ZM82.5228 49.2171C82.5228 47.9021 82.7526 46.7094 83.2121 45.6416C83.6716 44.5738 84.287 43.7071 85.0583 43.0415C85.8296 42.3758 86.6939 41.8677 87.654 41.52C88.6113 41.1722 89.6069 40.9983 90.6353 40.9983C92.022 40.9983 93.313 41.289 94.5056 41.8677C95.6981 42.4492 96.6883 43.3648 97.4732 44.62C98.261 45.8753 98.6548 47.3614 98.6548 49.0786C98.6548 50.1164 98.4798 51.1108 98.1297 52.0618C97.7796 53.0127 97.2763 53.874 96.6226 54.6402C95.9689 55.4064 95.1073 56.0231 94.0406 56.485C92.9739 56.9496 91.7759 57.1805 90.4521 57.1805C89.1747 57.1805 88.0205 56.955 86.9921 56.5067C85.9636 56.0584 85.1294 55.4553 84.4921 54.6945C83.8521 53.9365 83.3652 53.0888 83.0316 52.1514C82.6897 51.2195 82.5228 50.2387 82.5228 49.2171ZM84.6262 48.4509C84.6262 49.7524 84.8641 50.9777 85.34 52.1324C85.816 53.2844 86.5545 54.2489 87.561 55.0233C88.5675 55.7976 89.7382 56.1834 91.0784 56.1834C92.591 56.1834 93.8765 55.6156 94.935 54.4772C95.9935 53.3388 96.5241 51.733 96.5241 49.66C96.5241 47.3234 95.8814 45.4541 94.5958 44.0522C93.3103 42.6502 91.8251 41.952 90.143 41.952C89.5495 41.952 88.9587 42.0606 88.3651 42.278C87.7716 42.4954 87.1835 42.8323 86.6009 43.2887C86.0156 43.7452 85.5424 44.4217 85.1759 45.321C84.8094 46.2149 84.6262 47.2582 84.6262 48.4509ZM109.967 42.2508L109.992 41.3216H115.369C116.6 41.3216 117.566 41.3977 118.269 41.5526C118.969 41.7074 119.584 42.0009 120.115 42.4356C121.236 43.3485 121.797 44.4326 121.797 45.6878C121.797 46.492 121.532 47.2283 121.001 47.894C120.471 48.5596 119.623 49.046 118.452 49.3557L122.94 55.2759C123.282 55.6944 123.619 55.9036 123.947 55.9036H124.953L125 56.8083H121.611L116.608 49.6573C116.546 49.6573 116.453 49.66 116.327 49.6681C116.201 49.6763 116.108 49.679 116.045 49.679C115.063 49.679 114.355 49.6328 113.917 49.5404V55.2298C113.917 55.5395 113.994 55.7297 114.15 55.7976C114.305 55.8682 114.765 55.9009 115.528 55.9009H116.721L116.674 56.8056H110.457V55.9009H110.996C111.494 55.9009 111.792 55.871 111.885 55.8085C111.978 55.746 112.024 55.5531 112.024 55.227V43.0822C112.024 42.7263 111.92 42.4981 111.71 42.3975C111.499 42.297 111.138 42.2454 110.624 42.2454H109.967V42.2508ZM113.917 48.777C114.119 48.9318 114.617 49.0079 115.413 49.0079C116.833 49.0079 117.864 48.7688 118.509 48.2879C119.155 47.807 119.48 47.0571 119.48 46.0356C119.48 44.9053 119.056 43.9924 118.206 43.2941C117.355 42.5986 116.16 42.2481 114.617 42.2481C114.336 42.2481 114.15 42.3106 114.057 42.4329C113.964 42.5578 113.917 42.8513 113.917 43.3159V48.777Z" fill="#C29166"/>
<path d="M27.2578 68.1387V78.9021H33.4667V78.0263H28.132V73.9679H32.8218V73.0574H28.132V69.0183H33.4667V68.1425H27.2578V68.1387ZM41.474 72.1585C41.3701 72.4247 41.3164 72.7141 41.3164 73.0227C41.3164 73.2735 41.3486 73.4972 41.4167 73.6978C41.4812 73.8946 41.5779 74.072 41.7069 74.2225C41.8395 74.3768 41.9899 74.5118 42.1547 74.6198C42.316 74.7317 42.4951 74.8166 42.6886 74.8822C42.882 74.9478 43.0791 75.0133 43.2797 75.0751C43.4803 75.1368 43.6846 75.1985 43.8924 75.2603C44.1002 75.3181 44.2936 75.3953 44.4692 75.484C44.6483 75.5727 44.8095 75.6808 44.9564 75.8003C45.1105 75.9277 45.2251 76.082 45.304 76.2594C45.3828 76.4369 45.4186 76.6375 45.4186 76.8574C45.4186 77.2818 45.2538 77.602 44.9278 77.8141C44.6197 78.0147 44.1611 78.1189 43.5628 78.1189C43.1615 78.1189 42.7674 78.0572 42.3805 77.9337C42.0544 77.8296 41.7284 77.6791 41.4095 77.4862V78.4584C41.7284 78.6436 42.0652 78.7825 42.4199 78.8789C42.7961 78.9792 43.1902 79.0294 43.6057 79.0294C44.0357 79.0294 44.419 78.9792 44.7486 78.8828C45.0782 78.7863 45.3613 78.6397 45.5977 78.4468C45.8306 78.2539 46.0062 78.0302 46.1208 77.764C46.239 77.5017 46.2964 77.1969 46.2964 76.8574C46.2964 76.5681 46.2641 76.3096 46.1961 76.0742C46.1316 75.8428 46.0313 75.6383 45.8987 75.457C45.7661 75.2718 45.6157 75.1136 45.4509 74.9863C45.286 74.8552 45.1105 74.751 44.917 74.6739C44.7092 74.5928 44.5086 74.5157 44.3115 74.4501C44.1181 74.3845 43.9174 74.3189 43.7168 74.2649C43.509 74.2071 43.3191 74.1376 43.1436 74.0643C42.968 73.991 42.8068 73.9061 42.6599 73.8136C42.5059 73.7171 42.3876 73.6014 42.3088 73.4702C42.2264 73.3352 42.1834 73.1847 42.1834 73.015C42.1834 72.552 42.3446 72.2048 42.6671 71.9695C42.9752 71.7458 43.4266 71.6339 44.0285 71.6339C44.3617 71.6339 44.6842 71.684 45.003 71.7805C45.2574 71.8576 45.5118 71.9695 45.7554 72.1123V71.2134C45.458 71.0668 45.1606 70.9549 44.8597 70.8777C44.5408 70.7967 44.2255 70.7543 43.9067 70.7543C43.4588 70.7543 43.0719 70.8122 42.7423 70.924C42.4163 71.0359 42.1512 71.2018 41.9398 71.4178C41.7392 71.6493 41.5815 71.8924 41.474 72.1585ZM53.623 70.9125V71.7573H54.9558V76.8342C54.9558 77.0734 54.9737 77.2933 55.0095 77.4939C55.0454 77.6907 55.0991 77.8681 55.1707 78.0263C55.2424 78.1845 55.3212 78.3195 55.4108 78.4314C55.5004 78.5394 55.6007 78.6281 55.7117 78.6899C55.8336 78.7593 55.9446 78.8172 56.0485 78.8635C56.1524 78.9098 56.2527 78.9445 56.3423 78.9676C56.4355 78.9908 56.5286 79.0062 56.6253 79.0178C56.7185 79.0294 56.8152 79.0332 56.912 79.0332H56.9478C57.1054 79.0332 57.2595 79.0178 57.4171 78.9869C57.5461 78.9599 57.6787 78.9252 57.8076 78.875V78.0186C57.7145 78.0533 57.6213 78.0803 57.521 78.1035C57.367 78.1382 57.2093 78.1536 57.0445 78.1536C56.8331 78.1536 56.6468 78.1305 56.4928 78.0842C56.3316 78.0379 56.2026 77.9646 56.1059 77.8643C56.0127 77.764 55.941 77.629 55.8945 77.4631C55.8515 77.3049 55.83 77.1159 55.83 76.896V71.7535H57.8076V70.9086H55.83V68.5823H54.9558V70.9086H53.623V70.9125ZM65.4711 75.9932C65.4424 76.1514 65.4245 76.3173 65.4245 76.4948C65.4245 76.7069 65.4424 76.9075 65.4818 77.0927C65.5212 77.2779 65.5785 77.4476 65.6538 77.6097C65.7326 77.7717 65.8186 77.9144 65.9117 78.0379C66.0049 78.1575 66.1052 78.2616 66.2091 78.3465C66.3166 78.4314 66.4348 78.5085 66.5638 78.5818C66.6964 78.6551 66.8397 78.7207 66.9901 78.7786C67.1442 78.8365 67.2875 78.8828 67.4236 78.9175C67.5562 78.9522 67.6852 78.9792 67.8034 78.9946C67.9252 79.0101 68.0471 79.0216 68.1617 79.0294C68.2763 79.0371 68.3946 79.0409 68.5128 79.0409C68.6633 79.0409 68.8102 79.0332 68.9571 79.0178C69.1075 79.0023 69.2616 78.9792 69.4156 78.9483C69.5661 78.9175 69.7238 78.8712 69.885 78.8172C70.0462 78.7593 70.2182 78.6937 70.3937 78.6127C70.5585 78.5356 70.7126 78.4314 70.8487 78.3041C70.9849 78.1768 71.1103 78.0225 71.2178 77.845C71.3252 77.6675 71.4041 77.4747 71.4578 77.2625C71.5115 77.0464 71.5366 76.815 71.5366 76.5603V74.0836C71.5366 73.5358 71.4685 73.0536 71.3324 72.6408C71.1963 72.2318 70.9956 71.8885 70.7269 71.6107C70.4582 71.333 70.1286 71.1208 69.7345 70.9819C69.3404 70.8392 68.8782 70.7697 68.3552 70.7697C67.9718 70.7697 67.592 70.8044 67.2159 70.8739C66.8648 70.9395 66.5172 71.0359 66.1697 71.1632V72.0582C66.8074 71.8268 67.5168 71.711 68.2942 71.711C68.674 71.711 69.0072 71.7535 69.2974 71.8345C69.5912 71.9194 69.8384 72.0467 70.039 72.2164C70.2432 72.39 70.3973 72.6215 70.4976 72.907C70.5979 73.1886 70.6481 73.5242 70.6481 73.91V74.0412L69.3046 73.9524H69.0645L68.8567 73.9602C68.7994 73.964 68.7134 73.9679 68.6059 73.9794C68.4877 73.991 68.3587 74.0026 68.2226 74.018C68.0757 74.0335 67.9396 74.0527 67.8106 74.072C67.6852 74.0952 67.567 74.1222 67.4559 74.1492C67.3484 74.1762 67.2338 74.2148 67.112 74.2649C66.9902 74.3112 66.8576 74.3652 66.7143 74.4308C66.5781 74.4925 66.4527 74.562 66.3417 74.6353C66.2306 74.7086 66.1303 74.7896 66.0443 74.8745C65.9583 74.9593 65.8795 75.0558 65.8078 75.1677C65.7326 75.2834 65.6645 75.4107 65.6036 75.5496C65.5463 75.6885 65.4997 75.8351 65.4711 75.9932ZM66.8683 77.7485C66.4886 77.4669 66.2987 77.0503 66.2987 76.4948C66.2987 75.3297 67.2624 74.7472 69.1899 74.7472C69.473 74.7472 69.7273 74.7549 69.9602 74.7703C70.1931 74.7857 70.3973 74.8127 70.5693 74.8436L70.6624 74.8629V76.5449C70.6624 77.085 70.4761 77.4901 70.1035 77.764C69.7453 78.0263 69.215 78.1575 68.5128 78.1575H68.4913C67.7784 78.1575 67.2338 78.0225 66.8683 77.7485ZM78.9994 70.9125V71.7573H80.3322V76.8342C80.3322 77.0734 80.3501 77.2933 80.3859 77.4939C80.4217 77.6907 80.4755 77.8681 80.5471 78.0263C80.6188 78.1845 80.6976 78.3195 80.7872 78.4314C80.8767 78.5394 80.9771 78.6281 81.0881 78.6899C81.21 78.7593 81.321 78.8172 81.4249 78.8635C81.5288 78.9098 81.6291 78.9445 81.7187 78.9676C81.8118 78.9908 81.905 79.0062 82.0017 79.0178C82.0949 79.0294 82.1916 79.0332 82.2883 79.0332H82.3242C82.4818 79.0332 82.6359 79.0178 82.7935 78.9869C82.9225 78.9599 83.055 78.9252 83.184 78.875V78.0186C83.0909 78.0533 82.9977 78.0803 82.8974 78.1035C82.7434 78.1382 82.5857 78.1536 82.4209 78.1536C82.2059 78.1536 82.0232 78.1305 81.8692 78.0842C81.7079 78.0379 81.579 77.9646 81.4822 77.8643C81.3891 77.764 81.3174 77.629 81.2709 77.4631C81.2279 77.3049 81.2064 77.1159 81.2064 76.896V71.7535H83.184V70.9086H81.2064V68.5823H80.3286V70.9086H78.9994V70.9125ZM90.7507 74.9555V75.0095C90.7507 75.4146 90.7758 75.7849 90.826 76.1244C90.8761 76.4639 90.9514 76.7725 91.0481 77.0503C91.1448 77.3242 91.2631 77.5672 91.3992 77.7756C91.5318 77.98 91.6858 78.1498 91.8542 78.2848C92.0298 78.4237 92.2053 78.5394 92.3845 78.6359C92.56 78.7323 92.7391 78.8095 92.9183 78.8635C93.101 78.9213 93.2909 78.9638 93.4879 78.9908C93.685 79.0178 93.8964 79.0332 94.1185 79.0332H94.1651C94.681 79.0332 95.1611 78.9869 95.5982 78.8905C96.0102 78.8017 96.3863 78.6744 96.7267 78.5008V77.5595C96.4365 77.7215 96.1033 77.845 95.7343 77.9337C95.29 78.0379 94.7849 78.088 94.2224 78.088C93.8175 78.088 93.4628 78.0379 93.1547 77.9414C92.843 77.8411 92.5779 77.6945 92.3665 77.4939C92.1552 77.2972 91.9832 77.0387 91.8578 76.7185C91.736 76.406 91.6572 76.0395 91.6213 75.6152L91.6106 75.484H97.1925L97.214 75.0249V74.67C97.214 74.6276 97.2104 74.5581 97.1996 74.4617C97.1924 74.3652 97.1745 74.2302 97.1566 74.0566C97.1387 73.8907 97.1136 73.7325 97.085 73.5898C97.0563 73.4471 97.0276 73.3159 96.9918 73.2002C96.9596 73.0844 96.9094 72.9571 96.8521 72.8105C96.7948 72.6639 96.7231 72.5057 96.6407 72.336C96.5583 72.1701 96.4723 72.0158 96.3756 71.8808C96.2824 71.7458 96.1821 71.63 96.0782 71.5259C95.9707 71.4255 95.8453 71.3291 95.702 71.2404C95.5587 71.1516 95.3939 71.0668 95.2076 70.9896C95.0249 70.9125 94.8314 70.8585 94.6272 70.8199C94.423 70.7813 94.208 70.762 93.9788 70.762C92.8968 70.762 92.0907 71.1015 91.5533 71.7805C91.0123 72.4672 90.7436 73.5011 90.7436 74.8899V74.9555H90.7507ZM96.2287 74.6739H91.6177L91.6249 74.5465C91.65 74.0335 91.7145 73.5898 91.8148 73.2233C91.9187 72.8491 92.062 72.5482 92.2411 72.3206C92.4274 72.093 92.6639 71.9194 92.9577 71.8075C93.2443 71.6956 93.5882 71.6416 93.9823 71.6416C94.2367 71.6416 94.4732 71.6725 94.6881 71.738C94.9067 71.8036 95.1037 71.9001 95.2793 72.0274C95.4548 72.1547 95.6053 72.3013 95.7271 72.4595C95.8489 72.6215 95.9457 72.7989 96.0137 72.9918C96.0782 73.1693 96.132 73.3352 96.175 73.4856C96.218 73.64 96.2538 73.7788 96.2753 73.8984C96.2968 74.018 96.3147 74.1299 96.3254 74.2379C96.3362 74.3498 96.3434 74.4578 96.3434 74.5543V74.6777H96.2287V74.6739Z" fill="#C29166"/>
</svg>
