<svg width="20" height="15" viewBox="0 0 20 15" fill="none" xmlns="http://www.w3.org/2000/svg">
<rect width="20" height="15" fill="#D2D2D2"/>
<g id="SunInvest / Desktop / 1920px" clip-path="url(#clip0_0_1)">
<rect width="1920" height="7589" transform="translate(-1329 -7375)" fill="white"/>
<g id="Footer">
<rect width="1920" height="328" transform="translate(-1329 -114)" fill="#006156"/>
<g id="b">
<path id="Vector" d="M9.62977 0C12.0899 0 14.55 0 17.0185 0C17.5156 0 17.9874 0.0832408 18.3918 0.382908C18.9815 0.81576 19.2343 1.40677 19.2343 2.13097C19.2343 5.71032 19.2343 9.28968 19.2343 12.869C19.2343 13.1521 19.2006 13.4517 19.0995 13.7098C18.8046 14.4839 18.2064 14.9001 17.3723 14.9917C17.2712 15 17.1701 15 17.069 15C12.1067 15 7.1444 15 2.17365 15C1.18792 15 0.412825 14.5089 0.1348 13.6681C0.05055 13.4184 0.01685 13.1437 0.01685 12.8857C0 9.298 0.01685 5.71032 0 2.12264C0 0.874029 0.867775 0.174806 1.64287 0.0499445C1.83665 0.0166482 2.04727 0 2.24947 0C4.70957 0 7.16967 0 9.62977 0ZM17.1954 3.81243C17.128 3.8707 17.0859 3.91232 17.0438 3.95394C15.1481 5.72697 13.2525 7.5 11.3569 9.27303C11.0789 9.53108 10.8093 9.78912 10.5228 10.0305C10.1184 10.3552 9.64662 10.5216 9.11584 10.4301C8.6609 10.3552 8.30704 10.1138 7.9869 9.80577C6.0997 7.95782 4.20407 6.1182 2.31687 4.27026C2.24105 4.19534 2.17365 4.09545 2.10625 4.00388L2.04727 4.04551V12.9856H17.1954V3.81243ZM9.38545 8.35738L16.1591 2.02275H2.8982L9.38545 8.34906V8.35738Z" fill="#FFA506"/>
</g>
</g>
</g>
<defs>
<clipPath id="clip0_0_1">
<rect width="1920" height="7589" fill="white" transform="translate(-1329 -7375)"/>
</clipPath>
</defs>
</svg>
