<svg width="294" height="201" viewBox="0 0 294 201" fill="none" xmlns="http://www.w3.org/2000/svg">
<g opacity="0.1">
<mask id="mask0_37_1205" style="mask-type:alpha" maskUnits="userSpaceOnUse" x="0" y="0" width="294" height="201">
<rect width="293.255" height="201" fill="#D9D9D9"/>
</mask>
<g mask="url(#mask0_37_1205)">
<path d="M239.521 185.399C251.343 167.428 257.83 146.208 257.83 124.329C257.84 63.1421 208.152 13.3702 147.068 13.3702C85.9848 13.3702 36.3067 63.1421 36.3067 124.319C36.3067 146.15 42.813 167.399 54.625 185.389L27.1863 212.875L59.8242 245.568L147.078 158.166L234.332 245.568L266.97 212.875L239.541 185.389L239.521 185.399ZM130.754 109.132L88.4053 151.552C84.5132 143.153 82.4509 133.94 82.4509 124.319C82.4509 88.6293 111.439 59.6022 147.068 59.6022C182.698 59.6022 211.686 88.639 211.686 124.319C211.686 133.804 209.585 143.056 205.683 151.494L163.392 109.132C154.378 100.102 139.768 100.102 130.754 109.132Z" fill="url(#paint0_linear_37_1205)"/>
</g>
</g>
<defs>
<linearGradient id="paint0_linear_37_1205" x1="27.1863" y1="129.469" x2="266.96" y2="129.469" gradientUnits="userSpaceOnUse">
<stop stop-color="#FFAF00"/>
<stop offset="1" stop-color="#FFDB00"/>
</linearGradient>
</defs>
</svg>
