<svg width="658" height="451" viewBox="0 0 658 451" fill="none" xmlns="http://www.w3.org/2000/svg">
<g opacity="0.1">
<mask id="mask0_37_33" style="mask-type:alpha" maskUnits="userSpaceOnUse" x="0" y="0" width="658" height="451">
<rect width="658" height="451" fill="#D9D9D9"/>
</mask>
<g mask="url(#mask0_37_33)">
<path d="M537.434 415.995C563.959 375.672 578.514 328.059 578.514 278.967C578.536 141.677 467.047 30 329.989 30C192.931 30 81.4642 141.677 81.4642 278.945C81.4642 327.929 96.0629 375.607 122.566 415.973L61 477.644L134.232 551L330.011 354.891L525.789 551L599.022 477.644L537.477 415.973L537.434 415.995ZM293.384 244.867L198.362 340.05C189.629 321.205 185.002 300.532 185.002 278.945C185.002 198.865 250.044 133.734 329.989 133.734C409.934 133.734 474.977 198.887 474.977 278.945C474.977 300.227 470.262 320.987 461.507 339.919L366.616 244.867C346.391 224.608 313.609 224.608 293.384 244.867Z" fill="url(#paint0_linear_37_33)"/>
</g>
</g>
<defs>
<linearGradient id="paint0_linear_37_33" x1="61" y1="290.5" x2="599" y2="290.5" gradientUnits="userSpaceOnUse">
<stop stop-color="#FFAF00"/>
<stop offset="1" stop-color="#FFDB00"/>
</linearGradient>
</defs>
</svg>
