<svg width="40" height="40" viewBox="0 0 40 40" fill="none" xmlns="http://www.w3.org/2000/svg">
<path fill-rule="evenodd" clip-rule="evenodd" d="M19.0191 4.18033C18.7866 4.4937 18.6316 5.09002 18.744 5.56605C18.8559 6.0403 18.5623 6.51559 18.088 6.62759C17.6138 6.73954 17.1385 6.44589 17.0265 5.97159C16.7869 4.95714 17.0788 3.81899 17.6184 3.1068C17.8868 2.75261 18.3287 2.36145 18.9364 2.32084C19.6015 2.27638 20.1188 2.66688 20.4591 3.15997C20.7584 3.59201 21.2567 4.30845 21.7916 5.07738C22.5939 6.23065 23.4783 7.50195 23.8961 8.10895C24.1151 8.42554 24.2774 8.77095 24.3788 9.15065L24.9843 11.0306C25.1337 11.4945 24.8788 11.9916 24.4149 12.141C23.9511 12.2904 23.454 12.0355 23.3046 11.5717L22.6916 9.66877C22.6864 9.65224 22.6815 9.63559 22.6772 9.61883C22.6296 9.43448 22.5534 9.26965 22.444 9.11165L22.4425 9.10954C22.0259 8.5043 21.1494 7.2443 20.3502 6.09559C19.8202 5.33364 19.3242 4.62068 19.0191 4.18033ZM18.9202 4.05759C18.916 4.05508 18.914 4.05335 18.914 4.05311C18.914 4.05288 18.9161 4.05413 18.9202 4.05759ZM12.8002 4.10931C12.4324 3.88689 12.0043 3.83664 11.6008 3.97927C11.2248 4.11216 10.952 4.38183 10.7681 4.64992C10.4008 5.18549 10.2306 5.93301 10.2802 6.70189C10.382 8.27824 11.3994 10.0734 13.8931 11.1131C14.3555 11.5642 15.0426 12.0691 15.4411 12.3536C15.5512 12.4322 15.6732 12.4819 15.7981 12.5042L10.0268 12.3962C9.92741 12.3943 9.82847 12.4092 9.73406 12.4404L9.61371 12.4802C9.53612 12.5059 9.42318 12.5435 9.28135 12.5908C8.99782 12.6855 8.59871 12.8194 8.13606 12.9767C7.21206 13.2908 6.02953 13.6995 5.00743 14.0744C4.95067 14.0952 4.89621 14.1218 4.84489 14.1538C4.16334 14.5781 4.00948 15.3388 4.10835 15.9512C4.20857 16.5719 4.56681 17.1841 5.11067 17.6622C5.1666 17.7114 5.22442 17.7591 5.28411 17.8054C4.01581 18.5883 3.0464 19.855 2.67671 21.4199C1.98095 24.3651 3.65769 27.3155 6.46694 28.2678C6.07718 28.7434 5.83067 29.3217 5.73387 29.9079C5.58148 30.831 5.78531 31.8651 6.48947 32.6602C6.68747 32.8838 6.98506 32.992 7.28035 32.9479C7.43941 32.9241 7.66935 32.8872 7.93788 32.8441C8.02059 32.8309 8.10694 32.817 8.19594 32.8028C8.57865 32.7416 9.02071 32.6718 9.468 32.6059C10.3892 32.4701 11.2528 32.3635 11.6819 32.3635C12.1119 32.3635 12.9057 32.4549 13.761 32.5905C14.5636 32.7177 15.3518 32.8725 15.8361 32.9942C15.9525 33.0472 16.0689 33.1004 16.1854 33.1537C18.2199 34.0838 20.2678 35.02 23.1782 34.8024C23.7406 34.7613 24.2705 34.9126 24.686 35.2381C24.6862 35.2383 24.6865 35.2385 24.6867 35.2387L27.5555 37.4937C27.9386 37.7948 28.4933 37.7284 28.7945 37.3452C29.0956 36.9621 29.0292 36.4074 28.6461 36.1063L25.7765 33.8507L25.7757 33.8501C24.984 33.2292 24.0098 32.9722 23.0495 33.0424L23.0479 33.0425C20.6004 33.2258 18.9309 32.4651 16.8624 31.5225C16.7413 31.4673 16.6188 31.4115 16.4947 31.3552C16.4491 31.3345 16.4017 31.3177 16.3532 31.3051C15.7981 31.1601 14.9073 30.9854 14.0372 30.8475C13.1792 30.7116 12.2641 30.5988 11.6819 30.5988C11.0988 30.5988 10.1004 30.7289 9.21071 30.86C8.75253 30.9275 8.30194 30.9987 7.9173 31.0602C7.82353 31.0752 7.73418 31.0895 7.64977 31.1031C7.62418 31.1072 7.59906 31.1112 7.57441 31.1152C7.45618 30.8382 7.42159 30.5188 7.475 30.1954C7.55577 29.7064 7.82253 29.2997 8.17035 29.0911L8.17241 29.0899C8.53053 28.8737 9.06206 28.6347 9.66582 28.4272C9.92147 28.3674 10.1719 28.2906 10.4155 28.1976C11.0793 28.0188 11.7767 27.8964 12.3977 27.8894C12.7601 27.8855 13.1444 27.9019 13.5648 27.9197C13.6222 27.9222 13.6802 27.9247 13.7389 27.9271C14.2162 27.9469 14.7326 27.9651 15.2433 27.9456C16.2471 27.9074 17.3822 27.7216 18.2834 26.9699C18.3075 26.9498 18.3304 26.9285 18.3522 26.9061L17.7182 26.2923C18.3522 26.9061 18.3521 26.9061 18.3522 26.9061L18.3544 26.9037L18.3591 26.8989L18.3753 26.8819C18.3891 26.8675 18.4086 26.8469 18.4332 26.8208C18.4823 26.7685 18.5515 26.6939 18.6343 26.6023C18.799 26.42 19.0209 26.1664 19.2451 25.8851C19.4666 25.6073 19.7047 25.2848 19.8924 24.967C20.0555 24.6908 20.276 24.2655 20.2814 23.8248L20.2815 23.8213C20.2852 23.3843 20.1435 22.8742 19.9942 22.4375C19.8356 21.9731 19.6276 21.4788 19.4261 21.0347C19.2234 20.5882 19.0214 20.1793 18.8704 19.8827C18.7948 19.7341 18.7315 19.6128 18.6869 19.5282C18.6646 19.4859 18.6469 19.4527 18.6346 19.4298L18.6204 19.4032L18.6153 19.3938L18.6149 19.3932C18.6149 19.3931 18.6148 19.3928 17.839 19.8132L18.6149 19.3932C18.5474 19.2684 18.4505 19.1615 18.3329 19.0821L14.9804 16.8171C14.8456 16.7261 14.6883 16.674 14.5258 16.6668L10.3561 16.4811C10.2424 16.4761 10.1288 16.4931 10.0215 16.5311C7.98006 17.256 6.8043 16.8014 6.27571 16.3367C5.99188 16.0872 5.87595 15.8275 5.8505 15.6699C5.84914 15.6615 5.84802 15.6537 5.84712 15.6465C6.79406 15.3025 7.85465 14.9362 8.70394 14.6475C9.163 14.4915 9.55906 14.3586 9.84024 14.2647C9.96641 14.2226 10.0694 14.1883 10.1445 14.1634L15.7398 14.2681L20.274 16.6234C20.7064 16.8479 21.2391 16.6795 21.4637 16.2471C21.6884 15.8146 21.5199 15.2819 21.0875 15.0573L16.3698 12.6068C16.2712 12.5555 16.1641 12.5235 16.054 12.5121C16.2935 12.4847 16.5209 12.3598 16.6719 12.1482C16.9551 11.7515 16.8631 11.2005 16.4665 10.9174C15.9992 10.5837 15.3492 10.0948 15.0391 9.76212C14.949 9.66548 14.8384 9.5903 14.7153 9.54212C12.6682 8.74077 12.0972 7.4553 12.0413 6.58818C12.0179 6.22624 12.0821 5.94712 12.1559 5.77464C13.1045 6.32224 14.7896 7.31042 16.2947 8.19536C17.1161 8.6783 17.8822 9.12959 18.4431 9.46018L19.3591 10.0003C19.3591 10.0004 19.3593 10.0005 19.8078 9.24059L19.3591 10.0003L19.3702 10.0068C19.6386 10.1601 19.8112 10.3043 19.9198 10.46L19.9205 10.461C19.9958 10.5686 20.0968 10.7167 20.2198 10.8971C21.0291 12.0837 22.7916 14.6681 24.4496 16.3252L24.4541 16.3297C25.0739 16.9405 25.7022 17.6952 26.0204 18.2351C26.9831 19.8921 30.466 25.0974 33.1 28.6977C33.1655 28.7872 33.2474 28.8637 33.3412 28.9228L36.7679 31.0857C37.18 31.3458 37.7249 31.2225 37.9851 30.8104C38.2451 30.3984 38.1219 29.8534 37.7098 29.5933L34.4254 27.5204C31.8173 23.9446 28.4487 18.9026 27.5451 17.3466L27.5425 17.3422C27.1179 16.6206 26.3737 15.744 25.6949 15.0749C24.1725 13.5524 22.5332 11.1537 21.7013 9.93636C21.5678 9.74107 21.4551 9.57618 21.3671 9.45018C21.0501 8.99583 20.6311 8.6953 20.2511 8.47765L19.3392 7.93989C18.7779 7.60907 18.0112 7.15748 17.1892 6.67412C15.5536 5.71245 13.6931 4.62162 12.8002 4.10931ZM5.84705 15.5705C5.8475 15.5709 5.84708 15.5751 5.84442 15.5818C5.84527 15.5735 5.8466 15.5702 5.84705 15.5705ZM17.1625 20.421L14.1987 18.4187L12.1204 18.3262C13.7278 19.6974 14.5295 21.8978 14.0104 24.0952C13.8316 24.8518 13.5127 25.5387 13.0876 26.1349C13.2738 26.141 13.4596 26.1489 13.6415 26.1567C13.6989 26.1591 13.7559 26.1615 13.8124 26.1639C14.2895 26.1838 14.743 26.1987 15.1761 26.1822C16.037 26.1494 16.6741 25.9945 17.1182 25.6431C17.1264 25.6344 17.1361 25.6241 17.147 25.6125C17.1894 25.5674 17.2508 25.5013 17.3249 25.4192C17.4739 25.2543 17.6705 25.0294 17.8653 24.785C18.0629 24.5372 18.2445 24.2871 18.3728 24.0697C18.4883 23.8741 18.5119 23.7849 18.5163 23.7808C18.5104 23.6542 18.4571 23.3967 18.3244 23.0081C18.1914 22.6188 18.0088 22.1819 17.8191 21.7639C17.6305 21.3484 17.4408 20.9642 17.2977 20.6832C17.2454 20.5804 17.1995 20.4917 17.1625 20.421ZM9.85812 26.5206C11.039 26.0446 11.9781 25.0221 12.2929 23.6895C12.8078 21.5099 11.4576 19.3253 9.27618 18.8105C7.09465 18.2955 4.90907 19.6459 4.39415 21.8257C3.87925 24.0052 5.22948 26.1898 7.41088 26.7047C8.01606 26.8475 8.62153 26.8468 9.19153 26.7247C9.40782 26.6522 9.63088 26.5837 9.85812 26.5206Z" fill="#FF7A40"/>
</svg>
