<svg width="18" height="14" viewBox="0 0 18 14" fill="none" xmlns="http://www.w3.org/2000/svg">
<path d="M16.4083 0.252525L16.127 0.357263L0.860436 6.0052C0.752248 6.03955 0.658219 6.10979 0.593087 6.20492C0.527954 6.30003 0.495399 6.41466 0.500525 6.53081C0.505651 6.64697 0.548168 6.7581 0.621412 6.84678C0.694655 6.93547 0.794486 6.99669 0.905253 7.02085L4.85713 8.13172L5.59434 10.3534L6.33155 12.5752C6.3739 12.6841 6.4415 12.7807 6.52848 12.8568C6.61547 12.9327 6.7192 12.9858 6.83069 13.0113C6.94217 13.0368 7.05802 13.0339 7.16817 13.003C7.27838 12.972 7.37952 12.914 7.46287 12.8338L9.50448 10.8533L13.5136 13.6447C14.0035 13.9875 14.702 13.7336 14.8272 13.1686L17.4824 1.12217C17.6122 0.525479 17.0002 0.0351134 16.4083 0.252525ZM14.4594 2.92653L7.5618 8.71571L7.23721 8.98865C7.16595 9.04667 7.11934 9.13095 7.10739 9.22352L7.03479 9.83929L6.83539 11.569C6.83703 11.5901 6.83046 11.6109 6.81713 11.627C6.80379 11.6431 6.78479 11.653 6.76429 11.6547C6.7438 11.6564 6.72349 11.6497 6.70784 11.636C6.69219 11.6223 6.68248 11.6027 6.68084 11.5817L6.11981 9.85352L5.54025 8.08412C5.51574 8.00454 5.51899 7.91874 5.54946 7.84137C5.57992 7.76407 5.63569 7.70004 5.70716 7.66039L12.8845 3.43594L14.2353 2.64247C14.4316 2.52503 14.6325 2.78053 14.4594 2.92653Z" fill="white"/>
</svg>
