<svg width="40" height="40" viewBox="0 0 40 40" fill="none" xmlns="http://www.w3.org/2000/svg">
<path fill-rule="evenodd" clip-rule="evenodd" d="M20.2669 2.31745C20.5525 2.31381 20.8221 2.44858 20.9906 2.67914C21.221 2.99445 21.8753 3.51887 22.941 4.15694C23.9654 4.77026 25.2588 5.4245 26.638 6.02454C28.0166 6.62436 29.4647 7.16289 30.7962 7.54995C32.142 7.94118 33.3126 8.16089 34.1565 8.16089C34.6438 8.16089 35.0388 8.55589 35.0388 9.04324V23.6519C35.0388 25.3126 34.0429 26.994 32.7749 28.4945C31.4794 30.0276 29.7652 31.5275 28.0568 32.8425C26.3432 34.1613 24.6076 35.3151 23.2491 36.1537C22.5695 36.5731 21.9801 36.9162 21.5307 37.1636C21.3065 37.2869 21.1124 37.3891 20.9567 37.466C20.8285 37.5291 20.6557 37.6114 20.5104 37.651C20.3584 37.6925 20.198 37.6925 20.0461 37.651C19.9099 37.6139 19.7443 37.5389 19.6132 37.4771C19.4578 37.4037 19.2639 37.3061 19.0391 37.1874C18.5888 36.9495 17.9981 36.6185 17.3167 36.2095C15.9548 35.3922 14.2141 34.2537 12.4949 32.9118C10.7804 31.5737 9.05947 30.0119 7.75947 28.3441C6.47094 26.6909 5.51758 24.8334 5.51758 22.9215V9.04324C5.51758 8.55589 5.91265 8.16089 6.39994 8.16089C7.14683 8.16089 8.27206 7.94401 9.61447 7.55054C10.9378 7.1626 12.4066 6.62289 13.8145 6.02213C15.2232 5.42094 16.5534 4.766 17.6026 4.15234C18.1276 3.84527 18.5706 3.55524 18.9136 3.29407C19.2694 3.0232 19.4675 2.82061 19.5527 2.6975C19.7153 2.46271 19.9814 2.3211 20.2669 2.31745ZM20.2825 4.45873C20.1857 4.54016 20.0852 4.62002 19.9827 4.69809C19.565 5.01614 19.0574 5.34584 18.4936 5.67561C17.3651 6.33565 15.9654 7.02289 14.5071 7.64518C13.048 8.26789 11.5129 8.83295 10.1108 9.24395C9.10259 9.53954 8.12688 9.76642 7.2823 9.86766V22.9215C7.2823 24.26 7.9633 25.7351 9.15135 27.2592C10.328 28.7688 11.926 30.2292 13.5806 31.5207C15.2306 32.8084 16.9092 33.9068 18.2248 34.6964C18.8822 35.091 19.4448 35.4059 19.8632 35.6269C20.0235 35.7115 20.1602 35.7811 20.2713 35.8354C20.3822 35.7788 20.519 35.7061 20.6798 35.6176C21.0991 35.3868 21.663 35.0588 22.3222 34.652C23.6412 33.8378 25.3249 32.7182 26.9805 31.444C28.6412 30.1658 30.2459 28.7532 31.427 27.3555C32.6357 25.9251 33.2741 24.6573 33.2741 23.6519V9.87466C32.3698 9.77766 31.3489 9.54836 30.3037 9.24454C28.8869 8.83265 27.3675 8.26642 25.934 7.64277C24.5011 7.0193 23.1375 6.33142 22.0345 5.67102C21.3764 5.277 20.7637 4.86561 20.2825 4.45873ZM18.1848 12.3462C18.1848 10.8887 19.3611 9.70566 20.8205 9.70566C22.28 9.70566 23.4564 10.8887 23.4564 12.3462C23.4564 12.9292 23.2642 13.458 22.9575 13.8869C22.6741 14.2833 22.1229 14.3749 21.7265 14.0915C21.3302 13.808 21.2386 13.2569 21.522 12.8605C21.6318 12.707 21.6917 12.5325 21.6917 12.3462C21.6917 11.8588 21.3009 11.4704 20.8205 11.4704C20.3402 11.4704 19.9495 11.8588 19.9495 12.3462C19.9495 12.5325 20.0093 12.707 20.1191 12.8605C20.4025 13.2569 20.3109 13.808 19.9146 14.0915C19.5182 14.3749 18.9671 14.2833 18.6836 13.8869C18.3769 13.458 18.1848 12.9292 18.1848 12.3462ZM13.8057 15.2664L14.4702 17.3042C14.5685 17.6058 14.4974 17.9369 14.2839 18.1716C13.9882 18.4965 13.7473 18.9364 13.5398 19.5061C13.454 19.7417 13.2719 19.9297 13.0392 20.023L12.0617 20.4151C12.0716 21.1558 12.1142 21.642 12.2926 22.1063L12.887 22.4043C13.0031 22.4625 13.1048 22.5455 13.1851 22.6476C13.4094 22.9327 13.8128 23.281 14.3271 23.6177C14.8326 23.9488 15.3916 24.2337 15.8846 24.4137C16.1795 24.5214 16.395 24.7776 16.4505 25.0866L16.7414 26.7064H17.0132L17.5843 25.4975C17.7706 25.103 18.2173 24.9039 18.6352 25.0291C19.3955 25.2568 20.2252 25.3822 21.0999 25.3822C22.0899 25.3822 23.0235 25.2217 23.861 24.9352C24.2694 24.7954 24.7189 24.9717 24.9235 25.3518L25.6527 26.7064H25.7372L26.0495 24.2625C26.0793 24.0294 26.2009 23.8178 26.3873 23.6746C27.6104 22.7354 28.2671 21.5548 28.2671 20.3359C28.2671 18.3964 26.5415 16.4875 23.6588 15.6682C23.1901 15.535 22.9181 15.047 23.0513 14.5783C23.1845 14.1095 23.6725 13.8375 24.1412 13.9707C27.4067 14.8988 30.0318 17.2755 30.0318 20.3359C30.0318 22.1146 29.1302 23.677 27.7549 24.8384L27.4387 27.3132C27.4386 27.3136 27.4386 27.314 27.4385 27.3144C27.356 27.9715 26.7979 28.4711 26.1302 28.4711H25.385C24.8997 28.4711 24.4539 28.2033 24.2242 27.7757C24.2241 27.7755 24.2242 27.7757 24.2242 27.7757L23.7102 26.8209C22.8864 27.0334 22.0089 27.1469 21.0999 27.1469C20.3288 27.1469 19.5809 27.0652 18.8686 26.9104L18.4924 27.7067C18.4918 27.708 18.4912 27.7093 18.4905 27.7106C18.2752 28.1717 17.8121 28.4711 17.2971 28.4711H16.3711C15.7239 28.4711 15.1843 28.0055 15.0704 27.3855L15.0698 27.382L14.7996 25.8778C14.3109 25.6628 13.8143 25.3914 13.3602 25.094C12.8298 24.7466 12.3135 24.3352 11.9318 23.8995L11.2194 23.5423C11.0487 23.4567 10.9104 23.3181 10.8252 23.1472C10.2934 22.0807 10.2937 21.0578 10.2941 19.9128C10.2941 19.8818 10.2941 19.8507 10.2941 19.8195C10.2941 19.459 10.5134 19.1347 10.848 19.0005L12.0284 18.5271C12.1949 18.1313 12.3954 17.7493 12.6449 17.3988L11.7623 14.6919C11.6811 14.4428 11.7147 14.1705 11.8542 13.9487C11.9937 13.7269 12.2245 13.5785 12.4842 13.5438C13.7348 13.3766 15.2747 13.5507 16.4618 14.3235C16.7989 14.1903 17.1477 14.0743 17.5043 13.975C17.9738 13.8442 18.4603 14.1188 18.5911 14.5882C18.7218 15.0577 18.4472 15.5442 17.9778 15.675C17.8964 15.6977 17.8158 15.7213 17.7361 15.7458C17.8144 16.0924 17.6772 16.4667 17.3638 16.6751C16.9579 16.945 16.4102 16.8347 16.1404 16.4289C16.0382 16.275 15.9132 16.1355 15.7693 16.0106C15.7644 16.0065 15.7595 16.0023 15.7547 15.9981C15.2678 15.5826 14.5698 15.3329 13.8057 15.2664ZM15.3409 17.915C15.8282 17.915 16.2232 18.3101 16.2232 18.7974V19.2369C16.2232 19.7242 15.8282 20.1192 15.3409 20.1192C14.8536 20.1192 14.4585 19.7242 14.4585 19.2369V18.7974C14.4585 18.3101 14.8536 17.915 15.3409 17.915Z" fill="#FF7A40"/>
</svg>
