<svg width="40" height="41" viewBox="0 0 40 41" fill="none" xmlns="http://www.w3.org/2000/svg">
<path fill-rule="evenodd" clip-rule="evenodd" d="M20.2669 2.61238C20.5525 2.60874 20.8221 2.7435 20.9906 2.97406C21.221 3.28938 21.8753 3.81379 22.941 4.45186C23.9654 5.06518 25.2588 5.71942 26.638 6.31946C28.0166 6.91928 29.4647 7.45781 30.7962 7.84487C32.142 8.23611 33.3126 8.45581 34.1565 8.45581C34.6438 8.45581 35.0388 8.85081 35.0388 9.33817V23.9468C35.0388 25.6075 34.0429 27.2889 32.7749 28.7894C31.4794 30.3225 29.7652 31.8225 28.0568 33.1374C26.3432 34.4562 24.6076 35.6101 23.2491 36.4486C22.5695 36.868 21.9801 37.2111 21.5307 37.4585C21.3065 37.5819 21.1124 37.684 20.9567 37.7609C20.8285 37.8241 20.6557 37.9063 20.5104 37.9459C20.3584 37.9874 20.198 37.9874 20.0461 37.9459C19.9099 37.9088 19.7443 37.8339 19.6132 37.772C19.4578 37.6986 19.2639 37.601 19.0391 37.4823C18.5888 37.2445 17.9981 36.9134 17.3167 36.5045C15.9548 35.6871 14.2141 34.5486 12.4949 33.2068C10.7804 31.8686 9.05947 30.3069 7.75947 28.639C6.47094 26.9859 5.51758 25.1283 5.51758 23.2164V9.33817C5.51758 8.85081 5.91265 8.45581 6.39994 8.45581C7.14683 8.45581 8.27206 8.23893 9.61447 7.84546C10.9378 7.45752 12.4066 6.91781 13.8145 6.31705C15.2232 5.71587 16.5534 5.06092 17.6026 4.44727C18.1276 4.14019 18.5706 3.85016 18.9136 3.58899C19.2694 3.31812 19.4675 3.11554 19.5527 2.99242C19.7153 2.75763 19.9814 2.61602 20.2669 2.61238ZM20.2825 4.75365C20.1857 4.83508 20.0852 4.91494 19.9827 4.99301C19.565 5.31106 19.0574 5.64076 18.4936 5.97054C17.3651 6.63058 15.9654 7.31781 14.5071 7.94011C13.048 8.56281 11.5129 9.12787 10.1108 9.53887C9.10259 9.83446 8.12688 10.0613 7.2823 10.1626V23.2164C7.2823 24.5549 7.9633 26.03 9.15135 27.5542C10.328 29.0638 11.926 30.5242 13.5806 31.8156C15.2306 33.1033 16.9092 34.2018 18.2248 34.9913C18.8822 35.3859 19.4448 35.7008 19.8632 35.9218C20.0235 36.0065 20.1602 36.076 20.2713 36.1303C20.3822 36.0737 20.519 36.001 20.6798 35.9125C21.0991 35.6817 21.663 35.3538 22.3222 34.9469C23.6412 34.1328 25.3249 33.0131 26.9805 31.7389C28.6412 30.4608 30.2459 29.0481 31.427 27.6504C32.6357 26.22 33.2741 24.9522 33.2741 23.9468V10.1696C32.3698 10.0726 31.3489 9.84328 30.3037 9.53946C28.8869 9.12758 27.3675 8.56134 25.934 7.93769C24.5011 7.31422 23.1375 6.62634 22.0345 5.96594C21.3764 5.57192 20.7637 5.16054 20.2825 4.75365ZM18.1848 12.6412C18.1848 11.1836 19.3611 10.0006 20.8205 10.0006C22.28 10.0006 23.4564 11.1836 23.4564 12.6412C23.4564 13.2241 23.2642 13.7529 22.9575 14.1819C22.6741 14.5782 22.1229 14.6698 21.7265 14.3864C21.3302 14.1029 21.2386 13.5518 21.522 13.1554C21.6318 13.0019 21.6917 12.8275 21.6917 12.6412C21.6917 12.1537 21.3009 11.7653 20.8205 11.7653C20.3402 11.7653 19.9495 12.1537 19.9495 12.6412C19.9495 12.8275 20.0093 13.0019 20.1191 13.1554C20.4025 13.5518 20.3109 14.1029 19.9146 14.3864C19.5182 14.6698 18.9671 14.5782 18.6836 14.1819C18.3769 13.7529 18.1848 13.2241 18.1848 12.6412ZM13.8057 15.5613L14.4702 17.5991C14.5685 17.9007 14.4974 18.2319 14.2839 18.4665C13.9882 18.7915 13.7473 19.2313 13.5398 19.801C13.454 20.0366 13.2719 20.2246 13.0392 20.3179L12.0617 20.71C12.0716 21.4507 12.1142 21.9369 12.2926 22.4012L12.887 22.6992C13.0031 22.7574 13.1048 22.8405 13.1851 22.9425C13.4094 23.2276 13.8128 23.5759 14.3271 23.9126C14.8326 24.2438 15.3916 24.5286 15.8846 24.7086C16.1795 24.8163 16.395 25.0725 16.4505 25.3815L16.7414 27.0013H17.0132L17.5843 25.7925C17.7706 25.3979 18.2173 25.1989 18.6352 25.324C19.3955 25.5518 20.2252 25.6771 21.0999 25.6771C22.0899 25.6771 23.0235 25.5166 23.861 25.2301C24.2694 25.0903 24.7189 25.2666 24.9235 25.6467L25.6527 27.0013H25.7372L26.0495 24.5575C26.0793 24.3243 26.2009 24.1127 26.3873 23.9695C27.6104 23.0303 28.2671 21.8498 28.2671 20.6309C28.2671 18.6913 26.5415 16.7824 23.6588 15.9632C23.1901 15.8299 22.9181 15.3419 23.0513 14.8732C23.1845 14.4045 23.6725 14.1325 24.1412 14.2656C27.4067 15.1937 30.0318 17.5705 30.0318 20.6309C30.0318 22.4095 29.1302 23.9719 27.7549 25.1333L27.4387 27.6082C27.4386 27.6085 27.4386 27.6089 27.4385 27.6093C27.356 28.2665 26.7979 28.766 26.1302 28.766H25.385C24.8997 28.766 24.4539 28.4982 24.2242 28.0706C24.2241 28.0705 24.2242 28.0706 24.2242 28.0706L23.7102 27.1158C22.8864 27.3283 22.0089 27.4418 21.0999 27.4418C20.3288 27.4418 19.5809 27.3601 18.8686 27.2053L18.4924 28.0016C18.4918 28.0029 18.4912 28.0042 18.4905 28.0055C18.2752 28.4666 17.8121 28.766 17.2971 28.766H16.3711C15.7239 28.766 15.1843 28.3004 15.0704 27.6804L15.0698 27.6769L14.7996 26.1728C14.3109 25.9577 13.8143 25.6863 13.3602 25.3889C12.8298 25.0415 12.3135 24.6302 11.9318 24.1944L11.2194 23.8372C11.0487 23.7516 10.9104 23.613 10.8252 23.4422C10.2934 22.3756 10.2937 21.3527 10.2941 20.2077C10.2941 20.1767 10.2941 20.1456 10.2941 20.1144C10.2941 19.7539 10.5134 19.4296 10.848 19.2955L12.0284 18.822C12.1949 18.4262 12.3954 18.0442 12.6449 17.6938L11.7623 14.9868C11.6811 14.7378 11.7147 14.4654 11.8542 14.2436C11.9937 14.0218 12.2245 13.8735 12.4842 13.8388C13.7348 13.6715 15.2747 13.8456 16.4618 14.6184C16.7989 14.4852 17.1477 14.3692 17.5043 14.2699C17.9738 14.1392 18.4603 14.4137 18.5911 14.8832C18.7218 15.3526 18.4472 15.8392 17.9778 15.9699C17.8964 15.9926 17.8158 16.0162 17.7361 16.0408C17.8144 16.3873 17.6772 16.7616 17.3638 16.97C16.9579 17.2399 16.4102 17.1296 16.1404 16.7238C16.0382 16.5699 15.9132 16.4304 15.7693 16.3055C15.7644 16.3014 15.7595 16.2972 15.7547 16.293C15.2678 15.8775 14.5698 15.6279 13.8057 15.5613ZM15.3409 18.2099C15.8282 18.2099 16.2232 18.605 16.2232 19.0923V19.5318C16.2232 20.0192 15.8282 20.4142 15.3409 20.4142C14.8536 20.4142 14.4585 20.0192 14.4585 19.5318V19.0923C14.4585 18.605 14.8536 18.2099 15.3409 18.2099Z" fill="#FF7A40"/>
</svg>
