<svg width="50" height="70" viewBox="0 0 50 70" fill="none" xmlns="http://www.w3.org/2000/svg">
<path d="M48.7458 22.2135L45.5279 18.3232C45.0861 17.7891 44.8173 17.1429 44.7514 16.4546L44.2662 11.4361C44.0141 8.82863 41.932 6.7537 39.3154 6.50254L34.2794 6.0195C33.5886 5.95333 32.9402 5.68549 32.4043 5.2457L28.5003 2.03848C26.472 0.372592 23.5276 0.372592 21.4993 2.03848L17.5953 5.2457C17.0599 5.68549 16.4115 5.95333 15.7202 6.0195L10.6842 6.50254C8.06764 6.7537 5.98599 8.82863 5.73343 11.4361L5.2487 16.4546C5.18229 17.1429 4.91353 17.7891 4.4722 18.3232L1.25377 22.2135C-0.417925 24.2348 -0.417925 27.169 1.25377 29.1902L4.4722 33.0806C4.91353 33.6147 5.18229 34.2608 5.2487 34.9492L5.73343 39.9677C5.98546 42.5751 8.06764 44.6496 10.6842 44.9012L13.7625 45.1967L6.44875 62.6126C6.25057 63.0868 6.33999 63.6204 6.68248 64.005C7.02498 64.389 7.54526 64.5411 8.03992 64.401L14.3853 62.6158C14.413 62.608 14.4397 62.6199 14.4522 62.6423L17.6298 68.4002C17.8662 68.8291 18.308 69.0875 18.7943 69.0875C18.8173 69.0875 18.8403 69.087 18.8639 69.086C19.3779 69.0599 19.8223 68.7504 20.0258 68.2731L27.7474 49.8843C28.0093 49.7342 28.2614 49.5617 28.5009 49.3653L32.4048 46.1586C32.8989 45.7522 33.4903 45.4953 34.1215 45.4056L41.1152 62.0587L36.166 60.6664C35.2248 60.4022 34.2391 60.8134 33.7669 61.6664L31.2889 66.1565L28.0057 58.3377C27.7887 57.8213 27.1936 57.5785 26.6754 57.7942C26.1578 58.01 25.9136 58.6035 26.1306 59.1193L29.9765 68.2783C30.1778 68.7504 30.6217 69.0599 31.1363 69.086C31.1598 69.087 31.1828 69.0881 31.2058 69.0881C31.6921 69.0881 32.1339 68.8291 32.3703 68.4002L35.5474 62.6434C35.5605 62.6199 35.5877 62.609 35.6143 62.6158L41.9586 64.401C42.4543 64.5406 42.9751 64.389 43.3171 64.005C43.6596 63.6204 43.749 63.0873 43.5503 62.6116L36.2371 45.1962L39.3154 44.9007C41.932 44.6496 44.0141 42.5751 44.2662 39.9677L44.7514 34.9487C44.8173 34.2603 45.0861 33.6147 45.5279 33.0806L48.7458 29.1902C50.4181 27.169 50.4181 24.2348 48.7458 22.2135ZM18.7112 66.1565L16.2327 61.6653C15.761 60.8128 14.7743 60.4017 13.8336 60.6664L8.88492 62.0582L15.8781 45.4056C16.5098 45.4953 17.1012 45.7522 17.5953 46.1581L21.4993 49.3653C22.5137 50.1985 23.7566 50.6148 25.0001 50.6148C25.0801 50.6148 25.1595 50.6128 25.2396 50.6091L18.7112 66.1565ZM47.1777 27.9021L43.9598 31.7925C43.2591 32.6387 42.8334 33.6632 42.7278 34.7548L42.2431 39.7733C42.0841 41.4178 40.7711 42.7263 39.1209 42.8847L34.6972 43.3093C34.6799 43.3104 34.6621 43.3119 34.6449 43.3146L34.0849 43.3682C32.9889 43.4735 31.9609 43.8976 31.1117 44.5954L27.2077 47.8021C25.9287 48.8531 24.0714 48.8531 22.7924 47.8021L18.8885 44.5954C18.0393 43.8976 17.0113 43.473 15.9153 43.3682L15.3526 43.314C15.3369 43.3119 15.3218 43.3109 15.3061 43.3099L10.8792 42.8847C9.22899 42.7263 7.916 41.4178 7.75704 39.7733L7.27231 34.7553C7.16669 33.6632 6.74105 32.6387 6.04037 31.7925L2.82246 27.9021C1.76778 26.6271 1.76778 24.7762 2.82246 23.5016L6.04037 19.6113C6.74105 18.765 7.16669 17.7406 7.27231 16.6484L7.75704 11.6299C7.916 9.98542 9.22899 8.677 10.8792 8.51859L15.9153 8.03555C17.0113 7.93029 18.0393 7.50614 18.8885 6.80841L22.7924 3.60171C23.4319 3.07646 24.2162 2.81332 25.0001 2.81332C25.7839 2.81332 26.5682 3.07594 27.2077 3.60171L31.1117 6.80841C31.9609 7.50614 32.9889 7.93081 34.0849 8.03555L39.1209 8.51859C40.7711 8.677 42.0841 9.98542 42.2431 11.6299L42.7278 16.6484C42.8334 17.7406 43.2591 18.765 43.9598 19.6113L47.1777 23.5016C48.2318 24.7767 48.2318 26.6271 47.1777 27.9021Z" fill="white"/>
<path d="M24.9997 9.87988C24.321 9.87988 23.6381 9.92261 22.9688 10.0081C22.4125 10.0789 22.0187 10.5865 22.0898 11.1409C22.1609 11.6958 22.6708 12.0877 23.2266 12.0173C23.8102 11.9428 24.4068 11.9053 24.9997 11.9053C32.6335 11.9053 38.844 18.0941 38.844 25.7013C38.844 33.3085 32.633 39.4969 24.9997 39.4969C17.366 39.4969 11.1555 33.308 11.1555 25.7008C11.1555 20.2748 14.3661 15.3324 19.3347 13.109C19.8466 12.8802 20.0756 12.2805 19.8456 11.7704C19.6155 11.2597 19.0136 11.032 18.5022 11.2613C12.8042 13.8109 9.12305 19.4786 9.12305 25.7008C9.12305 34.4252 16.2454 41.5223 24.9997 41.5223C33.7541 41.5223 40.8764 34.4252 40.8764 25.7008C40.8764 16.977 33.7541 9.87988 24.9997 9.87988Z" fill="white"/>
<path d="M14.9087 24.5294C13.6971 25.7367 13.6971 27.7017 14.9087 28.909L19.3475 33.333C19.9347 33.9176 20.7149 34.2396 21.5453 34.2396C22.3751 34.2396 23.1558 33.9176 23.743 33.333L33.4328 23.6764C34.6443 22.4685 34.6443 20.504 33.4328 19.2962C32.2212 18.0889 30.2494 18.0889 29.0373 19.2962L21.5453 26.7627L19.3036 24.5294C18.0921 23.322 16.1202 23.322 14.9087 24.5294ZM21.5453 29.2081C21.8146 29.2081 22.0729 29.1013 22.2637 28.9111L30.4748 20.7286C30.8941 20.3107 31.576 20.3112 31.9953 20.7286C32.4147 21.1465 32.4147 21.8265 31.9953 22.2439L22.3056 31.9005C22.1027 32.1027 21.8323 32.2142 21.5453 32.2142C21.2577 32.2142 20.9879 32.1027 20.785 31.9005L16.3456 27.4771C15.9267 27.0592 15.9267 26.3792 16.3456 25.9618C16.5553 25.7529 16.8308 25.6481 17.1064 25.6481C17.3814 25.6481 17.657 25.7529 17.8662 25.9613L20.8263 28.9111C21.0171 29.1013 21.2754 29.2081 21.5453 29.2081Z" fill="white"/>
</svg>
