<svg width="30" height="30" viewBox="0 0 30 30" fill="none" xmlns="http://www.w3.org/2000/svg">
<g clip-path="url(#clip0_4251_1370)">
<path fill-rule="evenodd" clip-rule="evenodd" d="M1.0498 29.0748L3.01418 21.9034C1.8023 19.8049 1.16501 17.4234 1.16574 14.9844C1.16939 7.35363 7.37897 1.14551 15.0104 1.14551C18.7139 1.14697 22.1891 2.58853 24.8031 5.20405C27.4165 7.8203 28.8558 11.297 28.8544 14.9953C28.8515 22.626 22.6404 28.8349 15.0104 28.8349H15.0046C12.688 28.8342 10.4108 28.253 8.38887 27.1498L1.0498 29.0748Z" fill="white"/>
<path fill-rule="evenodd" clip-rule="evenodd" d="M1.04981 29.4397C0.953561 29.4397 0.860228 29.4018 0.790957 29.3318C0.699811 29.2392 0.664082 29.1043 0.698353 28.9796L2.62262 21.9533C1.42971 19.8344 0.800436 17.4281 0.801895 14.9854C0.804811 7.15271 7.17846 0.78125 15.0104 0.78125C18.8094 0.782708 22.3787 2.26219 25.0613 4.94698C27.7439 7.6325 29.2204 11.201 29.219 14.9956C29.2161 22.8276 22.8417 29.1998 15.0104 29.1998C12.6851 29.1991 10.3846 28.6252 8.34294 27.5395L1.14242 29.4273C1.11179 29.436 1.08117 29.4397 1.04981 29.4397Z" fill="white"/>
<path fill-rule="evenodd" clip-rule="evenodd" d="M15.0104 1.14616C18.7138 1.14762 22.189 2.58918 24.8031 5.2047C27.4164 7.82095 28.8558 11.2976 28.8544 14.9959C28.8514 22.6267 22.6404 28.8355 15.0104 28.8355H15.0046C12.688 28.8348 10.4108 28.2537 8.38884 27.1504L1.04978 29.0754L3.01415 21.9041C1.80228 19.8055 1.16499 17.4241 1.16572 14.985C1.16936 7.35428 7.37895 1.14616 15.0104 1.14616ZM15.0104 0.416992C6.9779 0.416992 0.440196 6.95178 0.43655 14.985C0.435821 17.4401 1.05561 19.8595 2.23103 22.0011L0.346133 28.8837C0.277592 29.1352 0.347592 29.4036 0.531342 29.5888C0.669883 29.7288 0.857279 29.8053 1.04978 29.8053C1.11176 29.8053 1.17374 29.7973 1.23499 29.7813L8.29842 27.9292C10.3605 28.9996 12.672 29.5647 15.0046 29.5654C23.0429 29.5654 29.5806 23.0299 29.5843 14.9967C29.5857 11.1037 28.0712 7.44324 25.3201 4.68991C22.5675 1.93585 18.9063 0.418451 15.0104 0.416992Z" fill="#CFD8DC"/>
<path fill-rule="evenodd" clip-rule="evenodd" d="M23.1496 6.85555C20.9767 4.68117 18.0884 3.48315 15.0143 3.48242C8.66762 3.48242 3.50585 8.642 3.50293 14.9843C3.5022 17.1579 4.11033 19.274 5.26241 21.1064L5.53658 21.5417L4.37355 25.7862L8.72887 24.6443L9.1496 24.8937C10.9156 25.9422 12.9413 26.4964 15.0063 26.4971H15.0106C21.3529 26.4971 26.5147 21.3368 26.5169 14.9938C26.5176 11.9203 25.3225 9.02992 23.1496 6.85555Z" fill="#40C351"/>
<path fill-rule="evenodd" clip-rule="evenodd" d="M11.5497 9.20068C11.2909 8.62464 11.0182 8.61297 10.771 8.60276C10.569 8.59401 10.3386 8.59474 10.1082 8.59474C9.87773 8.59474 9.50294 8.68151 9.18575 9.02787C8.86857 9.37422 7.97461 10.2106 7.97461 11.9125C7.97461 13.6143 9.21419 15.2593 9.38701 15.4897C9.55982 15.7202 11.7801 19.3244 15.2962 20.7113C18.2179 21.8634 18.8129 21.6344 19.4473 21.5768C20.0817 21.5192 21.4941 20.7405 21.7821 19.9326C22.0701 19.1246 22.0701 18.4327 21.9841 18.2883C21.8973 18.1439 21.6669 18.0579 21.3213 17.8843C20.9756 17.7108 19.2745 16.8744 18.9573 16.7592C18.6401 16.644 18.4097 16.5864 18.1786 16.9328C17.9481 17.2784 17.2853 18.0579 17.0834 18.2883C16.8814 18.5194 16.6794 18.5486 16.3338 18.3751C15.9882 18.2015 14.874 17.8369 13.552 16.6586C12.5239 15.742 11.8297 14.6096 11.6277 14.2633C11.4258 13.9177 11.6059 13.7303 11.7794 13.5575C11.9347 13.4021 12.125 13.1535 12.2986 12.9515C12.4714 12.7495 12.529 12.6052 12.6442 12.3747C12.7594 12.1436 12.7018 11.9416 12.615 11.7688C12.5297 11.5953 11.8574 9.88464 11.5497 9.20068Z" fill="white"/>
</g>
<defs>
<clipPath id="clip0_4251_1370">
<rect width="30" height="30" fill="white"/>
</clipPath>
</defs>
</svg>
