<svg width="15" height="18" viewBox="0 0 15 18" fill="none" xmlns="http://www.w3.org/2000/svg">
<path d="M14 7.55556C14 12.6111 7.5 16.9444 7.5 16.9444C7.5 16.9444 1 12.6111 1 7.55556C1 5.83165 1.68482 4.17835 2.90381 2.95936C4.12279 1.74037 5.77609 1.05556 7.5 1.05556C9.22391 1.05556 10.8772 1.74037 12.0962 2.95936C13.3152 4.17835 14 5.83165 14 7.55556Z" stroke="#FF7A40" stroke-width="1.5" stroke-linecap="round" stroke-linejoin="round"/>
<path d="M7.49772 9.72218C8.69434 9.72218 9.66439 8.75213 9.66439 7.55552C9.66439 6.3589 8.69434 5.38885 7.49772 5.38885C6.3011 5.38885 5.33105 6.3589 5.33105 7.55552C5.33105 8.75213 6.3011 9.72218 7.49772 9.72218Z" stroke="#FF7A40" stroke-width="1.5" stroke-linecap="round" stroke-linejoin="round"/>
</svg>
