<svg width="19" height="11" viewBox="0 0 19 11" fill="none" xmlns="http://www.w3.org/2000/svg">
<g clip-path="url(#clip0_4251_321)">
<path d="M18.1205 9.06C18.1205 8.8 18.0205 8.55 17.8305 8.35L9.77055 0.29C9.58055 0.1 9.33055 4.07937e-07 9.06055 3.96134e-07C8.79055 3.84332e-07 8.54055 0.11 8.35055 0.29L0.290546 8.35C-0.0994535 8.74 -0.0994535 9.37 0.290546 9.76C0.680546 10.15 1.31055 10.15 1.70055 9.76L9.06055 2.41L16.4105 9.76C16.8005 10.15 17.4305 10.15 17.8205 9.76C18.0205 9.56 18.1105 9.31 18.1105 9.05L18.1205 9.06Z" fill="#FF7A40"/>
</g>
<defs>
<clipPath id="clip0_4251_321">
<rect width="10.06" height="18.12" fill="white" transform="matrix(-4.37114e-08 1 1 4.37114e-08 0 0)"/>
</clipPath>
</defs>
</svg>
