<svg width="16" height="16" viewBox="0 0 16 16" fill="none" xmlns="http://www.w3.org/2000/svg">
<path d="M8 0C6.41775 0 4.87103 0.469192 3.55544 1.34824C2.23985 2.22729 1.21447 3.47672 0.608967 4.93853C0.0034663 6.40034 -0.15496 8.00887 0.153721 9.56072C0.462403 11.1126 1.22433 12.538 2.34315 13.6569C3.46197 14.7757 4.88743 15.5376 6.43928 15.8463C7.99113 16.155 9.59966 15.9965 11.0615 15.391C12.5233 14.7855 13.7727 13.7602 14.6518 12.4446C15.5308 11.129 16 9.58225 16 8C15.9975 5.87904 15.1538 3.84566 13.6541 2.34591C12.1543 0.84616 10.121 0.00250216 8 0ZM8 14.5455C6.70543 14.5455 5.43994 14.1616 4.36354 13.4423C3.28715 12.7231 2.4482 11.7009 1.95279 10.5048C1.45738 9.30881 1.32776 7.99274 1.58032 6.72304C1.83288 5.45335 2.45627 4.28706 3.37167 3.37166C4.28707 2.45627 5.45335 1.83287 6.72305 1.58031C7.99274 1.32776 9.30881 1.45738 10.5048 1.95279C11.7009 2.4482 12.7231 3.28715 13.4423 4.36354C14.1616 5.43993 14.5455 6.70543 14.5455 8C14.5433 9.73531 13.853 11.3989 12.626 12.626C11.3989 13.853 9.73531 14.5433 8 14.5455Z" fill="#FF7A40"/>
<path d="M8.72749 7.699V3.63645C8.72749 3.44357 8.65087 3.25858 8.51448 3.12219C8.37809 2.9858 8.19311 2.90918 8.00022 2.90918C7.80734 2.90918 7.62235 2.9858 7.48596 3.12219C7.34957 3.25858 7.27295 3.44357 7.27295 3.63645V8.00009C7.27299 8.19296 7.34964 8.37791 7.48604 8.51427L9.66786 10.6961C9.80502 10.8286 9.98873 10.9019 10.1794 10.9002C10.3701 10.8986 10.5525 10.8221 10.6874 10.6872C10.8222 10.5524 10.8987 10.37 10.9003 10.1793C10.902 9.9886 10.8287 9.80489 10.6962 9.66772L8.72749 7.699Z" fill="#FF7A40"/>
</svg>
