<svg width="24" height="25" viewBox="0 0 24 25" fill="none" xmlns="http://www.w3.org/2000/svg">
<path d="M21 10.2495H3M16 2.24951V6.24951M8 2.24951V6.24951M7.8 22.2495H16.2C17.8802 22.2495 18.7202 22.2495 19.362 21.9225C19.9265 21.6349 20.3854 21.176 20.673 20.6115C21 19.9697 21 19.1297 21 17.4495V9.04951C21 7.36935 21 6.52927 20.673 5.88754C20.3854 5.32305 19.9265 4.86411 19.362 4.57649C18.7202 4.24951 17.8802 4.24951 16.2 4.24951H7.8C6.11984 4.24951 5.27976 4.24951 4.63803 4.57649C4.07354 4.86411 3.6146 5.32305 3.32698 5.88754C3 6.52927 3 7.36935 3 9.04951V17.4495C3 19.1297 3 19.9697 3.32698 20.6115C3.6146 21.176 4.07354 21.6349 4.63803 21.9225C5.27976 22.2495 6.11984 22.2495 7.8 22.2495Z" stroke="#ED6930" stroke-width="1.6" stroke-linecap="round" stroke-linejoin="round"/>
</svg>
