<svg width="24" height="25" viewBox="0 0 24 25" fill="none" xmlns="http://www.w3.org/2000/svg">
<rect y="0.5" width="24" height="24" rx="4" fill="#FF7A40"/>
<path d="M14.2342 10.9896C14.1963 10.6857 14.1017 10.4471 13.9337 10.2358C13.7156 9.96366 13.4368 9.80071 13.0241 9.70406C12.7551 9.63964 12.6464 9.64704 12.5492 9.73477C12.4585 9.81696 12.4408 9.98174 12.5101 10.0884C12.5588 10.1659 12.615 10.1936 12.7712 10.2239C12.9793 10.2617 13.1231 10.3107 13.2539 10.3846C13.5315 10.5428 13.6608 10.7905 13.6747 11.1915C13.6811 11.3797 13.6976 11.4376 13.7642 11.5044C13.8876 11.6264 14.1073 11.6027 14.2005 11.4566C14.2347 11.4016 14.2399 11.3776 14.2436 11.2498C14.2459 11.1706 14.2425 11.0528 14.2342 10.9896Z" fill="white"/>
<path d="M15.3212 11.3318C15.2664 10.4012 14.8976 9.65242 14.2375 9.12562C13.8656 8.82961 13.416 8.62607 12.9233 8.52708C12.7428 8.49167 12.4105 8.46298 12.3534 8.47939C12.2996 8.49459 12.2235 8.55209 12.1896 8.60408C12.1538 8.66046 12.1457 8.78635 12.1763 8.85917C12.2256 8.9809 12.3175 9.0239 12.5748 9.04612C12.9715 9.08037 13.3806 9.2179 13.6897 9.4215C14.0426 9.65333 14.3231 9.97041 14.5046 10.343C14.6614 10.6631 14.7578 11.1245 14.7551 11.5376C14.7543 11.6871 14.7776 11.7714 14.8385 11.8331C14.9304 11.928 15.0644 11.9487 15.1826 11.8857C15.3137 11.8177 15.3443 11.6983 15.3212 11.3318Z" fill="white"/>
<path d="M16.5252 14.9153C16.5067 14.8621 16.4637 14.78 16.4329 14.7329C16.2392 14.4442 15.1985 13.6404 14.6789 13.3775C14.3822 13.2271 14.1623 13.1769 13.9994 13.224C13.8241 13.2727 13.7319 13.3532 13.4382 13.7133C13.3199 13.8577 13.1984 13.9929 13.1661 14.0142C13.0862 14.0689 12.9294 14.113 12.8187 14.113C12.562 14.1114 12.0961 13.9473 11.7379 13.7315C11.4597 13.5644 11.1031 13.2651 10.8294 12.9687C10.5065 12.6208 10.2867 12.3138 10.113 11.9674C9.88856 11.5221 9.83168 11.2501 9.92544 11.0511C9.94851 11.0009 9.97926 10.9478 9.99308 10.931C10.0069 10.9158 10.1514 10.7988 10.3113 10.6712C10.6249 10.425 10.6757 10.3688 10.7341 10.2001C10.8079 9.98587 10.7879 9.76706 10.6741 9.54674C10.5865 9.37958 10.3574 9.01489 10.1914 8.77937C9.97157 8.4694 9.42428 7.80688 9.31511 7.7172C9.11834 7.55919 8.86624 7.53182 8.58796 7.63821C8.29436 7.75066 7.74398 8.18828 7.50876 8.49371C7.29661 8.77026 7.21516 8.96627 7.20285 9.22459C7.19209 9.43732 7.21053 9.52545 7.3243 9.79746C8.21441 11.9309 9.54264 13.6343 11.3675 14.9867C12.3206 15.6933 13.3091 16.2312 14.3345 16.5989C14.9325 16.8132 15.1923 16.8238 15.4982 16.6475C15.6274 16.5716 15.9471 16.2479 16.1255 16.0124C16.4206 15.6203 16.5298 15.4395 16.5605 15.2951C16.5821 15.1964 16.5651 15.0247 16.5252 14.9153Z" fill="white"/>
<path d="M16.4284 11.5456C16.4087 11.0192 16.3189 10.5874 16.1317 10.106C15.9468 9.63241 15.7597 9.3234 15.4063 8.90544C15.0722 8.51356 14.8127 8.2898 14.4012 8.04073C13.827 7.6937 13.1282 7.46405 12.3451 7.36747C12.0781 7.33371 12.0177 7.33612 11.9357 7.39008C11.777 7.49229 11.7791 7.74722 11.9383 7.84789C11.9911 7.87992 12.0379 7.89159 12.2515 7.91918C12.5794 7.96275 12.7903 8.00382 13.0405 8.07119C14.0216 8.33589 14.7761 8.87696 15.2805 9.68014C15.7026 10.3496 15.8779 11.0191 15.853 11.8742C15.8443 12.1632 15.8506 12.2141 15.8954 12.2836C15.9812 12.413 16.2073 12.4386 16.3233 12.3312C16.3954 12.2658 16.4091 12.2166 16.4233 11.9692C16.4301 11.8401 16.4315 11.6496 16.4284 11.5456Z" fill="white"/>
</svg>
