<svg width="40" height="40" viewBox="0 0 40 40" fill="none" xmlns="http://www.w3.org/2000/svg">
<path fill-rule="evenodd" clip-rule="evenodd" d="M11.5203 4.88238C10.7383 4.88238 10.1627 5.45801 10.1627 6.24003V32.3734C10.1627 32.8634 10.0564 33.323 9.86499 33.731H17.4936V35.4957H7.04035C5.28367 35.4957 3.91797 34.13 3.91797 32.3734V29.9977H8.39799V6.24003C8.39799 4.48339 9.7637 3.11768 11.5203 3.11768H33.1736C34.9303 3.11768 36.296 4.48339 36.296 6.24003V8.61574H32.5627V32.3734C32.5627 34.13 31.197 35.4957 29.4403 35.4957H24.9603V33.731H29.4403C30.2223 33.731 30.798 33.1554 30.798 32.3734V8.61574H12.878V6.24003C12.878 5.45801 12.3023 4.88238 11.5203 4.88238ZM14.345 4.88238C14.5364 5.29041 14.6427 5.75001 14.6427 6.24003V6.85103H34.5313V6.24003C34.5313 5.45801 33.9557 4.88238 33.1736 4.88238H14.345ZM8.39799 31.7624H5.68267V32.3734C5.68267 33.1554 6.25829 33.731 7.04035 33.731C7.82235 33.731 8.39799 33.1554 8.39799 32.3734V31.7624ZM27.2003 13.8424H15.2536V12.0777H27.2003V13.8424ZM24.2136 16.829H18.2403V15.0643H24.2136V16.829ZM21.0303 20.6279C21.0287 20.6294 21.0283 20.63 21.0276 20.6311L20.9676 20.7391L20.8803 20.8266C20.3547 21.3521 19.5669 21.7208 18.7129 21.5988L18.7082 21.5981L18.7035 21.5974C18.3144 21.5375 17.9049 21.8223 17.8531 22.3354C17.8386 23.254 17.3553 23.9437 16.7138 24.3714L16.706 24.3767L16.6981 24.3817C16.2849 24.6446 16.2233 25.1666 16.4616 25.4706C17.0362 26.1662 17.1426 26.9951 16.9234 27.7624L16.9182 27.7808L16.9121 27.799C16.7798 28.1959 16.9983 28.6321 17.4498 28.7464C18.2335 28.8916 18.8866 29.5009 19.2007 30.2337L19.2025 30.2378L19.2042 30.2419C19.3832 30.6715 19.8616 30.8164 20.2072 30.628L20.221 30.6204L20.2351 30.6134C20.9315 30.2652 21.8212 30.2652 22.5176 30.6134L22.5317 30.6204L22.5455 30.628C22.882 30.8116 23.3446 30.6789 23.5339 30.275C23.819 29.38 24.5884 28.9486 25.2406 28.7622L25.2548 28.7582L25.269 28.7546C25.7038 28.6459 25.9512 28.1829 25.8478 27.8223C25.4911 26.9396 25.7836 26.113 26.1675 25.5372L26.1731 25.5289L26.1788 25.5206C26.4411 25.146 26.3376 24.6093 25.98 24.3817L25.9721 24.3767L25.9642 24.3714C25.3038 23.9311 24.8406 23.1627 24.8251 22.3362C24.7735 21.8226 24.3638 21.5375 23.9745 21.5974L23.9698 21.5981L23.9651 21.5988C23.1111 21.7208 22.3233 21.3521 21.7978 20.8266C21.6312 20.6599 21.4093 20.581 21.227 20.581C21.139 20.581 21.0813 20.5993 21.0523 20.6139C21.0386 20.6207 21.0322 20.6261 21.0303 20.6279ZM21.227 18.8163C21.8661 18.8163 22.5402 19.0733 23.0456 19.5787C23.2655 19.7986 23.5215 19.8783 23.7125 19.8522C25.2554 19.6186 26.4783 20.8154 26.5868 22.2256L26.5893 22.2594V22.2933C26.5893 22.4943 26.7169 22.7495 26.9376 22.8994C28.2098 23.7173 28.4044 25.4069 27.6314 26.5228C27.4289 26.8293 27.4267 27.0278 27.4887 27.1724L27.5031 27.2061L27.5148 27.2409C27.9888 28.6631 27.0528 30.1173 25.7141 30.4623C25.3455 30.57 25.2416 30.7179 25.2114 30.8237L25.1973 30.8731L25.1775 30.9207C24.9946 31.3595 24.7035 31.7194 24.3493 31.982V39.7302L21.227 36.6079L18.1046 39.7302V31.7217C17.8865 31.499 17.7056 31.2317 17.5773 30.9259C17.4479 30.6265 17.221 30.497 17.1246 30.481L17.0978 30.4765L17.0713 30.4704C15.6018 30.1313 14.7835 28.6469 15.2305 27.2635C15.3037 26.9954 15.2612 26.7867 15.0985 26.5915L15.0929 26.5847L15.0873 26.5779C14.1379 25.391 14.5212 23.6831 15.7408 22.8991C15.9813 22.7369 16.0886 22.5463 16.0886 22.2933V22.2594L16.0912 22.2256C16.1998 20.8154 17.4226 19.6186 18.9655 19.8522C19.1383 19.8758 19.3644 19.8128 19.5688 19.6377C19.9688 19.0463 20.6377 18.8163 21.227 18.8163ZM19.8693 32.4758V35.4699L21.227 34.1122L22.5846 35.4699V32.4596C22.2908 32.4253 21.9978 32.3363 21.7189 32.1872C21.5225 32.0936 21.2302 32.0936 21.0338 32.1872C20.6603 32.3869 20.2615 32.4787 19.8693 32.4758ZM21.227 24.2957C20.4772 24.2957 19.8693 24.9036 19.8693 25.6534C19.8693 26.4031 20.4772 27.011 21.227 27.011C21.9768 27.011 22.5846 26.4031 22.5846 25.6534C22.5846 24.9036 21.9768 24.2957 21.227 24.2957ZM18.1046 25.6534C18.1046 23.9289 19.5026 22.531 21.227 22.531C22.9514 22.531 24.3493 23.9289 24.3493 25.6534C24.3493 27.3778 22.9514 28.7757 21.227 28.7757C19.5026 28.7757 18.1046 27.3778 18.1046 25.6534Z" fill="#FF7A40"/>
</svg>
