<svg width="30" height="18" viewBox="0 0 30 18" fill="none" xmlns="http://www.w3.org/2000/svg">
<mask id="mask0_4251_1391" style="mask-type:luminance" maskUnits="userSpaceOnUse" x="0" y="0" width="30" height="18">
<path d="M30 0.215202H0V17.7848H30V0.215202Z" fill="white"/>
</mask>
<g mask="url(#mask0_4251_1391)">
<path d="M0.0785242 2.03723C-0.287642 0.636878 1.58251 0.371377 3.02994 0.371377H4.53566C4.53566 0.371377 4.53566 0.371377 4.53566 0.371377C4.53567 0.371377 5.45874 0.371378 5.76204 1.28239C6.06533 2.19341 8.37303 8.40133 10.206 9.61168C12.0521 10.822 11.7357 9 11.7357 7.78965V2.93524C11.7357 2.93524 11.7357 2.93524 11.7357 2.93524C11.7357 2.9352 11.7357 1.72488 10.8126 1.42555C10.1664 1.21732 10.1928 0.215202 11.4324 0.215202H16.6544C16.6544 0.215202 16.6544 0.215202 16.6544 0.215202C16.6544 0.215202 17.4192 0.215202 17.4192 0.970044V7.25273C17.4192 7.80985 17.3012 8.54105 17.7903 8.80784C17.9974 8.9208 18.3161 8.86962 18.8038 8.38832C19.7269 7.4773 22.1796 4.14559 22.7994 2.6359C23.4192 1.12622 24.0258 0.215202 24.6456 0.215202H26.7168C27.9951 0.215202 29.8337 0.582053 29.261 1.72489C28.6544 2.93524 26.0566 7.07385 25.5818 7.78965C24.962 8.70067 24.6588 9 24.6588 9.61168C24.6588 10.2234 25.2785 10.822 25.8851 11.4337C26.4917 12.0454 28.9577 14.7654 29.261 15.3771C29.5642 15.9888 30.7906 17.7978 29.261 17.7978H25.2654C25.2653 17.7978 25.2654 17.7978 25.2653 17.7978C25.2652 17.7978 24.6455 17.7978 24.039 17.1861C23.4324 16.5744 20.6631 13.5551 19.7401 12.9434C18.817 12.3317 17.5906 12.0324 17.5906 13.2427V16.5744C17.5906 16.5745 17.5906 17.7848 15.4412 17.7848C12.6851 17.7848 8.42577 16.3402 5.01039 11.72C1.62138 7.17797 0.395008 3.24758 0.0785242 2.03723Z" fill="#3091FF"/>
</g>
</svg>
