<svg width="24" height="25" viewBox="0 0 24 25" fill="none" xmlns="http://www.w3.org/2000/svg">
<path d="M13 5.24951C13 6.35408 10.5376 7.24951 7.5 7.24951C4.46243 7.24951 2 6.35408 2 5.24951M13 5.24951C13 4.14494 10.5376 3.24951 7.5 3.24951C4.46243 3.24951 2 4.14494 2 5.24951M13 5.24951V6.74951M2 5.24951V17.2495C2 18.3541 4.46243 19.2495 7.5 19.2495M7.5 11.2495C7.33145 11.2495 7.16468 11.2467 7 11.2413C4.19675 11.1495 2 10.2928 2 9.24951M7.5 15.2495C4.46243 15.2495 2 14.3541 2 13.2495M22 11.7495C22 12.8541 19.5376 13.7495 16.5 13.7495C13.4624 13.7495 11 12.8541 11 11.7495M22 11.7495C22 10.6449 19.5376 9.74951 16.5 9.74951C13.4624 9.74951 11 10.6449 11 11.7495M22 11.7495V19.2495C22 20.3541 19.5376 21.2495 16.5 21.2495C13.4624 21.2495 11 20.3541 11 19.2495V11.7495M22 15.4995C22 16.6041 19.5376 17.4995 16.5 17.4995C13.4624 17.4995 11 16.6041 11 15.4995" stroke="#ED6930" stroke-width="1.6" stroke-linecap="round" stroke-linejoin="round"/>
</svg>
