<svg width="40" height="40" viewBox="0 0 40 40" fill="none" xmlns="http://www.w3.org/2000/svg">
<path d="M36.6668 16.6668H3.3335M18.3335 23.3335H10.0001M3.3335 13.6668V26.3335C3.3335 28.2003 3.3335 29.1338 3.69682 29.8468C4.01639 30.474 4.52633 30.9839 5.15354 31.3035C5.86657 31.6668 6.8 31.6668 8.66684 31.6668H31.3335C33.2003 31.6668 34.1337 31.6668 34.8468 31.3035C35.474 30.9839 35.9839 30.474 36.3035 29.8468C36.6668 29.1338 36.6668 28.2003 36.6668 26.3335V13.6668C36.6668 11.8 36.6668 10.8666 36.3035 10.1535C35.9839 9.52632 35.474 9.01639 34.8468 8.69681C34.1337 8.3335 33.2003 8.3335 31.3335 8.3335H8.66684C6.8 8.3335 5.86658 8.3335 5.15354 8.69681C4.52633 9.01639 4.01639 9.52632 3.69682 10.1535C3.3335 10.8666 3.3335 11.8 3.3335 13.6668Z" stroke="#ED6930" stroke-width="1.6" stroke-linecap="round" stroke-linejoin="round"/>
</svg>
