<svg width="40" height="41" viewBox="0 0 40 41" fill="none" xmlns="http://www.w3.org/2000/svg">
<path fill-rule="evenodd" clip-rule="evenodd" d="M3.99057 7.18848L4.82674 7.45365C6.68264 8.04206 8.08982 9.24136 8.84253 10.8879C9.59058 12.5242 9.65276 14.513 9.00376 16.633L7.31635 16.1164C7.86735 14.3164 7.76953 12.7852 7.23758 11.6215C6.82194 10.7123 6.11705 9.97254 5.13967 9.47889C4.64614 11.5081 4.94161 12.7831 5.52716 13.6348L4.07297 14.6346C2.9818 13.0474 2.79216 10.8927 3.72055 8.02312L3.99057 7.18848ZM36.0096 7.18848L36.2796 8.02312C37.2079 10.8927 37.0184 13.0474 35.9272 14.6346L34.473 13.6348C35.0585 12.7831 35.354 11.5081 34.8605 9.47889C33.8831 9.97254 33.1782 10.7123 32.7625 11.6215C32.2306 12.7852 32.1328 14.3164 32.6838 16.1164L30.9964 16.633C30.3474 14.513 30.4095 12.5242 31.1576 10.8879C31.9103 9.24136 33.3175 8.04206 35.1734 7.45365L36.0096 7.18848ZM20.0001 10.4767L22.8228 16.4247L29.0948 17.0316L24.5441 21.7845L25.5528 27.7356L19.9967 25.1091L14.3389 27.7359L15.4497 21.778L10.9053 17.0316L17.1773 16.4247L20.0001 10.4767ZM20.0001 14.5927L18.3428 18.0848L14.6948 18.4378L17.3504 21.2115L16.7012 24.6935L20.0034 23.1604L23.2474 24.6938L22.656 21.2049L25.3053 18.4378L21.6574 18.0848L20.0001 14.5927ZM2.59175 16.4632C3.67924 16.5639 4.60162 16.9897 5.3177 17.6799C6.23841 18.5675 6.89294 19.9663 7.04029 21.8824L8.79982 21.7471C8.62723 19.5031 7.8417 17.6619 6.54241 16.4095C5.23471 15.1489 3.48184 14.5589 1.53865 14.6945L0.646484 14.7568L0.720755 15.648C0.972684 18.6711 1.91874 20.5746 3.50018 21.6618L4.49994 20.2076C3.6439 19.6191 2.91383 18.5532 2.59175 16.4632ZM33.4577 16.4095C34.7654 15.1489 36.5183 14.5589 38.4615 14.6945L39.3536 14.7568L39.2793 15.648C39.0275 18.6711 38.0814 20.5746 36.4999 21.6618L35.5002 20.2076C36.3562 19.6191 37.0863 18.5532 37.4084 16.4632C36.3209 16.5639 35.3985 16.9897 34.6824 17.6799C33.7617 18.5675 33.1072 19.9663 32.9598 21.8824L31.2003 21.7471C31.3729 19.5031 32.1584 17.6619 33.4577 16.4095ZM3.23067 24.1961C4.20654 23.8191 5.16298 23.8039 6.05388 24.1094C7.20017 24.5024 8.35135 25.4665 9.31606 27.1361L10.8441 26.2533C9.72876 24.3229 8.27994 23.0071 6.62623 22.4401C4.95533 21.8672 3.18968 22.0992 1.55547 23.0525L0.817061 23.4833L1.22421 24.2349C2.26973 26.1651 3.2761 27.5475 4.79237 28.1539L5.44776 26.5155C4.69867 26.2158 4.04307 25.5539 3.23067 24.1961ZM33.3739 22.4401C35.0448 21.8672 36.8104 22.0992 38.4446 23.0525L39.1831 23.4833L38.7759 24.2349C37.7304 26.1651 36.724 27.5475 35.2078 28.1539L34.5524 26.5155C35.3015 26.2158 35.9571 25.5539 36.7695 24.1961C35.7936 23.8191 34.8371 23.8039 33.9462 24.1094C32.7999 24.5024 31.6488 25.4665 30.6841 27.1361L29.1561 26.2533C30.2714 24.3229 31.7202 23.0071 33.3739 22.4401ZM6.67029 30.4289C8.13947 31.7641 9.37841 32.1274 10.3724 32.0737C11.2645 32.0254 12.0945 31.6355 12.8491 31.0608C11.7354 30.1034 10.6016 29.6438 9.55253 29.5752C8.56147 29.5104 7.57576 29.7894 6.67029 30.4289ZM9.66758 27.8142C11.467 27.9318 13.2439 28.8447 14.8006 30.4879L15.4035 31.1242L14.7711 31.7312C13.7016 32.758 12.2505 33.7394 10.4677 33.8358C8.64882 33.9341 6.71276 33.102 4.71715 30.9791L4.12154 30.3454L4.74645 29.7407C6.14276 28.3894 7.85941 27.6961 9.66758 27.8142ZM30.3325 27.8142C32.1408 27.6961 33.8574 28.3894 35.2536 29.7407L35.8786 30.3454L35.283 30.9791C33.2874 33.102 31.3513 33.9341 29.5325 33.8358C27.7496 33.7394 26.2985 32.758 25.229 31.7312L24.5967 31.1242L25.1995 30.4879C26.7562 28.8447 28.5331 27.9318 30.3325 27.8142ZM27.1511 31.0608C27.9057 31.6355 28.7356 32.0254 29.6277 32.0737C30.6217 32.1274 31.8606 31.7641 33.3298 30.4289C32.4244 29.7894 31.4386 29.5104 30.4476 29.5752C29.3985 29.6438 28.2647 30.1034 27.1511 31.0608Z" fill="#FF7A40"/>
</svg>
