<svg width="26" height="27" viewBox="0 0 26 27" fill="none" xmlns="http://www.w3.org/2000/svg">
<path d="M5.83112 2.9375C4.6401 2.9375 3.65625 3.89194 3.65625 5.07031V22.3359C3.65625 23.5143 4.6401 24.4688 5.83112 24.4688H17.3251C18.5162 24.4688 19.5 23.5143 19.5 22.3359V5.07031C19.5 3.89194 18.5162 2.9375 17.3251 2.9375H5.83112ZM5.83112 3.75H17.3251C18.0874 3.75 18.6875 4.34175 18.6875 5.07031V22.3359C18.6875 23.0645 18.0874 23.6562 17.3251 23.6562H5.83112C5.06888 23.6562 4.46875 23.0645 4.46875 22.3359V5.07031C4.46875 4.34175 5.06888 3.75 5.83112 3.75ZM6.59363 4.5625C5.89638 4.5625 5.28125 5.08774 5.28125 5.78125V8.21875C5.28125 8.91251 5.89638 9.4375 6.59363 9.4375H16.5626C17.2596 9.4375 17.875 8.91251 17.875 8.21875V5.78125C17.875 5.08749 17.2599 4.5625 16.5626 4.5625H6.59363ZM6.59363 5.375H16.5626C16.8664 5.375 17.0625 5.5772 17.0625 5.78125V8.21875C17.0625 8.4228 16.8658 8.625 16.5626 8.625H6.59363C6.28988 8.625 6.09375 8.4228 6.09375 8.21875V5.78125C6.09375 5.57695 6.28988 5.375 6.59363 5.375ZM21.125 5.375C20.9007 5.375 20.7188 5.55659 20.7188 5.78125C20.7188 6.00591 20.9007 6.1875 21.125 6.1875H21.9375C22.1618 6.1875 22.3438 6.00591 22.3438 5.78125C22.3438 5.55659 22.1618 5.375 21.9375 5.375H21.125ZM21.125 7.40625C20.9007 7.40625 20.7188 7.58784 20.7188 7.8125C20.7188 8.03716 20.9007 8.21875 21.125 8.21875H21.9375C22.1618 8.21875 22.3438 8.03716 22.3438 7.8125C22.3438 7.58784 22.1618 7.40625 21.9375 7.40625H21.125ZM21.125 9.4375C20.9007 9.4375 20.7188 9.61909 20.7188 9.84375C20.7188 10.0684 20.9007 10.25 21.125 10.25H21.9375C22.1618 10.25 22.3438 10.0684 22.3438 9.84375C22.3438 9.61909 22.1618 9.4375 21.9375 9.4375H21.125ZM7.10938 10.25C6.53385 10.25 6.05051 10.4804 5.73907 10.8308C5.42764 11.1812 5.28125 11.6324 5.28125 12.0781C5.28125 12.5239 5.42764 12.9751 5.73907 13.3254C6.05051 13.6758 6.53385 13.9062 7.10938 13.9062C7.6849 13.9062 8.16824 13.6758 8.47968 13.3254C8.79111 12.9751 8.9375 12.5239 8.9375 12.0781C8.9375 11.6324 8.79111 11.1812 8.47968 10.8308C8.16824 10.4804 7.6849 10.25 7.10938 10.25ZM11.5781 10.25C11.0026 10.25 10.5193 10.4804 10.2078 10.8308C9.89639 11.1812 9.75 11.6324 9.75 12.0781C9.75 12.5239 9.89639 12.9751 10.2078 13.3254C10.5193 13.6758 11.0026 13.9062 11.5781 13.9062C12.1536 13.9062 12.637 13.6758 12.9484 13.3254C13.2599 12.9751 13.4062 12.5239 13.4062 12.0781C13.4062 11.6324 13.2599 11.1812 12.9484 10.8308C12.637 10.4804 12.1536 10.25 11.5781 10.25ZM16.0469 10.25C15.4714 10.25 14.988 10.4804 14.6766 10.8308C14.3651 11.1812 14.2188 11.6324 14.2188 12.0781C14.2188 12.5239 14.3651 12.9751 14.6766 13.3254C14.988 13.6758 15.4714 13.9062 16.0469 13.9062C16.6224 13.9062 17.1057 13.6758 17.4172 13.3254C17.7286 12.9751 17.875 12.5239 17.875 12.0781C17.875 11.6324 17.7286 11.1812 17.4172 10.8308C17.1057 10.4804 16.6224 10.25 16.0469 10.25ZM7.10938 11.0625C7.48177 11.0625 7.70936 11.1875 7.87189 11.3704C8.03441 11.5532 8.125 11.8129 8.125 12.0781C8.125 12.3433 8.03441 12.603 7.87189 12.7859C7.70936 12.9687 7.48177 13.0938 7.10938 13.0938C6.73698 13.0938 6.50939 12.9687 6.34686 12.7859C6.18434 12.603 6.09375 12.3433 6.09375 12.0781C6.09375 11.8129 6.18434 11.5532 6.34686 11.3704C6.50939 11.1875 6.73698 11.0625 7.10938 11.0625ZM11.5781 11.0625C11.9505 11.0625 12.1781 11.1875 12.3406 11.3704C12.5032 11.5532 12.5938 11.8129 12.5938 12.0781C12.5938 12.3433 12.5032 12.603 12.3406 12.7859C12.1781 12.9687 11.9505 13.0938 11.5781 13.0938C11.2057 13.0938 10.9781 12.9687 10.8156 12.7859C10.6531 12.603 10.5625 12.3433 10.5625 12.0781C10.5625 11.8129 10.6531 11.5532 10.8156 11.3704C10.9781 11.1875 11.2057 11.0625 11.5781 11.0625ZM16.0469 11.0625C16.4193 11.0625 16.6469 11.1875 16.8094 11.3704C16.9719 11.5532 17.0625 11.8129 17.0625 12.0781C17.0625 12.3433 16.9719 12.603 16.8094 12.7859C16.6469 12.9687 16.4193 13.0938 16.0469 13.0938C15.6745 13.0938 15.4469 12.9687 15.2844 12.7859C15.1218 12.603 15.0312 12.3433 15.0312 12.0781C15.0312 11.8129 15.1218 11.5532 15.2844 11.3704C15.4469 11.1875 15.6745 11.0625 16.0469 11.0625ZM21.125 11.4688C20.9007 11.4688 20.7188 11.6503 20.7188 11.875C20.7188 12.0997 20.9007 12.2812 21.125 12.2812H21.9375C22.1618 12.2812 22.3438 12.0997 22.3438 11.875C22.3438 11.6503 22.1618 11.4688 21.9375 11.4688H21.125ZM21.125 13.5C20.9007 13.5 20.7188 13.6816 20.7188 13.9062C20.7188 14.1309 20.9007 14.3125 21.125 14.3125H21.9375C22.1618 14.3125 22.3438 14.1309 22.3438 13.9062C22.3438 13.6816 22.1618 13.5 21.9375 13.5H21.125ZM7.10938 14.7188C6.53385 14.7188 6.05051 14.9492 5.73907 15.2996C5.42764 15.6499 5.28125 16.1011 5.28125 16.5469C5.28125 16.9926 5.42764 17.4438 5.73907 17.7942C6.05051 18.1446 6.53385 18.375 7.10938 18.375C7.6849 18.375 8.16824 18.1446 8.47968 17.7942C8.79111 17.4438 8.9375 16.9926 8.9375 16.5469C8.9375 16.1011 8.79111 15.6499 8.47968 15.2996C8.16824 14.9492 7.6849 14.7188 7.10938 14.7188ZM11.5781 14.7188C11.0026 14.7188 10.5193 14.9492 10.2078 15.2996C9.89639 15.6499 9.75 16.1011 9.75 16.5469C9.75 16.9926 9.89639 17.4438 10.2078 17.7942C10.5193 18.1446 11.0026 18.375 11.5781 18.375C12.1536 18.375 12.637 18.1446 12.9484 17.7942C13.2599 17.4438 13.4062 16.9926 13.4062 16.5469C13.4062 16.1011 13.2599 15.6499 12.9484 15.2996C12.637 14.9492 12.1536 14.7188 11.5781 14.7188ZM16.0469 14.7188C15.4714 14.7188 14.988 14.9492 14.6766 15.2996C14.3651 15.6499 14.2188 16.1011 14.2188 16.5469C14.2188 16.9926 14.3651 17.4438 14.6766 17.7942C14.988 18.1446 15.4714 18.375 16.0469 18.375C16.6224 18.375 17.1057 18.1446 17.4172 17.7942C17.7286 17.4438 17.875 16.9926 17.875 16.5469C17.875 16.1011 17.7286 15.6499 17.4172 15.2996C17.1057 14.9492 16.6224 14.7188 16.0469 14.7188ZM7.10938 15.5312C7.48177 15.5312 7.70936 15.6563 7.87189 15.8391C8.03441 16.022 8.125 16.2817 8.125 16.5469C8.125 16.8121 8.03441 17.0718 7.87189 17.2546C7.70936 17.4375 7.48177 17.5625 7.10938 17.5625C6.73698 17.5625 6.50939 17.4375 6.34686 17.2546C6.18434 17.0718 6.09375 16.8121 6.09375 16.5469C6.09375 16.2817 6.18434 16.022 6.34686 15.8391C6.50939 15.6563 6.73698 15.5312 7.10938 15.5312ZM11.5781 15.5312C11.9505 15.5312 12.1781 15.6563 12.3406 15.8391C12.5032 16.022 12.5938 16.2817 12.5938 16.5469C12.5938 16.8121 12.5032 17.0718 12.3406 17.2546C12.1781 17.4375 11.9505 17.5625 11.5781 17.5625C11.2057 17.5625 10.9781 17.4375 10.8156 17.2546C10.6531 17.0718 10.5625 16.8121 10.5625 16.5469C10.5625 16.2817 10.6531 16.022 10.8156 15.8391C10.9781 15.6563 11.2057 15.5312 11.5781 15.5312ZM16.0469 15.5312C16.4193 15.5312 16.6469 15.6563 16.8094 15.8391C16.9719 16.022 17.0625 16.2817 17.0625 16.5469C17.0625 16.8121 16.9719 17.0718 16.8094 17.2546C16.6469 17.4375 16.4193 17.5625 16.0469 17.5625C15.6745 17.5625 15.4469 17.4375 15.2844 17.2546C15.1218 17.0718 15.0312 16.8121 15.0312 16.5469C15.0312 16.2817 15.1218 16.022 15.2844 15.8391C15.4469 15.6563 15.6745 15.5312 16.0469 15.5312ZM21.125 15.5312C20.9007 15.5312 20.7188 15.7128 20.7188 15.9375C20.7188 16.1622 20.9007 16.3438 21.125 16.3438H21.9375C22.1618 16.3438 22.3438 16.1622 22.3438 15.9375C22.3438 15.7128 22.1618 15.5312 21.9375 15.5312H21.125ZM21.125 17.5625C20.9007 17.5625 20.7188 17.7441 20.7188 17.9688C20.7188 18.1934 20.9007 18.375 21.125 18.375H21.9375C22.1618 18.375 22.3438 18.1934 22.3438 17.9688C22.3438 17.7441 22.1618 17.5625 21.9375 17.5625H21.125ZM7.10938 19.1875C6.10454 19.1875 5.28125 20.0108 5.28125 21.0156C5.28125 22.0205 6.10454 22.8438 7.10938 22.8438H11.5781C12.583 22.8438 13.4062 22.0205 13.4062 21.0156C13.4062 20.0108 12.583 19.1875 11.5781 19.1875H7.10938ZM16.0469 19.1875C15.4714 19.1875 14.988 19.4179 14.6766 19.7683C14.3651 20.1187 14.2188 20.5699 14.2188 21.0156C14.2188 21.4614 14.3651 21.9126 14.6766 22.2629C14.988 22.6133 15.4714 22.8438 16.0469 22.8438C16.6224 22.8438 17.1057 22.6133 17.4172 22.2629C17.7286 21.9126 17.875 21.4614 17.875 21.0156C17.875 20.5699 17.7286 20.1187 17.4172 19.7683C17.1057 19.4179 16.6224 19.1875 16.0469 19.1875ZM21.125 19.5938C20.9007 19.5938 20.7188 19.7753 20.7188 20C20.7188 20.2247 20.9007 20.4062 21.125 20.4062H21.9375C22.1618 20.4062 22.3438 20.2247 22.3438 20C22.3438 19.7753 22.1618 19.5938 21.9375 19.5938H21.125ZM7.10938 20H11.5781C12.1439 20 12.5938 20.4499 12.5938 21.0156C12.5938 21.5814 12.1439 22.0312 11.5781 22.0312H7.10938C6.54365 22.0312 6.09375 21.5814 6.09375 21.0156C6.09375 20.4499 6.54365 20 7.10938 20ZM16.0469 20C16.4193 20 16.6469 20.125 16.8094 20.3079C16.9719 20.4907 17.0625 20.7504 17.0625 21.0156C17.0625 21.2808 16.9719 21.5405 16.8094 21.7234C16.6469 21.9062 16.4193 22.0312 16.0469 22.0312C15.6745 22.0312 15.4469 21.9062 15.2844 21.7234C15.1218 21.5405 15.0312 21.2808 15.0312 21.0156C15.0312 20.7504 15.1218 20.4907 15.2844 20.3079C15.4469 20.125 15.6745 20 16.0469 20ZM21.125 21.625C20.9007 21.625 20.7188 21.8066 20.7188 22.0312C20.7188 22.2559 20.9007 22.4375 21.125 22.4375H21.9375C22.1618 22.4375 22.3438 22.2559 22.3438 22.0312C22.3438 21.8066 22.1618 21.625 21.9375 21.625H21.125Z" fill="white"/>
</svg>
