<svg width="40" height="41" viewBox="0 0 40 41" fill="none" xmlns="http://www.w3.org/2000/svg">
<path fill-rule="evenodd" clip-rule="evenodd" d="M15.2915 6.69486C15.2915 6.20757 15.6865 5.8125 16.1738 5.8125H23.826C24.3134 5.8125 24.7084 6.20757 24.7084 6.69486V7.34292H27.6521C28.1394 7.34292 28.5345 7.73798 28.5345 8.22528V8.77651C33.0878 11.3897 36.1867 15.9422 36.1867 20.6217V21.3632L37.8789 21.9273C38.2392 22.0474 38.4823 22.3846 38.4823 22.7643V26.5905C38.4823 26.9702 38.2392 27.3074 37.8789 27.4275L36.1867 27.9916V28.1209C36.1867 29.1357 35.5137 30.0026 34.6854 30.6756C33.8272 31.373 32.6305 32.0069 31.2055 32.5432C28.3473 33.6187 24.4139 34.3597 19.9999 34.3597C15.5859 34.3597 11.6525 33.6187 8.79441 32.5432C7.36936 32.0069 6.17265 31.373 5.31446 30.6756C4.48624 30.0026 3.81323 29.1357 3.81323 28.1209V27.9916L2.12091 27.4275C1.7606 27.3074 1.51758 26.9702 1.51758 26.5905V22.7643C1.51758 22.3846 1.7606 22.0474 2.12091 21.9273L3.81323 21.3632V20.6217C3.81323 15.8655 6.91471 11.3834 11.4654 8.77628V8.22528C11.4654 7.73798 11.8605 7.34292 12.3478 7.34292H15.2915V6.69486ZM15.2915 9.10763V17.4079H17.0562V7.57722H22.9436V17.4079H24.7084V9.10763H26.7698V12.8166H28.5345V10.8504C32.1599 13.2649 34.422 16.998 34.422 20.6217V21.9991C34.422 22.3789 34.6649 22.7161 35.0252 22.8362L36.7176 23.4003V25.9545L35.0252 26.5186C34.6649 26.6387 34.422 26.9759 34.422 27.3556V28.1209C34.422 28.3304 34.2628 28.7452 33.5725 29.3061C32.9122 29.8426 31.9041 30.3947 30.5839 30.8916C27.9517 31.8821 24.2328 32.595 19.9999 32.595C15.767 32.595 12.0482 31.8821 9.41589 30.8916C8.09571 30.3947 7.08765 29.8426 6.42736 29.3061C5.7371 28.7452 5.57794 28.3304 5.57794 28.1209V27.3556C5.57794 26.9759 5.33491 26.6387 4.97461 26.5186L3.28228 25.9545V23.4003L4.97461 22.8362C5.33491 22.7161 5.57794 22.3789 5.57794 21.9991V20.6217C5.57794 16.9317 7.83788 13.2521 11.4654 10.8482V12.8166H13.2301V9.10763H15.2915ZM11.0461 26.9297C13.2973 27.5887 16.4618 28.0038 19.9999 28.0038C23.5381 28.0038 26.7026 27.5887 28.9538 26.9297C30.0852 26.5986 30.9352 26.2204 31.4824 25.8383C32.0527 25.4402 32.1263 25.164 32.1263 25.0601H33.891C33.891 26.0275 33.2376 26.7652 32.4927 27.2853C31.7247 27.8215 30.6712 28.2659 29.4495 28.6234C26.9947 29.3419 23.6548 29.7685 19.9999 29.7685C16.3451 29.7685 13.0052 29.3419 10.5504 28.6234C9.32871 28.2659 8.27518 27.8215 7.50724 27.2853C6.76224 26.7652 6.10888 26.0275 6.10888 25.0601H7.87359C7.87359 25.164 7.94718 25.4402 8.51741 25.8383C9.06465 26.2204 9.91465 26.5986 11.0461 26.9297Z" fill="#FF7A40"/>
</svg>
