<svg width="17" height="14" viewBox="0 0 17 14" fill="none" xmlns="http://www.w3.org/2000/svg">
<path d="M8.49939 3.24207L2.43642 8.22295C2.43642 8.22998 2.43465 8.24032 2.4311 8.25442C2.42763 8.26841 2.42578 8.27856 2.42578 8.28578V13.3295C2.42578 13.5116 2.49259 13.6694 2.62618 13.8023C2.75973 13.9352 2.91787 14.0022 3.10065 14.0022H7.14958V9.9671H9.84924V14.0023H13.8981C14.0809 14.0023 14.2392 13.9355 14.3726 13.8023C14.5062 13.6695 14.5732 13.5116 14.5732 13.3295V8.28578C14.5732 8.25781 14.5694 8.23668 14.5626 8.22295L8.49939 3.24207Z" fill="white"/>
<path d="M16.8827 7.08884L14.5736 5.17642V0.88922C14.5736 0.79121 14.542 0.710609 14.4786 0.647527C14.4156 0.584518 14.3348 0.553014 14.2362 0.553014H12.2117C12.1132 0.553014 12.0324 0.584518 11.969 0.647527C11.9058 0.710609 11.8743 0.791247 11.8743 0.88922V2.93822L9.30147 0.794559C9.07677 0.612416 8.8096 0.521362 8.50025 0.521362C8.19094 0.521362 7.92381 0.612416 7.69889 0.794559L0.117171 7.08884C0.0468881 7.14478 0.00836736 7.22008 0.00120243 7.31467C-0.00592556 7.40918 0.0186346 7.49173 0.0749569 7.56174L0.728701 8.33933C0.785024 8.40234 0.858741 8.44088 0.950149 8.45497C1.03454 8.46204 1.11893 8.43745 1.20332 8.38144L8.50003 2.31825L15.7968 8.3814C15.8532 8.43028 15.9268 8.45468 16.0183 8.45468H16.0499C16.1412 8.44084 16.2148 8.40205 16.2714 8.33919L16.9252 7.5617C16.9814 7.49155 17.0061 7.40915 16.9987 7.31452C16.9915 7.22019 16.9529 7.14489 16.8827 7.08884Z" fill="white"/>
</svg>
