<svg width="28" height="28" viewBox="0 0 28 28" fill="none" xmlns="http://www.w3.org/2000/svg">
<g clip-path="url(#clip0_4251_900)">
<path d="M14.7937 17.0266L10.2876 26.9912H7.00049L11.9499 16.3367C10.7926 15.7551 9.85638 14.9005 9.1435 13.773C8.42843 12.6455 8.072 11.1129 8.072 9.17306C8.072 7.81593 8.27442 6.62235 8.68146 5.59124C9.0874 4.56229 9.64185 3.70664 10.3426 3.02753C11.0434 2.34842 11.863 1.84045 12.8014 1.50035C13.7471 1.15926 14.7469 0.986883 15.7541 0.991293H20.0005V26.9912H17.1578V17.0266H14.7937ZM17.1578 3.31997H15.643C15.0764 3.31997 14.522 3.42286 13.9818 3.62973C13.4416 3.83661 12.9587 4.16479 12.5407 4.61536C12.1226 5.06485 11.7838 5.66056 11.5253 6.40248C11.2656 7.14441 11.138 8.0618 11.138 9.15682C11.138 10.202 11.2535 11.0782 11.4878 11.7833C11.7222 12.4884 12.0423 13.0614 12.4482 13.4979C12.8553 13.9355 13.3349 14.2452 13.8894 14.4283C14.4551 14.612 15.0473 14.7042 15.643 14.7012H17.1578V3.31997Z" fill="#FF0000"/>
</g>
<defs>
<clipPath id="clip0_4251_900">
<rect width="28" height="28" fill="white" transform="translate(0.000488281 -0.00878906)"/>
</clipPath>
</defs>
</svg>
