<svg width="40" height="41" viewBox="0 0 40 41" fill="none" xmlns="http://www.w3.org/2000/svg">
<path fill-rule="evenodd" clip-rule="evenodd" d="M22.1269 2.64504C23.1776 2.48585 24.3759 2.90524 25.1867 3.9477C25.8243 4.76741 26.3367 5.521 26.6714 6.48675C27.0041 7.4464 27.1398 8.55081 27.1398 10.0562C27.1398 11.6091 26.9037 12.7719 26.6658 13.6279C26.5791 13.9401 26.4894 14.22 26.4181 14.4425C26.3945 14.5161 26.3729 14.5835 26.3541 14.6435C26.2727 14.9042 26.2586 14.9903 26.2565 15.0029C26.2563 15.0043 26.2562 15.0044 26.2562 15.0044V19.422V19.4316L26.256 19.4408C26.1602 24.039 23.2871 28.2467 18.7972 29.9662L18.1661 28.3182C21.9793 26.8579 24.4071 23.294 24.4915 19.413V15.0044C24.4915 14.6916 24.5949 14.3566 24.6698 14.1172C24.6945 14.038 24.7199 13.9586 24.7461 13.8771C24.8152 13.6613 24.8889 13.4313 24.9655 13.1556C25.1695 12.4212 25.3751 11.4192 25.3751 10.0562C25.3751 8.64564 25.2458 7.76187 25.0041 7.06475C24.7645 6.37375 24.3933 5.80192 23.7938 5.03112C23.3675 4.48309 22.7986 4.32813 22.3913 4.38983C21.9927 4.45024 21.8382 4.66714 21.8382 4.93122V6.16827C21.8382 9.99793 20.3701 12.4939 17.9998 15.2288L17.9965 15.2326L14.2839 19.4212H12.1196V17.6565H13.4899L16.6694 14.0694C18.8918 11.5043 20.0735 9.40599 20.0735 6.16827V4.93122C20.0735 3.60479 21.0676 2.80554 22.1269 2.64504ZM1.51758 15.8894H12.1184V32.678H12.1196C13.4206 32.678 14.2751 33.4862 14.8894 34.0672C14.9523 34.1268 15.0127 34.1839 15.0708 34.2375C15.7455 34.8603 16.3512 35.3289 17.4214 35.3289H24.4899C24.4899 35.3289 24.4902 35.3289 24.4902 36.2113C24.4902 37.0936 24.4902 37.0936 24.4902 37.0936H17.4214C15.6639 37.0936 14.6349 36.2368 13.8738 35.5342C13.8402 35.5032 13.8074 35.4729 13.7754 35.4432C13.0342 34.7582 12.693 34.4428 12.1196 34.4428H12.1184V37.0936H1.51758V15.8894ZM3.28228 17.6541V35.3289H10.3537V17.6541H3.28228ZM27.1424 18.539C27.1424 17.0797 28.3327 15.8894 29.7919 15.8894H34.21C35.6693 15.8894 36.8596 17.0797 36.8596 18.539V20.3062C36.8596 20.7786 36.7349 21.2227 36.5167 21.6075C37.2532 22.0789 37.7432 22.9045 37.7432 23.8407V25.6079C37.7432 26.5441 37.2532 27.3696 36.5167 27.8411C36.7349 28.2259 36.8596 28.67 36.8596 29.1423V30.9096C36.8596 32.1285 36.0291 33.1598 34.9049 33.4664C35.0258 33.7692 35.0924 34.0991 35.0924 34.444V35.3276C35.0924 36.7869 33.9021 37.9772 32.4428 37.9772H28.0247C26.5654 37.9772 25.3751 36.7869 25.3751 35.3276V34.444C25.3751 33.2251 26.2057 32.1938 27.3297 31.8872C27.2089 31.5845 27.1424 31.2545 27.1424 30.9096V29.1423C27.1424 28.2062 27.6323 27.3806 28.3688 26.9092C28.1506 26.5244 28.0259 26.0802 28.0259 25.6079V23.8407C28.0259 23.3683 28.1506 22.9242 28.3688 22.5395C27.6323 22.0679 27.1424 21.2425 27.1424 20.3062V18.539ZM30.6731 21.1911H30.6755H34.21H34.2114C34.6954 21.1903 35.0949 20.7904 35.0949 20.3062V18.539C35.0949 18.0543 34.6946 17.6541 34.21 17.6541H29.7919C29.3072 17.6541 28.9071 18.0543 28.9071 18.539V20.3062C28.9071 20.7909 29.3072 21.1911 29.7919 21.1911H30.6731ZM29.7919 28.2575C29.3072 28.2575 28.9071 28.6577 28.9071 29.1423V30.9096C28.9071 31.3942 29.3072 31.7945 29.7919 31.7945H34.21C34.6946 31.7945 35.0949 31.3942 35.0949 30.9096V29.1423C35.0949 28.6577 34.6946 28.2575 34.21 28.2575H29.7919ZM28.0247 33.5592C27.5401 33.5592 27.1398 33.9593 27.1398 34.444V35.3276C27.1398 35.8123 27.5401 36.2125 28.0247 36.2125H32.4428C32.9274 36.2125 33.3276 35.8123 33.3276 35.3276V34.444C33.3276 33.9593 32.9274 33.5592 32.4428 33.5592H28.0247ZM35.0936 26.4928C35.5782 26.4928 35.9785 26.0926 35.9785 25.6079V23.8407C35.9785 23.356 35.5782 22.9558 35.0936 22.9558H30.6755C30.1909 22.9558 29.7906 23.356 29.7906 23.8407V25.6079C29.7906 26.0926 30.1909 26.4928 30.6755 26.4928H35.0936ZM5.93565 22.957V19.4226H7.70036V22.957H5.93565Z" fill="#FF7A40"/>
</svg>
