<svg width="10" height="10" viewBox="0 0 10 10" fill="none" xmlns="http://www.w3.org/2000/svg">
<path d="M7.23421 3.98955C7.19633 3.68569 7.10174 3.44711 6.93374 3.23578C6.7156 2.96366 6.43683 2.80071 6.0241 2.70406C5.75512 2.63964 5.64644 2.64704 5.54916 2.73477C5.45854 2.81696 5.44084 2.98174 5.51009 3.08844C5.55878 3.16588 5.61496 3.19363 5.77122 3.2239C5.97929 3.26169 6.12309 3.31074 6.2539 3.38457C6.53153 3.54283 6.66081 3.7905 6.67465 4.19145C6.68111 4.37971 6.69759 4.43759 6.76419 4.50436C6.88763 4.62641 7.10732 4.60267 7.20052 4.4566C7.23472 4.40155 7.23994 4.37759 7.24355 4.24975C7.24594 4.17061 7.2425 4.05281 7.23421 3.98955Z" fill="white"/>
<path d="M8.32123 4.3318C8.2664 3.40116 7.89758 2.65242 7.2375 2.12562C6.86559 1.82961 6.41605 1.62607 5.92329 1.52708C5.74278 1.49167 5.41045 1.46298 5.35344 1.47939C5.29963 1.49459 5.22354 1.55209 5.18962 1.60408C5.15375 1.66046 5.14567 1.78635 5.17626 1.85917C5.22565 1.9809 5.31752 2.0239 5.57481 2.04612C5.97145 2.08037 6.38056 2.2179 6.68967 2.4215C7.04257 2.65333 7.3231 2.97041 7.50458 3.343C7.66139 3.66314 7.75783 4.1245 7.75515 4.53763C7.75426 4.68706 7.77764 4.77144 7.83853 4.83313C7.93043 4.92799 8.06439 4.94874 8.18262 4.88573C8.31365 4.81773 8.3443 4.69835 8.32123 4.3318Z" fill="white"/>
<path d="M9.52517 7.91526C9.50673 7.86206 9.46369 7.78001 9.43294 7.7329C9.23923 7.44421 8.19848 6.64036 7.67885 6.37747C7.38216 6.22705 7.16232 6.17692 6.99936 6.224C6.82411 6.27265 6.73186 6.35316 6.43823 6.7133C6.31987 6.85766 6.19842 6.99291 6.16613 7.01416C6.08618 7.06887 5.92938 7.11295 5.81869 7.11295C5.56196 7.11141 5.09615 6.94731 4.73795 6.73153C4.4597 6.5644 4.10306 6.26505 3.8294 5.96873C3.50654 5.62076 3.28673 5.31382 3.113 4.96736C2.88856 4.52214 2.83168 4.25013 2.92544 4.05106C2.94851 4.00093 2.97926 3.94776 2.99308 3.93102C3.00692 3.91585 3.15144 3.79883 3.3113 3.67118C3.62493 3.42503 3.67566 3.36881 3.73407 3.20014C3.80786 2.98587 3.78789 2.76706 3.67413 2.54674C3.58649 2.37958 3.35743 2.01489 3.19141 1.77937C2.97157 1.4694 2.42428 0.806881 2.31511 0.717202C2.11834 0.559186 1.86624 0.531817 1.58796 0.638207C1.29436 0.750655 0.743977 1.18828 0.50876 1.49371C0.296609 1.77026 0.215157 1.96627 0.202846 2.22459C0.192092 2.43732 0.210533 2.52545 0.324298 2.79746C1.21441 4.93088 2.54264 6.63428 4.36746 7.98668C5.3206 8.69325 6.30909 9.23118 7.33449 9.59892C7.9325 9.81316 8.19231 9.82379 8.49824 9.64754C8.62737 9.57155 8.94714 9.24789 9.12546 9.01237C9.42064 8.62032 9.52979 8.4395 9.56053 8.29514C9.58206 8.19638 9.56515 8.02468 9.52517 7.91526Z" fill="white"/>
<path d="M9.42841 4.54559C9.40872 4.01917 9.31892 3.58737 9.13166 3.10596C8.94678 2.63241 8.75967 2.3234 8.4063 1.90544C8.07221 1.51356 7.81272 1.2898 7.40117 1.04073C6.82699 0.693699 6.12823 0.464048 5.34513 0.367467C5.07807 0.333712 5.01766 0.336123 4.93573 0.390077C4.77696 0.492285 4.77908 0.747217 4.93835 0.847894C4.99107 0.879919 5.03785 0.891586 5.25147 0.919181C5.57939 0.962754 5.79025 1.00382 6.04046 1.07119C7.0216 1.33589 7.77611 1.87696 8.28053 2.68014C8.70265 3.3496 8.87787 4.0191 8.85299 4.87418C8.84434 5.16325 8.85062 5.21413 8.8954 5.28358C8.98115 5.41303 9.20727 5.43864 9.32327 5.33122C9.39544 5.26575 9.40905 5.2166 9.42327 4.96918C9.43008 4.84012 9.43154 4.64959 9.42841 4.54559Z" fill="white"/>
</svg>
