<svg width="30" height="24" viewBox="0 0 30 24" fill="none" xmlns="http://www.w3.org/2000/svg">
<path d="M28.0735 0.0926698L27.577 0.277502L0.636063 10.2445C0.445144 10.3051 0.279211 10.429 0.16427 10.5969C0.0493298 10.7647 -0.00811965 10.967 0.000925686 11.172C0.00997221 11.377 0.0850016 11.5731 0.214256 11.7296C0.34351 11.8861 0.519682 11.9941 0.715153 12.0368L7.68906 13.9971L8.99001 17.9178L10.291 21.8385C10.3657 22.0307 10.485 22.2012 10.6385 22.3354C10.792 22.4695 10.9751 22.5631 11.1718 22.6081C11.3685 22.6531 11.573 22.6481 11.7674 22.5935C11.9618 22.5389 12.1403 22.4365 12.2874 22.2949L15.8903 18.7999L22.9651 23.726C23.8297 24.3309 25.0624 23.8829 25.2833 22.8858L29.969 1.62735C30.1981 0.574354 29.118 -0.290998 28.0735 0.0926698ZM24.6342 4.8115L12.462 15.0277L11.8892 15.5094C11.7634 15.6118 11.6812 15.7605 11.6601 15.9238L11.532 17.0105L11.1801 20.063C11.183 20.1002 11.1714 20.1369 11.1479 20.1653C11.1243 20.1937 11.0908 20.2112 11.0546 20.2142C11.0185 20.2172 10.9826 20.2053 10.955 20.1811C10.9274 20.157 10.9103 20.1225 10.9074 20.0854L9.91731 17.0356L8.89456 13.9131C8.8513 13.7727 8.85705 13.6213 8.91081 13.4848C8.96457 13.3483 9.06299 13.2353 9.18911 13.1654L21.8551 5.71045L24.2387 4.31022C24.5851 4.10298 24.9397 4.55386 24.6342 4.8115Z" fill="#29B6F6"/>
</svg>
