<svg width="40" height="41" viewBox="0 0 40 41" fill="none" xmlns="http://www.w3.org/2000/svg">
<path fill-rule="evenodd" clip-rule="evenodd" d="M21.5895 5.36545C21.7562 5.14338 22.0176 5.0127 22.2953 5.0127H29.9475C30.2251 5.0127 30.4865 5.14338 30.6532 5.36545L32.6841 8.07186H36.0692C37.3978 8.07186 38.482 9.15474 38.482 10.4838V21.9557C38.482 23.2847 37.3978 24.3676 36.0692 24.3676H16.1735C14.8449 24.3676 13.7608 23.2847 13.7608 21.9557V10.4838C13.7608 9.15474 14.8449 8.07186 16.1735 8.07186H19.5586L21.5895 5.36545ZM22.7363 6.77739L20.7054 9.4838C20.5387 9.70592 20.2773 9.83657 19.9996 9.83657H16.1735C15.8186 9.83657 15.5255 10.1303 15.5255 10.4838V21.9557C15.5255 22.3092 15.8186 22.6029 16.1735 22.6029H36.0692C36.4241 22.6029 36.7173 22.3092 36.7173 21.9557V10.4838C36.7173 10.1303 36.4241 9.83657 36.0692 9.83657H32.2431C31.9655 9.83657 31.704 9.70592 31.5374 9.4838L29.5064 6.77739H22.7363ZM26.1215 12.1308C24.0727 12.1308 22.4126 13.7907 22.4126 15.8372C22.4126 17.8837 24.0726 19.5436 26.1215 19.5436C28.1704 19.5436 29.8305 17.8837 29.8305 15.8372C29.8305 13.7907 28.1704 12.1308 26.1215 12.1308ZM20.6479 15.8372C20.6479 12.8152 23.099 10.3661 26.1215 10.3661C29.1441 10.3661 31.5952 12.8152 31.5952 15.8372C31.5952 18.8593 29.1441 21.3083 26.1215 21.3083C23.099 21.3083 20.6479 18.8593 20.6479 15.8372ZM1.51758 17.367C1.51758 16.8797 1.91262 16.4847 2.39993 16.4847H12.3478V18.2494H3.28228V34.0749H24.4741V25.7797H26.2388V34.9573C26.2388 35.4446 25.8438 35.8396 25.3565 35.8396H2.39993C1.91262 35.8396 1.51758 35.4446 1.51758 34.9573V17.367ZM34.5387 21.3085H33.0083V19.5437H34.5387V21.3085ZM8.52135 22.0732C7.74035 22.0732 7.10806 22.7059 7.10806 23.4853C7.10806 24.2646 7.74035 24.8973 8.52135 24.8973C9.30235 24.8973 9.93465 24.2646 9.93465 23.4853C9.93465 22.7059 9.30235 22.0732 8.52135 22.0732ZM5.34334 23.4853C5.34334 21.7303 6.76665 20.3085 8.52135 20.3085C10.2761 20.3085 11.6994 21.7303 11.6994 23.4853C11.6994 25.2402 10.2761 26.662 8.52135 26.662C6.76665 26.662 5.34334 25.2402 5.34334 23.4853ZM17.0804 25.9202C17.4249 25.5759 17.9833 25.5759 18.3279 25.9202L22.9192 30.509C23.2638 30.8535 23.264 31.4121 22.9195 31.7568C22.575 32.1014 22.0164 32.1016 21.6716 31.7572L17.7041 27.7918L14.3611 31.1329L15.2675 32.0389C15.6122 32.3833 15.6124 32.942 15.2679 33.2867C14.9234 33.6314 14.3647 33.6315 14.02 33.287L12.5008 31.7687C12.4968 31.7647 12.4927 31.7608 12.4887 31.7568C12.4849 31.753 12.4812 31.7492 12.4775 31.7454L10.8177 30.0865L7.61535 33.287C7.27065 33.6315 6.712 33.6314 6.36753 33.2867C6.023 32.942 6.02318 32.3833 6.36782 32.0389L10.1939 28.2149C10.5385 27.8706 11.0969 27.8706 11.4414 28.2149L13.1129 29.8854L17.0804 25.9202Z" fill="#FF7A40"/>
</svg>
