<svg width="25" height="24" viewBox="0 0 25 24" fill="none" xmlns="http://www.w3.org/2000/svg">
<path d="M20.1189 2H4.88111C4.24978 2.00059 3.64448 2.25164 3.19806 2.69806C2.75164 3.14448 2.50059 3.74978 2.5 4.38111V19.6189C2.5 20.9333 3.56778 22 4.88111 22H20.1189C20.7502 21.9994 21.3555 21.7484 21.8019 21.3019C22.2484 20.8555 22.4994 20.2502 22.5 19.6189V4.38111C22.4994 3.74978 22.2484 3.14448 21.8019 2.69806C21.3555 2.25164 20.7502 2.00059 20.1189 2ZM18.2167 10.7256C17.5158 10.7936 16.8107 10.65 16.1922 10.3133C15.6706 10.0321 15.2275 9.62495 14.9033 9.12889V14.6222C14.9033 15.4252 14.6652 16.2102 14.2191 16.8778C13.773 17.5455 13.1389 18.0659 12.397 18.3732C11.6552 18.6805 10.8388 18.7609 10.0513 18.6042C9.2637 18.4476 8.54028 18.0609 7.97248 17.4931C7.40468 16.9253 7.018 16.2019 6.86135 15.4143C6.70469 14.6267 6.78509 13.8104 7.09238 13.0685C7.39967 12.3267 7.92006 11.6926 8.58772 11.2465C9.25538 10.8003 10.0403 10.5622 10.8433 10.5622C10.9278 10.5622 11.01 10.57 11.0933 10.5744V12.5756C11.01 12.5656 10.9289 12.55 10.8433 12.55C10.2937 12.55 9.76667 12.7683 9.37805 13.1569C8.98943 13.5456 8.77111 14.0726 8.77111 14.6222C8.77111 15.1718 8.98943 15.6989 9.37805 16.0875C9.76667 16.4761 10.2937 16.6944 10.8433 16.6944C11.9878 16.6944 12.9989 15.7933 12.9989 14.6489L13.0189 5.31778H14.9333C15.021 6.14936 15.398 6.92373 15.9985 7.50559C16.5991 8.08745 17.3849 8.43981 18.2189 8.50111V10.7256" fill="white"/>
</svg>
