<svg width="25" height="24" viewBox="0 0 25 24" fill="none" xmlns="http://www.w3.org/2000/svg">
<path fill-rule="evenodd" clip-rule="evenodd" d="M16.225 22V14.255H18.825L19.214 11.237H16.224V9.31C16.224 8.436 16.467 7.84 17.721 7.84H19.319V5.14C18.5452 5.05685 17.7673 5.01679 16.989 5.02C14.685 5.02 13.108 6.427 13.108 9.01V11.237H10.5V14.255H13.107V22H3.604C2.994 22 2.5 21.506 2.5 20.896V3.104C2.5 2.494 2.994 2 3.604 2H21.396C22.006 2 22.5 2.494 22.5 3.104V20.896C22.5 21.506 22.006 22 21.396 22H16.225Z" fill="white"/>
</svg>
