<svg width="604" height="378" viewBox="0 0 604 378" fill="none" xmlns="http://www.w3.org/2000/svg">
<g clip-path="url(#clip0_614_236)">
<path d="M75.5878 302.415H39.4849C17.6772 302.415 0 320.091 0 341.898V378H37.9879C58.7515 378 75.5878 361.164 75.5878 340.401V302.415Z" fill="#8CAD3C"/>
<path d="M151.074 302.415H114.971C93.1635 302.415 75.4863 320.091 75.4863 341.898V378H113.474C134.238 378 151.074 361.164 151.074 340.401V302.415Z" fill="#8CAD3C"/>
<path d="M226.569 302.415H190.466C168.659 302.415 150.981 320.091 150.981 341.898V378H188.969C209.733 378 226.569 361.164 226.569 340.401V302.415Z" fill="#8CAD3C"/>
<path d="M302.056 302.415H265.953C244.145 302.415 226.468 320.091 226.468 341.898V378H264.456C285.219 378 302.056 361.164 302.056 340.401V302.415Z" fill="#8CAD3C"/>
<path opacity="0.63" d="M377.542 302.415H341.439C319.631 302.415 301.954 320.091 301.954 341.898V378H339.942C360.706 378 377.542 361.164 377.542 340.401V302.415Z" fill="#8CAD3C"/>
<path opacity="0.71" d="M75.5878 226.811H39.4849C17.6772 226.811 0 244.488 0 266.295V302.396H37.9879C58.7515 302.396 75.5878 285.561 75.5878 264.798V226.811Z" fill="#8CAD3C"/>
<path d="M151.074 226.811H114.971C93.1635 226.811 75.4863 244.488 75.4863 266.295V302.396H113.474C134.238 302.396 151.074 285.561 151.074 264.798V226.811Z" fill="#8CAD3C"/>
<path d="M226.569 226.811H190.466C168.659 226.811 150.981 244.488 150.981 266.295V302.396H188.969C209.733 302.396 226.569 285.561 226.569 264.798V226.811Z" fill="#8CAD3C"/>
<path d="M302.056 226.811H265.953C244.145 226.811 226.468 244.488 226.468 266.295V302.396H264.456C285.219 302.396 302.056 285.561 302.056 264.798V226.811Z" fill="#8CAD3C"/>
<path opacity="0.6" d="M377.542 226.811H341.439C319.631 226.811 301.954 244.488 301.954 266.295V302.396H339.942C360.706 302.396 377.542 285.561 377.542 264.798V226.811Z" fill="#8CAD3C"/>
<path d="M453.027 226.811H416.924C395.117 226.811 377.439 244.488 377.439 266.295V302.396H415.427C436.191 302.396 453.027 285.561 453.027 264.798V226.811Z" fill="#8CAD3C"/>
<path opacity="0.16" d="M528.514 226.811H492.411C470.603 226.811 452.926 244.488 452.926 266.295V302.396H490.914C511.677 302.396 528.514 285.561 528.514 264.798V226.811Z" fill="#8CAD3C"/>
<path opacity="0.67" d="M75.5878 151.208H39.4849C17.6772 151.208 0 168.884 0 190.691V226.793H37.9879C58.7515 226.793 75.5878 209.957 75.5878 189.194V151.208Z" fill="#8CAD3C"/>
<path opacity="0.71" d="M151.074 151.208H114.971C93.1635 151.208 75.4863 168.884 75.4863 190.691V226.793H113.474C134.238 226.793 151.074 209.957 151.074 189.194V151.208Z" fill="#8CAD3C"/>
<path d="M226.569 151.208H190.466C168.659 151.208 150.981 168.884 150.981 190.691V226.793H188.969C209.733 226.793 226.569 209.957 226.569 189.194V151.208Z" fill="#8CAD3C"/>
<path d="M302.056 151.208H265.953C244.145 151.208 226.468 168.884 226.468 190.691V226.793H264.456C285.219 226.793 302.056 209.957 302.056 189.194V151.208Z" fill="#8CAD3C"/>
<path d="M377.542 151.208H341.439C319.631 151.208 301.954 168.884 301.954 190.691V226.793H339.942C360.706 226.793 377.542 209.957 377.542 189.194V151.208Z" fill="#8CAD3C"/>
<path opacity="0.88" d="M453.027 151.208H416.924C395.117 151.208 377.439 168.884 377.439 190.691V226.793H415.427C436.191 226.793 453.027 209.957 453.027 189.194V151.208Z" fill="#8CAD3C"/>
<path opacity="0.4" d="M528.514 151.208H492.411C470.603 151.208 452.926 168.884 452.926 190.691V226.793H490.914C511.677 226.793 528.514 209.957 528.514 189.194V151.208Z" fill="#8CAD3C"/>
<path opacity="0.5" d="M151.074 75.6038H114.971C93.1635 75.6038 75.4863 93.2804 75.4863 115.087V151.189H113.474C134.238 151.189 151.074 134.353 151.074 113.59V75.6038Z" fill="#8CAD3C"/>
<path d="M226.569 75.6038H190.466C168.659 75.6038 150.981 93.2804 150.981 115.087V151.189H188.969C209.733 151.189 226.569 134.353 226.569 113.59V75.6038Z" fill="#8CAD3C"/>
<path opacity="0.71" d="M302.056 75.6038H265.953C244.145 75.6038 226.468 93.2804 226.468 115.087V151.189H264.456C285.219 151.189 302.056 134.353 302.056 113.59V75.6038Z" fill="#8CAD3C"/>
<path d="M377.542 75.6038H341.439C319.631 75.6038 301.954 93.2804 301.954 115.087V151.189H339.942C360.706 151.189 377.542 134.353 377.542 113.59V75.6038Z" fill="#8CAD3C"/>
<path d="M453.027 75.6038H416.924C395.117 75.6038 377.439 93.2804 377.439 115.087V151.189H415.427C436.191 151.189 453.027 134.353 453.027 113.59V75.6038Z" fill="#8CAD3C"/>
<path opacity="0.88" d="M528.514 75.6038H492.411C470.603 75.6038 452.926 93.2804 452.926 115.087V151.189H490.914C511.677 151.189 528.514 134.353 528.514 113.59V75.6038Z" fill="#8CAD3C"/>
<path opacity="0.4" d="M604 75.6038H567.897C546.089 75.6038 528.412 93.2804 528.412 115.087V151.189H566.4C587.164 151.189 604 134.353 604 113.59V75.6038Z" fill="#8CAD3C"/>
<path opacity="0.5" d="M302.056 0H265.953C244.145 0 226.468 17.6766 226.468 39.4836V75.5852H264.456C285.219 75.5852 302.056 58.7495 302.056 37.9867V0Z" fill="#8CAD3C"/>
<path opacity="0.77" d="M377.542 0H341.439C319.631 0 301.954 17.6766 301.954 39.4836V75.5852H339.942C360.706 75.5852 377.542 58.7495 377.542 37.9867V0Z" fill="#8CAD3C"/>
<path d="M453.027 0H416.924C395.117 0 377.439 17.6766 377.439 39.4836V75.5852H415.427C436.191 75.5852 453.027 58.7495 453.027 37.9867V0Z" fill="#8CAD3C"/>
<path d="M528.514 0H492.411C470.603 0 452.926 17.6766 452.926 39.4836V75.5852H490.914C511.677 75.5852 528.514 58.7495 528.514 37.9867V0Z" fill="#8CAD3C"/>
<path opacity="0.4" d="M604 0H567.897C546.089 0 528.412 17.6766 528.412 39.4836V75.5852H566.4C587.164 75.5852 604 58.7495 604 37.9867V0Z" fill="#8CAD3C"/>
</g>
<defs>
<clipPath id="clip0_614_236">
<rect width="604" height="378" fill="white"/>
</clipPath>
</defs>
</svg>
