<svg width="75" height="75" viewBox="0 0 75 75" fill="none" xmlns="http://www.w3.org/2000/svg">
<path d="M74.5645 0H39.241C22.5719 0 8.3563 10.5583 2.84051 25.3832C1.1736 29.7347 0.255859 34.4534 0.255859 39.3888V74.6051C0.255859 74.7369 0.349506 74.8311 0.471246 74.8311H37.7707C58.2138 74.8311 74.7799 58.1695 74.7799 37.6086V0.216629C74.7799 0.103605 74.6863 0 74.5645 0ZM32.1238 60.2228V68.8691H9.17103L35.5794 42.5534L55.8914 62.9825C50.8813 66.6086 44.7661 68.7844 38.1453 68.8597V60.2228H32.1238ZM34.8583 34.7454L28.9305 40.6603V7.63852C30.8409 7.00747 32.8168 6.54596 34.8583 6.2634V34.736V34.7454ZM45.3936 24.2436V5.962H51.3214V18.3287L45.3936 24.2436ZM18.1798 13.6476V51.3693L12.252 57.2842V20.1559C13.9376 17.7353 15.9323 15.5408 18.1798 13.657V13.6476ZM60.4332 58.9607L39.8684 38.2774L68.8521 9.39039V37.5992C68.8521 45.85 65.6494 53.366 60.4332 58.9607Z" fill="#8CAD3C"/>
</svg>
