<svg width="162" height="114" viewBox="0 0 162 114" fill="none" xmlns="http://www.w3.org/2000/svg">
<g clip-path="url(#clip0_618_484)">
<path d="M23.2693 71.7585C26.244 71.7585 28.594 72.5804 30.3341 74.2169C32.0743 75.8534 32.9444 78.0527 32.9444 80.7926C32.9444 83.6731 32.0446 85.8724 30.2375 87.3904C28.4304 88.9084 25.7978 89.6711 22.3472 89.6711H5.04209V100.705H0.223145V71.7585H23.2693ZM22.429 85.354C26.1473 85.354 28.0139 83.8656 28.0139 80.874C28.0139 77.675 26.0432 76.0756 22.1092 76.0756H5.04209V85.354H22.429Z" fill="white"/>
<path d="M61.7392 100.705H37.8452V76.1126H42.6642V96.3875H61.7392V100.705Z" fill="white"/>
<path d="M97.9556 88.3531C97.9556 92.374 96.2303 95.6544 92.7722 98.1869C89.8273 100.349 86.1462 101.423 81.7288 101.423C77.3114 101.423 73.6154 100.342 70.6482 98.1869C67.1976 95.684 65.4648 92.4036 65.4648 88.3531C65.4648 84.3025 67.205 81.1036 70.6854 78.6007C73.7344 76.3866 77.4155 75.2832 81.7288 75.2832C86.0421 75.2832 89.6786 76.3866 92.7276 78.6007C96.208 81.1332 97.9481 84.384 97.9481 88.3531H97.9556ZM92.9358 88.3308C92.9358 85.7909 91.8873 83.7027 89.7976 82.0588C87.7079 80.4149 85.0084 79.5929 81.7139 79.5929C78.4195 79.5929 75.6754 80.4223 73.5708 82.081C71.4662 83.7397 70.4102 85.8206 70.4102 88.3308C70.4102 90.8411 71.4439 93.0626 73.5039 94.6843C75.5713 96.2986 78.3005 97.1058 81.7065 97.1058C85.1125 97.1058 87.7971 96.2986 89.8496 94.6843C91.9021 93.0701 92.9284 90.9522 92.9284 88.3308H92.9358Z" fill="white"/>
<path d="M130.119 80.4371H118.317V100.712H113.498V80.4371H101.696V76.12H130.127V80.4371H130.119Z" fill="white"/>
<path d="M157.702 82.1921C154.489 80.5112 150.994 79.6744 147.223 79.6744C141.735 79.6744 138.991 80.6444 138.991 82.592C138.991 83.7397 140.025 84.4876 142.085 84.8283C144.896 85.0652 147.707 85.3244 150.518 85.591C154.556 85.9909 157.434 86.7091 159.152 87.7532C161.056 88.901 162 90.6486 162 92.9886C162 95.6248 160.818 97.6685 158.445 99.1051C156.073 100.542 152.645 101.267 148.146 101.267C141.802 101.267 136.73 99.8308 132.93 96.9503L135.54 93.5514C138.939 95.921 143.118 97.1132 148.071 97.1132C150.853 97.1132 153.009 96.7577 154.534 96.0543C156.058 95.3508 156.824 94.4103 156.824 93.233C156.824 91.9297 155.887 91.0114 154.013 90.4709C152.972 90.1747 151.351 89.9747 149.157 89.8711C145.729 89.7082 143.632 89.5897 142.851 89.5082C139.802 89.212 137.548 88.5604 136.106 87.5459C134.663 86.5314 133.934 85.0504 133.934 83.1103C133.934 80.7629 135.094 78.9043 137.407 77.5343C139.72 76.1644 142.97 75.4758 147.142 75.4758C152.712 75.4758 157.218 76.6754 160.676 79.0746L157.702 82.1921Z" fill="white"/>
<path d="M0.178592 109.25C0.416565 108.924 0.833017 108.687 1.30896 108.687C2.13443 108.687 2.64012 109.198 2.64012 109.842C2.64012 110.213 2.41702 110.531 2.17161 110.679C2.58807 110.82 2.8781 111.205 2.8781 111.709C2.8781 112.419 2.27573 113.012 1.36102 113.012C0.885074 113.012 0.290142 112.804 -0.00732422 112.39L0.245522 112.034H0.305015C0.550425 112.353 0.989187 112.53 1.36846 112.53C2.00801 112.53 2.35753 112.145 2.35753 111.709C2.35753 111.309 2.07494 111.005 1.59156 111.005H0.885074L0.855327 110.975V110.576L0.885074 110.546H1.53206C1.81466 110.546 2.11956 110.272 2.11956 109.879C2.11956 109.487 1.79235 109.161 1.30896 109.161C0.996624 109.161 0.691721 109.309 0.505805 109.531H0.446311L0.178592 109.243V109.25Z" fill="white"/>
<path d="M7.21345 108.776L7.2432 108.806V109.206L7.21345 109.235H5.27992V110.413H6.7375L6.76725 110.442V110.842L6.7375 110.872H5.27992V112.471H7.39193L7.42168 112.501V112.901L7.39193 112.93H4.84859L4.81885 112.901V108.806L4.84859 108.776H7.21345Z" fill="white"/>
<path d="M9.7646 108.776L9.82409 108.806L11.3709 110.709L12.9177 108.806L12.9772 108.776H13.3565L13.3862 108.806V112.901L13.3565 112.93H12.9549L12.9252 112.901V109.465L11.3932 111.346H11.3337L9.80922 109.465V112.901L9.77947 112.93H9.37789L9.34814 112.901V108.806L9.37789 108.776H9.75716H9.7646Z" fill="white"/>
<path d="M18.8964 108.776L18.9261 108.806V112.901L18.8964 112.93H18.4948L18.4651 112.901V109.235H16.8588L16.3977 112.16C16.2787 112.686 15.9069 113.019 15.2822 113.019L15.2524 112.982V112.612L15.2822 112.582C15.6391 112.582 15.8697 112.353 15.9589 111.938L16.4497 108.798L16.4795 108.769H18.9038L18.8964 108.776Z" fill="white"/>
<path d="M23.7826 108.806V112.901L23.7529 112.93H23.3513L23.3216 112.901V111.086H22.682L21.3137 112.901L21.2839 112.93H20.7485L20.7188 112.901L22.1317 110.998C21.6632 110.835 21.3211 110.457 21.3211 109.931C21.3211 109.25 21.8417 108.783 22.6523 108.783H23.7455L23.7752 108.813L23.7826 108.806ZM22.6597 109.235C22.1466 109.235 21.8491 109.494 21.8491 109.931C21.8491 110.39 22.2135 110.627 22.6969 110.627H23.329V109.243H22.6597V109.235Z" fill="white"/>
<path d="M26.4971 112.434L26.5268 112.464V112.901C26.5268 113.301 26.3112 113.545 25.917 113.545C25.8724 113.545 25.8427 113.545 25.7534 113.515V113.486C25.9616 113.441 26.0658 113.234 26.0658 112.93V112.464L26.0955 112.434H26.4971Z" fill="white"/>
<path d="M33.941 108.776L33.9707 108.806V109.206L33.941 109.235H32.0075V112.901L31.9777 112.93H31.5761L31.5464 112.901V108.806L31.5761 108.776H33.941Z" fill="white"/>
<path d="M38.3879 108.776L38.4176 108.806V112.471H38.8638L38.8936 112.501V113.967L38.8638 113.997H38.4622L38.4325 113.967V112.93H35.3165V113.967L35.2868 113.997H34.8852L34.8555 113.967V112.501L34.8852 112.471H35.3017C35.4058 112.353 35.495 112.138 35.5545 111.827L35.8669 108.806L35.8966 108.776H38.3804H38.3879ZM36.023 111.931C35.9858 112.168 35.9338 112.39 35.8743 112.471H37.9566V109.235H36.2907L36.023 111.931Z" fill="white"/>
<path d="M43.2667 108.776L43.2964 108.806V109.206L43.2667 109.235H41.3331V110.413H42.7907L42.8205 110.442V110.842L42.7907 110.872H41.3331V112.471H43.4452L43.4749 112.501V112.901L43.4452 112.93H40.9018L40.8721 112.901V108.806L40.9018 108.776H43.2667Z" fill="white"/>
<path d="M48.5763 108.776L48.6061 108.806V110.413H51.0081V108.806L51.0379 108.776H51.4395L51.4692 108.806V112.901L51.4395 112.93H51.0379L51.0081 112.901V110.879H48.6061V112.901L48.5763 112.93H48.1748L48.145 112.901V108.806L48.1748 108.776H48.5763Z" fill="white"/>
<path d="M55.3661 108.776L55.3958 108.806L57.0616 112.901L57.0319 112.93H56.5931L56.5634 112.901L56.1172 111.812H54.2134L53.7746 112.901L53.7449 112.93H53.3061L53.2764 112.901L54.9347 108.806L54.9645 108.776H55.3809H55.3661ZM54.3919 111.36H55.9387L55.1653 109.405L54.3993 111.36H54.3919Z" fill="white"/>
<path d="M58.5119 108.776L58.5416 108.806V109.613C58.5416 110.501 58.9358 110.931 59.6348 110.931C60.0662 110.931 60.438 110.761 60.6388 110.494V108.813L60.6685 108.783H61.0701L61.0999 108.813V112.908L61.0701 112.938H60.6685L60.6388 112.908V111.072C60.4008 111.279 59.9844 111.412 59.6348 111.412C58.6978 111.412 58.0806 110.82 58.0806 109.724V108.813L58.1103 108.783H58.5119V108.776Z" fill="white"/>
<path d="M63.7472 108.776L63.777 108.806V112.197L66.3575 108.806L66.417 108.776H66.8483L66.8781 108.806V112.901L66.8483 112.93H66.4467L66.417 112.901V109.509L63.829 112.901L63.7696 112.93H63.3457L63.3159 112.901V108.806L63.3457 108.776H63.7472Z" fill="white"/>
<path d="M69.5178 108.776L69.5475 108.806V110.413H71.9495V108.806L71.9793 108.776H72.3809L72.4106 108.806V112.901L72.3809 112.93H71.9793L71.9495 112.901V110.879H69.5475V112.901L69.5178 112.93H69.1162L69.0864 112.901V108.806L69.1162 108.776H69.5178Z" fill="white"/>
<path d="M76.3075 108.776L76.3372 108.806L78.003 112.901L77.9733 112.93H77.5345L77.5048 112.901L77.0586 111.812H75.1548L74.716 112.901L74.6863 112.93H74.2475L74.2178 112.901L75.8761 108.806L75.9059 108.776H76.3223H76.3075ZM75.3333 111.36H76.8801L76.1067 109.405L75.3407 111.36H75.3333Z" fill="white"/>
<path d="M82.19 108.776L82.2198 108.806V109.206L82.19 109.235H80.2565V110.413H81.7141L81.7438 110.442V110.842L81.7141 110.872H80.2565V112.471H82.3685L82.3982 112.501V112.901L82.3685 112.93H79.8252L79.7954 112.901V108.806L79.8252 108.776H82.19Z" fill="white"/>
<path d="M87.2765 108.776L87.3062 108.806V109.206L87.2765 109.235H85.871V112.901L85.8412 112.93H85.4396L85.4099 112.901V109.235H84.0044L83.9746 109.206V108.806L84.0044 108.776H87.2839H87.2765Z" fill="white"/>
<path d="M92.0954 109.687C91.6939 109.361 91.203 109.169 90.6973 109.169C89.7752 109.169 89.0167 109.916 89.0167 110.849C89.0167 111.782 89.7752 112.53 90.6973 112.53C91.203 112.53 91.7013 112.338 92.0954 112.012L92.1252 112.042V112.56C91.7385 112.841 91.2625 113.004 90.6973 113.004C89.4777 113.004 88.4961 112.027 88.4961 110.842C88.4961 109.657 89.4777 108.68 90.6973 108.68C91.2625 108.68 91.7385 108.843 92.1252 109.124V109.642L92.0954 109.672V109.687Z" fill="white"/>
<path d="M96.7436 108.806V112.901L96.7138 112.93H96.3123L96.2825 112.901V111.086H95.643L94.2746 112.901L94.2449 112.93H93.7094L93.6797 112.901L95.0927 110.998C94.6241 110.835 94.2821 110.457 94.2821 109.931C94.2821 109.25 94.8026 108.783 95.6132 108.783H96.7064L96.7362 108.813L96.7436 108.806ZM95.6207 109.235C95.1075 109.235 94.8101 109.494 94.8101 109.931C94.8101 110.39 95.1745 110.627 95.6578 110.627H96.2899V109.243H95.6207V109.235Z" fill="white"/>
<path d="M104.886 109.687C104.485 109.361 103.994 109.169 103.488 109.169C102.566 109.169 101.808 109.916 101.808 110.849C101.808 111.782 102.566 112.53 103.488 112.53C103.994 112.53 104.492 112.338 104.886 112.012L104.916 112.042V112.56C104.529 112.841 104.054 113.004 103.488 113.004C102.269 113.004 101.287 112.027 101.287 110.842C101.287 109.657 102.269 108.68 103.488 108.68C104.054 108.68 104.529 108.843 104.916 109.124V109.642L104.886 109.672V109.687Z" fill="white"/>
<path d="M107.37 108.776L107.4 108.806V109.613C107.4 110.501 107.794 110.931 108.493 110.931C108.925 110.931 109.296 110.761 109.497 110.494V108.813L109.527 108.783H109.929L109.958 108.813V112.908L109.929 112.938H109.527L109.497 112.908V111.072C109.259 111.279 108.843 111.412 108.493 111.412C107.556 111.412 106.939 110.82 106.939 109.724V108.813L106.969 108.783H107.37V108.776Z" fill="white"/>
<path d="M113.863 108.776L113.892 108.806L115.558 112.901L115.528 112.93H115.09L115.06 112.901L114.614 111.812H112.71L112.271 112.901L112.241 112.93H111.803L111.773 112.901L113.431 108.806L113.461 108.776H113.878H113.863ZM112.888 111.36H114.428L113.654 109.405L112.888 111.36Z" fill="white"/>
<path d="M120.518 109.687C120.117 109.361 119.626 109.169 119.12 109.169C118.198 109.169 117.44 109.916 117.44 110.849C117.44 111.782 118.198 112.53 119.12 112.53C119.626 112.53 120.124 112.338 120.518 112.012L120.548 112.042V112.56C120.161 112.841 119.685 113.004 119.12 113.004C117.901 113.004 116.919 112.027 116.919 110.842C116.919 109.657 117.901 108.68 119.12 108.68C119.685 108.68 120.161 108.843 120.548 109.124V109.642L120.518 109.672V109.687Z" fill="white"/>
<path d="M125.612 108.776L125.642 108.806V109.206L125.612 109.235H124.207V112.901L124.177 112.93H123.776L123.746 112.901V109.235H122.34L122.311 109.206V108.806L122.34 108.776H125.62H125.612Z" fill="white"/>
<path d="M127.948 108.776L127.978 108.806V110.413H128.825C129.681 110.413 130.223 110.968 130.223 111.679C130.223 112.39 129.673 112.93 128.825 112.93H127.554L127.524 112.901V108.806L127.554 108.776H127.955H127.948ZM127.978 112.471H128.825C129.376 112.471 129.703 112.131 129.703 111.679C129.703 111.197 129.376 110.879 128.825 110.879H127.978V112.479V112.471Z" fill="white"/>
<path d="M134.596 108.776L134.626 108.806V109.206L134.596 109.235H132.663V110.413H134.12L134.15 110.442V110.842L134.12 110.872H132.663V112.471H134.775L134.804 112.501V112.901L134.775 112.93H132.231L132.202 112.901V108.806L132.231 108.776H134.596Z" fill="white"/>
<path d="M97.3311 -0.00341797H69.2801C56.0428 -0.00341797 44.754 8.29759 40.3738 19.9531C39.0501 23.3742 38.3213 27.0841 38.3213 30.9643V58.6516C38.3213 58.7553 38.3957 58.8293 38.4923 58.8293H68.1125C84.3467 58.8293 97.5022 45.7299 97.5022 29.5648V0.166897C97.5022 0.0780371 97.4278 -0.00341797 97.3311 -0.00341797ZM63.6282 47.3442V54.142H45.401L66.3723 33.4524L82.5024 49.5138C78.5238 52.3648 73.6677 54.0753 68.41 54.1345V47.3442H63.6282ZM65.7997 27.3136L61.0923 31.964V6.00204C62.6094 5.5059 64.1785 5.14306 65.7997 4.92091V27.3062V27.3136ZM74.166 19.0571V4.68395H78.8733V14.4067L74.166 19.0571ZM52.555 10.7264V40.3835L47.8476 45.0338V15.8433C49.1862 13.9402 50.7702 12.2148 52.555 10.7338V10.7264ZM86.1092 46.3519L69.7783 30.0905L92.7948 7.37937V29.5573C92.7948 36.0441 90.2514 41.9533 86.1092 46.3519Z" fill="#8CAD3C"/>
</g>
<defs>
<clipPath id="clip0_618_484">
<rect width="162" height="114" fill="white" transform="translate(0 -0.00341797)"/>
</clipPath>
</defs>
</svg>
