<svg width="590" height="500" viewBox="0 0 590 500" fill="none" xmlns="http://www.w3.org/2000/svg">
<path opacity="0.25" d="M23.6359 454.731H45.2473V477.482C45.2473 489.917 35.169 500 22.7398 500H0V478.378C0 465.317 10.5817 454.731 23.6359 454.731ZM45.3137 478.378V500H68.0535C80.4826 500 90.5609 489.917 90.5609 477.482V454.731H68.9495C55.8953 454.731 45.3137 465.317 45.3137 478.378ZM90.6273 478.378V500H113.367C125.796 500 135.875 489.917 135.875 477.482V454.731H114.263C101.209 454.731 90.6273 465.317 90.6273 478.378ZM135.941 478.378V500H158.681C171.11 500 181.188 489.917 181.188 477.482V454.731H159.577C146.523 454.731 135.941 465.317 135.941 478.378ZM181.255 478.378V500H203.994C216.424 500 226.502 489.917 226.502 477.482V454.731H204.891C191.836 454.731 181.255 465.317 181.255 478.378ZM226.568 478.378V500H249.308C261.737 500 271.816 489.917 271.816 477.482V454.731H250.204C237.15 454.731 226.568 465.317 226.568 478.378ZM271.882 478.378V500H294.622C307.051 500 317.129 489.917 317.129 477.482V454.731H295.518C282.464 454.731 271.882 465.317 271.882 478.378ZM317.196 478.378V500H339.935C352.365 500 362.443 489.917 362.443 477.482V454.731H340.831C327.777 454.731 317.196 465.317 317.196 478.378ZM362.509 478.378V500H385.249C397.678 500 407.756 489.917 407.756 477.482V454.731H386.145C373.091 454.731 362.509 465.317 362.509 478.378ZM407.823 478.378V500H430.563C442.992 500 453.07 489.917 453.07 477.482V454.731H431.459C418.405 454.731 407.823 465.317 407.823 478.378ZM453.137 478.378V500H475.876C488.305 500 498.384 489.917 498.384 477.482V454.731H476.772C463.718 454.731 453.137 465.317 453.137 478.378ZM498.45 478.378V500H521.19C533.619 500 543.697 489.917 543.697 477.482V454.731H522.086C509.032 454.731 498.45 465.317 498.45 478.378ZM543.764 478.378V500H566.504C578.933 500 589.011 489.917 589.011 477.482V454.731H567.4C554.346 454.731 543.764 465.317 543.764 478.378ZM0 432.904V454.526H22.7398C35.169 454.526 45.2473 444.443 45.2473 432.007V409.256H23.6359C10.5817 409.256 0 419.843 0 432.904ZM45.3137 432.904V454.526H68.0535C80.4826 454.526 90.5609 444.443 90.5609 432.007V409.256H68.9495C55.8953 409.256 45.3137 419.843 45.3137 432.904ZM90.6273 432.904V454.526H113.367C125.796 454.526 135.875 444.443 135.875 432.007V409.256H114.263C101.209 409.256 90.6273 419.843 90.6273 432.904ZM135.941 432.904V454.526H158.681C171.11 454.526 181.188 444.443 181.188 432.007V409.256H159.577C146.523 409.256 135.941 419.843 135.941 432.904ZM181.255 432.904V454.526H203.994C216.424 454.526 226.502 444.443 226.502 432.007V409.256H204.891C191.836 409.256 181.255 419.843 181.255 432.904ZM226.568 432.904V454.526H249.308C261.737 454.526 271.816 444.443 271.816 432.007V409.256H250.204C237.15 409.256 226.568 419.843 226.568 432.904ZM271.882 432.904V454.526H294.622C307.051 454.526 317.129 444.443 317.129 432.007V409.256H295.518C282.464 409.256 271.882 419.843 271.882 432.904ZM317.196 432.904V454.526H339.935C352.365 454.526 362.443 444.443 362.443 432.007V409.256H340.831C327.777 409.256 317.196 419.843 317.196 432.904ZM362.509 432.904V454.526H385.249C397.678 454.526 407.756 444.443 407.756 432.007V409.256H386.145C373.091 409.256 362.509 419.843 362.509 432.904ZM407.823 432.904V454.526H430.563C442.992 454.526 453.07 444.443 453.07 432.007V409.256H431.459C418.405 409.256 407.823 419.843 407.823 432.904ZM453.137 432.904V454.526H475.876C488.305 454.526 498.384 444.443 498.384 432.007V409.256H476.772C463.718 409.256 453.137 419.843 453.137 432.904ZM498.45 432.904V454.526H521.19C533.619 454.526 543.697 444.443 543.697 432.007V409.256H522.086C509.032 409.256 498.45 419.843 498.45 432.904ZM543.764 432.904V454.526H566.504C578.933 454.526 589.011 444.443 589.011 432.007V409.256H567.4C554.346 409.256 543.764 419.843 543.764 432.904ZM0 387.43V409.052H22.7398C35.169 409.052 45.2473 398.968 45.2473 386.533V363.782H23.6359C10.5817 363.782 0 374.369 0 387.43ZM45.3137 387.43V409.052H68.0535C80.4826 409.052 90.5609 398.968 90.5609 386.533V363.782H68.9495C55.8953 363.782 45.3137 374.369 45.3137 387.43ZM90.6273 387.43V409.052H113.367C125.796 409.052 135.875 398.968 135.875 386.533V363.782H114.263C101.209 363.782 90.6273 374.369 90.6273 387.43ZM135.941 387.43V409.052H158.681C171.11 409.052 181.188 398.968 181.188 386.533V363.782H159.577C146.523 363.782 135.941 374.369 135.941 387.43ZM181.255 387.43V409.052H203.994C216.424 409.052 226.502 398.968 226.502 386.533V363.782H204.891C191.836 363.782 181.255 374.369 181.255 387.43ZM226.568 387.43V409.052H249.308C261.737 409.052 271.816 398.968 271.816 386.533V363.782H250.204C237.15 363.782 226.568 374.369 226.568 387.43ZM271.882 387.43V409.052H294.622C307.051 409.052 317.129 398.968 317.129 386.533V363.782H295.518C282.464 363.782 271.882 374.369 271.882 387.43ZM317.196 387.43V409.052H339.935C352.365 409.052 362.443 398.968 362.443 386.533V363.782H340.831C327.777 363.782 317.196 374.369 317.196 387.43ZM362.509 387.43V409.052H385.249C397.678 409.052 407.756 398.968 407.756 386.533V363.782H386.145C373.091 363.782 362.509 374.369 362.509 387.43ZM407.823 387.43V409.052H430.563C442.992 409.052 453.07 398.968 453.07 386.533V363.782H431.459C418.405 363.782 407.823 374.369 407.823 387.43ZM453.137 387.43V409.052H475.876C488.305 409.052 498.384 398.968 498.384 386.533V363.782H476.772C463.718 363.782 453.137 374.369 453.137 387.43ZM498.45 387.43V409.052H521.19C533.619 409.052 543.697 398.968 543.697 386.533V363.782H522.086C509.032 363.782 498.45 374.369 498.45 387.43ZM543.764 387.43V409.052H566.504C578.933 409.052 589.011 398.968 589.011 386.533V363.782H567.4C554.346 363.782 543.764 374.369 543.764 387.43ZM0 341.956V363.578H22.7398C35.169 363.578 45.2473 353.494 45.2473 341.059V318.308H23.6359C10.5817 318.308 0 328.895 0 341.956ZM45.3137 341.956V363.578H68.0535C80.4826 363.578 90.5609 353.494 90.5609 341.059V318.308H68.9495C55.8953 318.308 45.3137 328.895 45.3137 341.956ZM90.6273 341.956V363.578H113.367C125.796 363.578 135.875 353.494 135.875 341.059V318.308H114.263C101.209 318.308 90.6273 328.895 90.6273 341.956ZM135.941 341.956V363.578H158.681C171.11 363.578 181.188 353.494 181.188 341.059V318.308H159.577C146.523 318.308 135.941 328.895 135.941 341.956ZM181.255 341.956V363.578H203.994C216.424 363.578 226.502 353.494 226.502 341.059V318.308H204.891C191.836 318.308 181.255 328.895 181.255 341.956ZM226.568 341.956V363.578H249.308C261.737 363.578 271.816 353.494 271.816 341.059V318.308H250.204C237.15 318.308 226.568 328.895 226.568 341.956ZM271.882 341.956V363.578H294.622C307.051 363.578 317.129 353.494 317.129 341.059V318.308H295.518C282.464 318.308 271.882 328.895 271.882 341.956ZM317.196 341.956V363.578H339.935C352.365 363.578 362.443 353.494 362.443 341.059V318.308H340.831C327.777 318.308 317.196 328.895 317.196 341.956ZM362.509 341.956V363.578H385.249C397.678 363.578 407.756 353.494 407.756 341.059V318.308H386.145C373.091 318.308 362.509 328.895 362.509 341.956ZM407.823 341.956V363.578H430.563C442.992 363.578 453.07 353.494 453.07 341.059V318.308H431.459C418.405 318.308 407.823 328.895 407.823 341.956ZM453.137 341.956V363.578H475.876C488.305 363.578 498.384 353.494 498.384 341.059V318.308H476.772C463.718 318.308 453.137 328.895 453.137 341.956ZM498.45 341.956V363.578H521.19C533.619 363.578 543.697 353.494 543.697 341.059V318.308H522.086C509.032 318.308 498.45 328.895 498.45 341.956ZM543.764 341.956V363.578H566.504C578.933 363.578 589.011 353.494 589.011 341.059V318.308H567.4C554.346 318.308 543.764 328.895 543.764 341.956ZM0 296.487V318.109H22.7398C35.169 318.109 45.2473 308.026 45.2473 295.59V272.839H23.6359C10.5817 272.839 0 283.426 0 296.487ZM45.3137 296.487V318.109H68.0535C80.4826 318.109 90.5609 308.026 90.5609 295.59V272.839H68.9495C55.8953 272.839 45.3137 283.426 45.3137 296.487ZM90.6273 296.487V318.109H113.367C125.796 318.109 135.875 308.026 135.875 295.59V272.839H114.263C101.209 272.839 90.6273 283.426 90.6273 296.487ZM135.941 296.487V318.109H158.681C171.11 318.109 181.188 308.026 181.188 295.59V272.839H159.577C146.523 272.839 135.941 283.426 135.941 296.487ZM181.255 296.487V318.109H203.994C216.424 318.109 226.502 308.026 226.502 295.59V272.839H204.891C191.836 272.839 181.255 283.426 181.255 296.487ZM226.568 296.487V318.109H249.308C261.737 318.109 271.816 308.026 271.816 295.59V272.839H250.204C237.15 272.839 226.568 283.426 226.568 296.487ZM271.882 296.487V318.109H294.622C307.051 318.109 317.129 308.026 317.129 295.59V272.839H295.518C282.464 272.839 271.882 283.426 271.882 296.487ZM317.196 296.487V318.109H339.935C352.365 318.109 362.443 308.026 362.443 295.59V272.839H340.831C327.777 272.839 317.196 283.426 317.196 296.487ZM362.509 296.487V318.109H385.249C397.678 318.109 407.756 308.026 407.756 295.59V272.839H386.145C373.091 272.839 362.509 283.426 362.509 296.487ZM407.823 296.487V318.109H430.563C442.992 318.109 453.07 308.026 453.07 295.59V272.839H431.459C418.405 272.839 407.823 283.426 407.823 296.487ZM453.137 296.487V318.109H475.876C488.305 318.109 498.384 308.026 498.384 295.59V272.839H476.772C463.718 272.839 453.137 283.426 453.137 296.487ZM498.45 296.487V318.109H521.19C533.619 318.109 543.697 308.026 543.697 295.59V272.839H522.086C509.032 272.839 498.45 283.426 498.45 296.487ZM543.764 296.487V318.109H566.504C578.933 318.109 589.011 308.026 589.011 295.59V272.839H567.4C554.346 272.839 543.764 283.426 543.764 296.487ZM0 251.013V272.635H22.7398C35.169 272.635 45.2473 262.551 45.2473 250.116V227.365H23.6359C10.5817 227.365 0 237.952 0 251.013ZM45.3137 251.013V272.635H68.0535C80.4826 272.635 90.5609 262.551 90.5609 250.116V227.365H68.9495C55.8953 227.365 45.3137 237.952 45.3137 251.013ZM90.6273 251.013V272.635H113.367C125.796 272.635 135.875 262.551 135.875 250.116V227.365H114.263C101.209 227.365 90.6273 237.952 90.6273 251.013ZM135.941 251.013V272.635H158.681C171.11 272.635 181.188 262.551 181.188 250.116V227.365H159.577C146.523 227.365 135.941 237.952 135.941 251.013ZM181.255 251.013V272.635H203.994C216.424 272.635 226.502 262.551 226.502 250.116V227.365H204.891C191.836 227.365 181.255 237.952 181.255 251.013ZM226.568 251.013V272.635H249.308C261.737 272.635 271.816 262.551 271.816 250.116V227.365H250.204C237.15 227.365 226.568 237.952 226.568 251.013ZM271.882 251.013V272.635H294.622C307.051 272.635 317.129 262.551 317.129 250.116V227.365H295.518C282.464 227.365 271.882 237.952 271.882 251.013ZM317.196 251.013V272.635H339.935C352.365 272.635 362.443 262.551 362.443 250.116V227.365H340.831C327.777 227.365 317.196 237.952 317.196 251.013ZM362.509 251.013V272.635H385.249C397.678 272.635 407.756 262.551 407.756 250.116V227.365H386.145C373.091 227.365 362.509 237.952 362.509 251.013ZM407.823 251.013V272.635H430.563C442.992 272.635 453.07 262.551 453.07 250.116V227.365H431.459C418.405 227.365 407.823 237.952 407.823 251.013ZM453.137 251.013V272.635H475.876C488.305 272.635 498.384 262.551 498.384 250.116V227.365H476.772C463.718 227.365 453.137 237.952 453.137 251.013ZM498.45 251.013V272.635H521.19C533.619 272.635 543.697 262.551 543.697 250.116V227.365H522.086C509.032 227.365 498.45 237.952 498.45 251.013ZM543.764 251.013V272.635H566.504C578.933 272.635 589.011 262.551 589.011 250.116V227.365H567.4C554.346 227.365 543.764 237.952 543.764 251.013ZM0 205.539V227.161H22.7398C35.169 227.161 45.2473 217.077 45.2473 204.642V181.891H23.6359C10.5817 181.891 0 192.478 0 205.539ZM45.3137 205.539V227.161H68.0535C80.4826 227.161 90.5609 217.077 90.5609 204.642V181.891H68.9495C55.8953 181.891 45.3137 192.478 45.3137 205.539ZM90.6273 205.539V227.161H113.367C125.796 227.161 135.875 217.077 135.875 204.642V181.891H114.263C101.209 181.891 90.6273 192.478 90.6273 205.539ZM135.941 205.539V227.161H158.681C171.11 227.161 181.188 217.077 181.188 204.642V181.891H159.577C146.523 181.891 135.941 192.478 135.941 205.539ZM181.255 205.539V227.161H203.994C216.424 227.161 226.502 217.077 226.502 204.642V181.891H204.891C191.836 181.891 181.255 192.478 181.255 205.539ZM226.568 205.539V227.161H249.308C261.737 227.161 271.816 217.077 271.816 204.642V181.891H250.204C237.15 181.891 226.568 192.478 226.568 205.539ZM271.882 205.539V227.161H294.622C307.051 227.161 317.129 217.077 317.129 204.642V181.891H295.518C282.464 181.891 271.882 192.478 271.882 205.539ZM317.196 205.539V227.161H339.935C352.365 227.161 362.443 217.077 362.443 204.642V181.891H340.831C327.777 181.891 317.196 192.478 317.196 205.539ZM362.509 205.539V227.161H385.249C397.678 227.161 407.756 217.077 407.756 204.642V181.891H386.145C373.091 181.891 362.509 192.478 362.509 205.539ZM407.823 205.539V227.161H430.563C442.992 227.161 453.07 217.077 453.07 204.642V181.891H431.459C418.405 181.891 407.823 192.478 407.823 205.539ZM453.137 205.539V227.161H475.876C488.305 227.161 498.384 217.077 498.384 204.642V181.891H476.772C463.718 181.891 453.137 192.478 453.137 205.539ZM498.45 205.539V227.161H521.19C533.619 227.161 543.697 217.077 543.697 204.642V181.891H522.086C509.032 181.891 498.45 192.478 498.45 205.539ZM543.764 205.539V227.161H566.504C578.933 227.161 589.011 217.077 589.011 204.642V181.891H567.4C554.346 181.891 543.764 192.478 543.764 205.539ZM0 160.064V181.686H22.7398C35.169 181.686 45.2473 171.603 45.2473 159.168V136.417H23.6359C10.5817 136.417 0 147.004 0 160.064ZM45.3137 160.064V181.686H68.0535C80.4826 181.686 90.5609 171.603 90.5609 159.168V136.417H68.9495C55.8953 136.417 45.3137 147.004 45.3137 160.064ZM90.6273 160.064V181.686H113.367C125.796 181.686 135.875 171.603 135.875 159.168V136.417H114.263C101.209 136.417 90.6273 147.004 90.6273 160.064ZM135.941 160.064V181.686H158.681C171.11 181.686 181.188 171.603 181.188 159.168V136.417H159.577C146.523 136.417 135.941 147.004 135.941 160.064ZM181.255 160.064V181.686H203.994C216.424 181.686 226.502 171.603 226.502 159.168V136.417H204.891C191.836 136.417 181.255 147.004 181.255 160.064ZM226.568 160.064V181.686H249.308C261.737 181.686 271.816 171.603 271.816 159.168V136.417H250.204C237.15 136.417 226.568 147.004 226.568 160.064ZM271.882 160.064V181.686H294.622C307.051 181.686 317.129 171.603 317.129 159.168V136.417H295.518C282.464 136.417 271.882 147.004 271.882 160.064ZM317.196 160.064V181.686H339.935C352.365 181.686 362.443 171.603 362.443 159.168V136.417H340.831C327.777 136.417 317.196 147.004 317.196 160.064ZM362.509 160.064V181.686H385.249C397.678 181.686 407.756 171.603 407.756 159.168V136.417H386.145C373.091 136.417 362.509 147.004 362.509 160.064ZM407.823 160.064V181.686H430.563C442.992 181.686 453.07 171.603 453.07 159.168V136.417H431.459C418.405 136.417 407.823 147.004 407.823 160.064ZM453.137 160.064V181.686H475.876C488.305 181.686 498.384 171.603 498.384 159.168V136.417H476.772C463.718 136.417 453.137 147.004 453.137 160.064ZM498.45 160.064V181.686H521.19C533.619 181.686 543.697 171.603 543.697 159.168V136.417H522.086C509.032 136.417 498.45 147.004 498.45 160.064ZM543.764 160.064V181.686H566.504C578.933 181.686 589.011 171.603 589.011 159.168V136.417H567.4C554.346 136.417 543.764 147.004 543.764 160.064ZM0 114.596V136.218H22.7398C35.169 136.218 45.2473 126.135 45.2473 113.699V90.9483H23.6359C10.5817 90.9483 0 101.535 0 114.596ZM45.3137 114.596V136.218H68.0535C80.4826 136.218 90.5609 126.135 90.5609 113.699V90.9483H68.9495C55.8953 90.9483 45.3137 101.535 45.3137 114.596ZM90.6273 114.596V136.218H113.367C125.796 136.218 135.875 126.135 135.875 113.699V90.9483H114.263C101.209 90.9483 90.6273 101.535 90.6273 114.596ZM135.941 114.596V136.218H158.681C171.11 136.218 181.188 126.135 181.188 113.699V90.9483H159.577C146.523 90.9483 135.941 101.535 135.941 114.596ZM181.255 114.596V136.218H203.994C216.424 136.218 226.502 126.135 226.502 113.699V90.9483H204.891C191.836 90.9483 181.255 101.535 181.255 114.596ZM226.568 114.596V136.218H249.308C261.737 136.218 271.816 126.135 271.816 113.699V90.9483H250.204C237.15 90.9483 226.568 101.535 226.568 114.596ZM271.882 114.596V136.218H294.622C307.051 136.218 317.129 126.135 317.129 113.699V90.9483H295.518C282.464 90.9483 271.882 101.535 271.882 114.596ZM317.196 114.596V136.218H339.935C352.365 136.218 362.443 126.135 362.443 113.699V90.9483H340.831C327.777 90.9483 317.196 101.535 317.196 114.596ZM362.509 114.596V136.218H385.249C397.678 136.218 407.756 126.135 407.756 113.699V90.9483H386.145C373.091 90.9483 362.509 101.535 362.509 114.596ZM407.823 114.596V136.218H430.563C442.992 136.218 453.07 126.135 453.07 113.699V90.9483H431.459C418.405 90.9483 407.823 101.535 407.823 114.596ZM453.137 114.596V136.218H475.876C488.305 136.218 498.384 126.135 498.384 113.699V90.9483H476.772C463.718 90.9483 453.137 101.535 453.137 114.596ZM498.45 114.596V136.218H521.19C533.619 136.218 543.697 126.135 543.697 113.699V90.9483H522.086C509.032 90.9483 498.45 101.535 498.45 114.596ZM543.764 114.596V136.218H566.504C578.933 136.218 589.011 126.135 589.011 113.699V90.9483H567.4C554.346 90.9483 543.764 101.535 543.764 114.596ZM0 69.1216V90.7436H22.7398C35.169 90.7436 45.2473 80.6603 45.2473 68.2251V45.4742H23.6359C10.5817 45.4742 0 56.061 0 69.1216ZM45.3137 69.1216V90.7436H68.0535C80.4826 90.7436 90.5609 80.6603 90.5609 68.2251V45.4742H68.9495C55.8953 45.4742 45.3137 56.061 45.3137 69.1216ZM90.6273 69.1216V90.7436H113.367C125.796 90.7436 135.875 80.6603 135.875 68.2251V45.4742H114.263C101.209 45.4742 90.6273 56.061 90.6273 69.1216ZM135.941 69.1216V90.7436H158.681C171.11 90.7436 181.188 80.6603 181.188 68.2251V45.4742H159.577C146.523 45.4742 135.941 56.061 135.941 69.1216ZM181.255 69.1216V90.7436H203.994C216.424 90.7436 226.502 80.6603 226.502 68.2251V45.4742H204.891C191.836 45.4742 181.255 56.061 181.255 69.1216ZM226.568 69.1216V90.7436H249.308C261.737 90.7436 271.816 80.6603 271.816 68.2251V45.4742H250.204C237.15 45.4742 226.568 56.061 226.568 69.1216ZM271.882 69.1216V90.7436H294.622C307.051 90.7436 317.129 80.6603 317.129 68.2251V45.4742H295.518C282.464 45.4742 271.882 56.061 271.882 69.1216ZM317.196 69.1216V90.7436H339.935C352.365 90.7436 362.443 80.6603 362.443 68.2251V45.4742H340.831C327.777 45.4742 317.196 56.061 317.196 69.1216ZM362.509 69.1216V90.7436H385.249C397.678 90.7436 407.756 80.6603 407.756 68.2251V45.4742H386.145C373.091 45.4742 362.509 56.061 362.509 69.1216ZM407.823 69.1216V90.7436H430.563C442.992 90.7436 453.07 80.6603 453.07 68.2251V45.4742H431.459C418.405 45.4742 407.823 56.061 407.823 69.1216ZM453.137 69.1216V90.7436H475.876C488.305 90.7436 498.384 80.6603 498.384 68.2251V45.4742H476.772C463.718 45.4742 453.137 56.061 453.137 69.1216ZM498.45 69.1216V90.7436H521.19C533.619 90.7436 543.697 80.6603 543.697 68.2251V45.4742H522.086C509.032 45.4742 498.45 56.061 498.45 69.1216ZM543.764 69.1216V90.7436H566.504C578.933 90.7436 589.011 80.6603 589.011 68.2251V45.4742H567.4C554.346 45.4742 543.764 56.061 543.764 69.1216ZM0 23.6475V45.2694H22.7398C35.169 45.2694 45.2473 35.1862 45.2473 22.7509V0H23.6359C10.5817 0 0 10.5868 0 23.6475ZM45.3137 23.6475V45.2694H68.0535C80.4826 45.2694 90.5609 35.1862 90.5609 22.7509V0H68.9495C55.8953 0 45.3137 10.5868 45.3137 23.6475ZM90.6273 23.6475V45.2694H113.367C125.796 45.2694 135.875 35.1862 135.875 22.7509V0H114.263C101.209 0 90.6273 10.5868 90.6273 23.6475ZM135.941 23.6475V45.2694H158.681C171.11 45.2694 181.188 35.1862 181.188 22.7509V0H159.577C146.523 0 135.941 10.5868 135.941 23.6475ZM181.255 23.6475V45.2694H203.994C216.424 45.2694 226.502 35.1862 226.502 22.7509V0H204.891C191.836 0 181.255 10.5868 181.255 23.6475ZM226.568 23.6475V45.2694H249.308C261.737 45.2694 271.816 35.1862 271.816 22.7509V0H250.204C237.15 0 226.568 10.5868 226.568 23.6475ZM271.882 23.6475V45.2694H294.622C307.051 45.2694 317.129 35.1862 317.129 22.7509V0H295.518C282.464 0 271.882 10.5868 271.882 23.6475ZM317.196 23.6475V45.2694H339.935C352.365 45.2694 362.443 35.1862 362.443 22.7509V0H340.831C327.777 0 317.196 10.5868 317.196 23.6475ZM362.509 23.6475V45.2694H385.249C397.678 45.2694 407.756 35.1862 407.756 22.7509V0H386.145C373.091 0 362.509 10.5868 362.509 23.6475ZM407.823 23.6475V45.2694H430.563C442.992 45.2694 453.07 35.1862 453.07 22.7509V0H431.459C418.405 0 407.823 10.5868 407.823 23.6475ZM453.137 23.6475V45.2694H475.876C488.305 45.2694 498.384 35.1862 498.384 22.7509V0H476.772C463.718 0 453.137 10.5868 453.137 23.6475ZM498.45 23.6475V45.2694H521.19C533.619 45.2694 543.697 35.1862 543.697 22.7509V0H522.086C509.032 0 498.45 10.5868 498.45 23.6475ZM567.389 0C554.334 0 543.753 10.5868 543.753 23.6475V45.2694H566.493C578.922 45.2694 589 35.1862 589 22.7509V0H567.389Z" fill="#4A617E"/>
</svg>
