<svg width="81" height="84" viewBox="0 0 81 84" fill="none" xmlns="http://www.w3.org/2000/svg">
<g clip-path="url(#clip0_2_249)">
<path d="M18.3002 82.1C18.3002 82.1 24.0002 64.9 44.1002 54C62.0002 44.3 79.5002 45.1 79.5002 45.1V82.2H1.2002V50.1C1.2002 50.1 9.9002 49.6 19.6002 52.4C29.3002 55.2 34.7002 58.9 34.7002 58.9" stroke="#8DAE3E" stroke-width="1.8" stroke-miterlimit="10" stroke-linecap="round" stroke-linejoin="round"/>
<path d="M2.5 58.5999C2.5 58.5999 17.1 58.4999 27.5 65.7999" stroke="#8DAE3E" stroke-width="1.8" stroke-miterlimit="10" stroke-linecap="round" stroke-linejoin="round"/>
<path d="M32.1006 82.1999C32.1006 82.1999 42.5006 56.7 79.3006 55.7" stroke="#8DAE3E" stroke-width="1.8" stroke-miterlimit="10" stroke-linecap="round" stroke-linejoin="round"/>
<path d="M46.5 81.9998C46.5 81.9998 54.5 66.7998 79.1 66.2998" stroke="#8DAE3E" stroke-width="1.8" stroke-miterlimit="10" stroke-linecap="round" stroke-linejoin="round"/>
<path d="M0.900391 67.6999C0.900391 67.6999 13.5004 67.5999 22.4004 74.2999" stroke="#8DAE3E" stroke-width="1.8" stroke-miterlimit="10" stroke-linecap="round" stroke-linejoin="round"/>
<path d="M28.5004 35.9C34.0785 35.9 38.6004 31.378 38.6004 25.8C38.6004 20.2219 34.0785 15.7 28.5004 15.7C22.9223 15.7 18.4004 20.2219 18.4004 25.8C18.4004 31.378 22.9223 35.9 28.5004 35.9Z" stroke="#8DAE3E" stroke-width="1.8" stroke-miterlimit="10" stroke-linecap="round" stroke-linejoin="round"/>
<path d="M28.4004 0.899902V9.1999" stroke="#8DAE3E" stroke-width="1.8" stroke-miterlimit="10" stroke-linecap="round" stroke-linejoin="round"/>
<path d="M28.4004 42.0999V50.3999" stroke="#8DAE3E" stroke-width="1.8" stroke-miterlimit="10" stroke-linecap="round" stroke-linejoin="round"/>
<path d="M53.1004 25.5999H44.9004" stroke="#8DAE3E" stroke-width="1.8" stroke-miterlimit="10" stroke-linecap="round" stroke-linejoin="round"/>
<path d="M11.9006 25.5999H3.60059" stroke="#8DAE3E" stroke-width="1.8" stroke-miterlimit="10" stroke-linecap="round" stroke-linejoin="round"/>
<path d="M43.701 10.2998L40.001 13.9998" stroke="#8DAE3E" stroke-width="1.8" stroke-miterlimit="10" stroke-linecap="round" stroke-linejoin="round"/>
<path d="M16.7006 37.2998L13.1006 40.9998" stroke="#8DAE3E" stroke-width="1.8" stroke-miterlimit="10" stroke-linecap="round" stroke-linejoin="round"/>
<path d="M43.701 40.9998L40.001 37.2998" stroke="#8DAE3E" stroke-width="1.8" stroke-miterlimit="10" stroke-linecap="round" stroke-linejoin="round"/>
<path d="M16.7006 13.9998L13.1006 10.2998" stroke="#8DAE3E" stroke-width="1.8" stroke-miterlimit="10" stroke-linecap="round" stroke-linejoin="round"/>
</g>
<defs>
<clipPath id="clip0_2_249">
<rect width="80.5" height="83.1" fill="white"/>
</clipPath>
</defs>
</svg>
