<svg width="16" height="9" viewBox="0 0 16 9" fill="none" xmlns="http://www.w3.org/2000/svg">
<g clip-path="url(#clip0_665_7115)">
<path d="M15.7522 8.11196C15.7522 7.87936 15.6653 7.6557 15.5001 7.47677L8.49431 0.266036C8.32916 0.0960554 8.11186 0.00659215 7.87717 0.00659214C7.64249 0.00659213 7.42519 0.105002 7.26004 0.266035L0.254242 7.47677C-0.0847478 7.82568 -0.0847479 8.3893 0.254242 8.7382C0.593232 9.08711 1.14083 9.08711 1.47982 8.7382L7.87717 2.16266L14.2658 8.7382C14.6048 9.08711 15.1524 9.08711 15.4914 8.7382C15.6653 8.55928 15.7435 8.33562 15.7435 8.10301L15.7522 8.11196Z" fill="#8CAD3C"/>
</g>
<defs>
<clipPath id="clip0_665_7115">
<rect width="9" height="15.75" fill="white" transform="matrix(1.19249e-08 -1 -1 -1.19249e-08 15.75 9)"/>
</clipPath>
</defs>
</svg>
