<svg width="19" height="19" viewBox="0 0 19 19" fill="none" xmlns="http://www.w3.org/2000/svg">
<g clip-path="url(#clip0_618_473)">
<path opacity="0.49" d="M4.30007 18.1966C3.70007 18.1966 3.30007 18.0966 3.00007 17.7966L1.10007 15.5966C0.700067 15.0966 0.700067 14.3966 1.20007 13.8966L3.90007 11.7966C4.10007 11.5966 4.40007 11.4966 4.70007 11.4966C5.00007 11.4966 5.30007 11.5966 5.50007 11.7966L6.40007 13.1966L6.60007 13.0966C6.90007 12.9966 7.90007 12.6966 10.2001 10.3966C12.5001 8.09657 12.9001 6.99657 12.9001 6.79657L13.0001 6.59657L11.8001 5.59657C11.3001 5.09657 11.3001 4.39657 11.7001 3.89657L13.8001 1.19657C14.1001 0.99657 14.4001 0.79657 14.7001 0.79657C15.1001 0.79657 15.4001 0.89657 15.6001 1.09657L17.8001 2.99657C18.7001 3.89657 17.8001 6.49657 17.6001 7.19657C16.7001 9.39657 15.3001 11.5966 13.5001 13.3966C11.0001 15.8966 8.60007 17.0966 7.30007 17.4966C6.60007 17.7966 5.40007 18.1966 4.30007 18.1966ZM1.80007 14.5966V14.6966L1.70007 14.8966L1.80007 15.0966L3.70007 17.2966H3.80007C3.90007 17.3966 4.10007 17.3966 4.40007 17.3966C5.70007 17.3966 9.40007 16.2966 12.9001 12.7966C16.6001 9.09657 17.8001 4.69657 17.4001 3.79657V3.69657L15.1001 1.69657L14.6001 1.79657H14.5001L12.2001 4.79657L13.6001 5.69657C13.9001 5.89657 14.0001 6.19657 14.0001 6.49657C14.0001 7.39657 13.0001 8.99657 11.0001 10.9966C8.50007 13.4966 7.20007 13.9966 6.60007 13.9966C6.20007 13.9966 5.90007 13.8966 5.80007 13.5966L4.80007 12.1966L1.80007 14.5966Z" fill="white"/>
</g>
<defs>
<clipPath id="clip0_618_473">
<rect width="17.4" height="17.4" fill="white" transform="translate(0.799805 0.79657)"/>
</clipPath>
</defs>
</svg>
