<svg width="73" height="73" viewBox="0 0 73 73" fill="none" xmlns="http://www.w3.org/2000/svg">
<path d="M71.3018 1H37.883C22.1127 1 8.66365 10.9758 3.44528 24.9828C1.86825 29.0941 1 33.5525 1 38.2156V71.4889C1 71.6135 1.0886 71.7025 1.20377 71.7025H36.492C55.8328 71.7025 71.5056 55.9602 71.5056 36.5337V1.20468C71.5056 1.09789 71.417 1 71.3018 1ZM31.1496 57.9002V66.0694H9.43445L34.4188 41.2057L53.6356 60.5076C48.8956 63.9337 43.1102 65.9893 36.8464 66.0605V57.9002H31.1496ZM33.7366 33.8284L28.1284 39.417V8.21708C29.9358 7.62085 31.8052 7.1848 33.7366 6.91783V33.8195V33.8284ZM43.7038 23.906V6.63306H49.312V18.3174L43.7038 23.906ZM17.9575 13.8946V49.5351L12.3493 55.1237V20.0438C13.944 17.7568 15.8312 15.6833 17.9575 13.9035V13.8946ZM57.9325 56.7077L38.4766 37.1655L65.8974 9.8723V36.5248C65.8974 44.3203 62.8674 51.4217 57.9325 56.7077Z" stroke="#8CAD3C" stroke-width="2"/>
</svg>
