<svg width="101" height="78" viewBox="0 0 101 78" fill="none" xmlns="http://www.w3.org/2000/svg">
<g clip-path="url(#clip0_622_278)">
<path d="M82.9002 55.1C82.7002 55.1 82.5002 55 82.4002 54.9L59.1002 37.1L36.1002 54.8C35.7002 55.1 35.1002 55 34.8002 54.6L32.4002 51.6C32.3002 51.4 32.2002 51.2 32.2002 50.9C32.2002 50.7 32.4002 50.4 32.5002 50.3L58.4002 30.1C58.7002 29.8 59.2002 29.8 59.5002 30.1L85.7002 50.2C86.1002 50.5 86.2002 51.1 85.9002 51.5L83.5002 54.7C83.4002 54.9 83.1002 55 82.9002 55.1C83.0002 55.1 82.9002 55.1 82.9002 55.1ZM59.1002 35.1C59.3002 35.1 59.5002 35.2 59.6002 35.3L82.7002 53L84.0002 51.2L59.1002 32.1L34.4002 51.2L35.7002 52.8L58.5002 35.2C58.7002 35.1 58.9002 35.1 59.1002 35.1Z" fill="#8DAE3E"/>
<path d="M57.4998 25.1001C57.2998 25.1001 57.0998 25.0001 56.9998 24.9001L33.6998 7.1001L10.6998 24.8001C10.2998 25.1001 9.6998 25.0001 9.3998 24.6001L6.9998 21.6001C6.8998 21.4001 6.7998 21.2001 6.7998 20.9001C6.7998 20.7001 6.9998 20.4001 7.0998 20.3001L33.1998 0.200098C33.4998 -0.0999023 33.9998 -0.0999023 34.2998 0.200098L60.4998 20.3001C60.8998 20.6001 60.9998 21.2001 60.6998 21.6001L58.2998 24.8001C58.1998 25.0001 57.8998 25.1001 57.6998 25.2001C57.5998 25.1001 57.5998 25.1001 57.4998 25.1001ZM33.6998 5.0001C33.8998 5.0001 34.0998 5.1001 34.1998 5.2001L57.2998 22.9001L58.5998 21.1001L33.6998 2.0001L9.0998 21.2001L10.3998 22.8001L33.1998 5.2001C33.2998 5.1001 33.4998 5.0001 33.6998 5.0001Z" fill="#8DAE3E"/>
<path d="M52.1002 36.7001C51.6002 36.7001 51.2002 36.3 51.2002 35.8V20.2001C51.2002 19.7001 51.6002 19.3 52.1002 19.3C52.6002 19.3 53.0002 19.7001 53.0002 20.2001V35.8C53.0002 36.3 52.6002 36.7001 52.1002 36.7001Z" fill="#8DAE3E"/>
<path d="M15.1998 62.3C14.6998 62.3 14.2998 61.9001 14.2998 61.4001V20.7001C14.2998 20.2001 14.6998 19.8 15.1998 19.8C15.6998 19.8 16.0998 20.2001 16.0998 20.7001V61.5C16.0998 61.9001 15.6998 62.3 15.1998 62.3Z" fill="#8DAE3E"/>
<path d="M77.6998 76.5C77.1998 76.5 76.7998 76.1 76.7998 75.6V50.4C76.7998 49.9 77.1998 49.5 77.6998 49.5C78.1998 49.5 78.5998 49.9 78.5998 50.4V75.6C78.5998 76 78.1998 76.5 77.6998 76.5Z" fill="#8DAE3E"/>
<path d="M88 77.5002H0.9C0.4 77.5002 0 77.1002 0 76.6002C0 76.1002 0.4 75.7002 0.9 75.7002H88C88.5 75.7002 88.9 76.1002 88.9 76.6002C88.9 77.1002 88.5 77.5002 88 77.5002Z" fill="#8DAE3E"/>
<path d="M66.1004 77C65.6004 77 65.2004 76.6 65.2004 76.1V56.8H53.7004V76.1C53.7004 76.6 53.3004 77 52.8004 77C52.3004 77 51.9004 76.6 51.9004 76.1V55.9C51.9004 55.4 52.3004 55 52.8004 55H66.2004C66.7004 55 67.1004 55.4 67.1004 55.9V76.1C67.0004 76.6 66.6004 77 66.1004 77Z" fill="#8DAE3E"/>
<path d="M40.6002 38.9001H27.1002C26.6002 38.9001 26.2002 38.5001 26.2002 38.0001V20.0001C26.2002 19.5001 26.6002 19.1001 27.1002 19.1001H40.6002C41.1002 19.1001 41.5002 19.5001 41.5002 20.0001V38.0001C41.5002 38.5001 41.1002 38.9001 40.6002 38.9001ZM28.0002 37.1001H39.7002V20.9001H28.0002V37.1001Z" fill="#8DAE3E"/>
<path d="M33.8004 38.9002C33.3004 38.9002 32.9004 38.5002 32.9004 38.0002V20.1002C32.9004 19.6002 33.3004 19.2002 33.8004 19.2002C34.3004 19.2002 34.7004 19.6002 34.7004 20.1002V38.0002C34.7004 38.5002 34.3004 38.9002 33.8004 38.9002Z" fill="#8DAE3E"/>
<path d="M40.5 29.9001H27.4C26.9 29.9001 26.5 29.5001 26.5 29.0001C26.5 28.5001 26.9 28.1001 27.4 28.1001H40.5C41 28.1001 41.4 28.5001 41.4 29.0001C41.4 29.5001 41 29.9001 40.5 29.9001Z" fill="#8DAE3E"/>
<path d="M15.9996 15.3C15.4996 15.3 15.0996 14.9 15.0996 14.4V3.9C15.0996 3.4 15.4996 3 15.9996 3H21.1996C21.6996 3 22.0996 3.4 22.0996 3.9V10.1C22.0996 10.6 21.6996 11 21.1996 11C20.6996 11 20.2996 10.6 20.2996 10.1V4.8H16.8996V14.3C16.8996 14.9 16.4996 15.3 15.9996 15.3Z" fill="#8DAE3E"/>
<path d="M0.999609 77.2002C0.499609 77.2002 0.0996094 76.8002 0.0996094 76.3002V60.1002C0.0996094 59.6002 0.499609 59.2002 0.999609 59.2002C1.49961 59.2002 1.89961 59.6002 1.89961 60.1002V76.3002C1.89961 76.8002 1.49961 77.2002 0.999609 77.2002Z" fill="#8DAE3E"/>
<path d="M4.4 77.2002C3.9 77.2002 3.5 76.8002 3.5 76.3002V60.1002C3.5 59.6002 3.9 59.2002 4.4 59.2002C4.9 59.2002 5.3 59.6002 5.3 60.1002V76.3002C5.3 76.8002 4.9 77.2002 4.4 77.2002Z" fill="#8DAE3E"/>
<path d="M7.6998 77.2002C7.1998 77.2002 6.7998 76.8002 6.7998 76.3002V60.1002C6.7998 59.6002 7.1998 59.2002 7.6998 59.2002C8.1998 59.2002 8.5998 59.6002 8.5998 60.1002V76.3002C8.5998 76.8002 8.1998 77.2002 7.6998 77.2002Z" fill="#8DAE3E"/>
<path d="M11.1002 77.2002C10.6002 77.2002 10.2002 76.8002 10.2002 76.3002V60.1002C10.2002 59.6002 10.6002 59.2002 11.1002 59.2002C11.6002 59.2002 12.0002 59.6002 12.0002 60.1002V76.3002C12.0002 76.8002 11.6002 77.2002 11.1002 77.2002Z" fill="#8DAE3E"/>
<path d="M14.4 77.2002C13.9 77.2002 13.5 76.8002 13.5 76.3002V60.1002C13.5 59.6002 13.9 59.2002 14.4 59.2002C14.9 59.2002 15.3 59.6002 15.3 60.1002V76.3002C15.3 76.8002 14.9 77.2002 14.4 77.2002Z" fill="#8DAE3E"/>
<path d="M17.8004 77.2002C17.3004 77.2002 16.9004 76.8002 16.9004 76.3002V60.1002C16.9004 59.6002 17.3004 59.2002 17.8004 59.2002C18.3004 59.2002 18.7004 59.6002 18.7004 60.1002V76.3002C18.7004 76.8002 18.3004 77.2002 17.8004 77.2002Z" fill="#8DAE3E"/>
<path d="M21.1002 77.2002C20.6002 77.2002 20.2002 76.8002 20.2002 76.3002V60.1002C20.2002 59.6002 20.6002 59.2002 21.1002 59.2002C21.6002 59.2002 22.0002 59.6002 22.0002 60.1002V76.3002C22.0002 76.8002 21.6002 77.2002 21.1002 77.2002Z" fill="#8DAE3E"/>
<path d="M24.4996 77.2002C23.9996 77.2002 23.5996 76.8002 23.5996 76.3002V60.1002C23.5996 59.6002 23.9996 59.2002 24.4996 59.2002C24.9996 59.2002 25.3996 59.6002 25.3996 60.1002V76.3002C25.3996 76.8002 24.9996 77.2002 24.4996 77.2002Z" fill="#8DAE3E"/>
<path d="M27.8004 77.2002C27.3004 77.2002 26.9004 76.8002 26.9004 76.3002V60.1002C26.9004 59.6002 27.3004 59.2002 27.8004 59.2002C28.3004 59.2002 28.7004 59.6002 28.7004 60.1002V76.3002C28.7004 76.8002 28.3004 77.2002 27.8004 77.2002Z" fill="#8DAE3E"/>
<path d="M31.1998 77.2002C30.6998 77.2002 30.2998 76.8002 30.2998 76.3002V60.1002C30.2998 59.6002 30.6998 59.2002 31.1998 59.2002C31.6998 59.2002 32.0998 59.6002 32.0998 60.1002V76.3002C32.0998 76.8002 31.6998 77.2002 31.1998 77.2002Z" fill="#8DAE3E"/>
<path d="M34.4996 77.2002C33.9996 77.2002 33.5996 76.8002 33.5996 76.3002V60.1002C33.5996 59.6002 33.9996 59.2002 34.4996 59.2002C34.9996 59.2002 35.3996 59.6002 35.3996 60.1002V76.3002C35.3996 76.8002 34.9996 77.2002 34.4996 77.2002Z" fill="#8DAE3E"/>
<path d="M37.9 77.2002C37.4 77.2002 37 76.8002 37 76.3002V60.1002C37 59.6002 37.4 59.2002 37.9 59.2002C38.4 59.2002 38.8 59.6002 38.8 60.1002V76.3002C38.8 76.8002 38.4 77.2002 37.9 77.2002Z" fill="#8DAE3E"/>
<path d="M41.1998 77.2002C40.6998 77.2002 40.2998 76.8002 40.2998 76.3002V60.1002C40.2998 59.6002 40.6998 59.2002 41.1998 59.2002C41.6998 59.2002 42.0998 59.6002 42.0998 60.1002V76.3002C42.0998 76.8002 41.6998 77.2002 41.1998 77.2002Z" fill="#8DAE3E"/>
<path d="M44.6002 77.2002C44.1002 77.2002 43.7002 76.8002 43.7002 76.3002V60.1002C43.7002 59.6002 44.1002 59.2002 44.6002 59.2002C45.1002 59.2002 45.5002 59.6002 45.5002 60.1002V76.3002C45.5002 76.8002 45.1002 77.2002 44.6002 77.2002Z" fill="#8DAE3E"/>
<path d="M87.2997 64.8001C83.0997 64.8001 79.7997 63.3 77.2997 60.1C76.9997 59.7 77.0997 59.1 77.3997 58.8C77.7997 58.5 78.3997 58.6001 78.6997 58.9001C80.8997 61.6001 83.5997 62.9001 87.2997 62.9001C93.6997 63 98.9997 57.8001 98.9997 51.4001C98.9997 46.2001 95.4997 41.5 90.3997 40.2001C90.0997 40.1 89.7997 39.8 89.6997 39.5C89.5997 39.2001 89.7997 38.8 90.0997 38.6C92.4997 36.9 93.8997 34.2 93.8997 31.3C93.8997 29 92.9997 26.8 91.3997 25.1C91.1997 24.9 91.0997 24.5 91.1997 24.2C91.3997 23.6 91.4997 22.9 91.4997 22.3C91.4997 19.3 89.0997 16.9 86.0997 16.9C83.0997 16.9 80.6997 19.3 80.6997 22.3C80.6997 22.5 80.6997 22.7 80.6997 22.9C80.6997 23.2 80.5997 23.6 80.2997 23.8C77.6997 25.4 76.1997 28.2 76.1997 31.3C76.1997 32 76.2997 32.7001 76.4997 33.5C76.5997 33.9 76.3997 34.4 75.8997 34.6C73.6997 35.4 71.8997 37.2001 70.8997 39.4001C70.6997 39.9001 70.1997 40.1001 69.6997 39.9001C69.1997 39.7001 68.9997 39.2001 69.1997 38.7001C70.1997 36.3001 72.0997 34.4 74.4997 33.3C74.3997 32.7 74.2997 32.1 74.2997 31.5C74.2997 28 75.9997 24.8 78.7997 22.8C78.7997 22.7 78.7997 22.6 78.7997 22.5C78.7997 18.5 82.0997 15.3 85.9997 15.3C89.9997 15.3 93.1997 18.6 93.1997 22.5C93.1997 23.2 93.0997 23.8 92.8997 24.5C94.5997 26.4 95.4997 28.9 95.4997 31.5C95.4997 34.4 94.2997 37.2001 92.1997 39.2001C97.1997 41.2001 100.5 46.1 100.5 51.6C100.8 58.8 94.6997 64.8001 87.2997 64.8001Z" fill="#8DAE3E"/>
<path d="M85.9996 77.2001C85.8996 77.2001 85.9996 77.2001 85.9996 77.2001C85.4996 77.2001 85.0996 76.8001 85.0996 76.3001V64.0001C85.0996 63.5001 85.4996 63.1001 85.9996 63.1001C86.4996 63.1001 86.8996 63.5001 86.8996 64.0001L86.7996 76.3001C86.8996 76.8001 86.3996 77.2001 85.9996 77.2001Z" fill="#8DAE3E"/>
</g>
<defs>
<clipPath id="clip0_622_278">
<rect width="100.8" height="77.5" fill="white"/>
</clipPath>
</defs>
</svg>
