<svg width="74" height="74" viewBox="0 0 74 74" fill="none" xmlns="http://www.w3.org/2000/svg">
<g clip-path="url(#clip0_662_1881)">
<path d="M7.83891 0C8.42607 0.125307 9.02787 0.203968 9.59857 0.38324C11.7652 1.06466 13.2862 2.50432 14.2154 4.544C14.4568 5.07449 14.5227 5.71384 14.5483 6.30836C14.6324 8.28218 14.7038 10.2578 14.7056 12.2326C14.7266 30.382 14.7321 48.5315 14.7422 66.681C14.7422 67.2462 14.4532 67.5974 13.866 67.7456C13.3118 67.8855 12.7813 67.6825 12.5637 67.1831C12.4256 66.8666 12.3524 66.5126 12.2984 66.1687C11.9966 64.2333 11.0537 62.7168 9.17695 62.0583C5.93749 60.9223 3.223 62.8248 2.60657 65.5486C2.088 67.8426 3.28062 70.0935 5.41343 71.1527C5.87255 71.3804 6.33259 71.4966 6.8539 71.4966C19.5538 71.4856 32.2538 71.4966 44.9537 71.4847C52.2539 71.4783 59.5541 71.4436 66.8534 71.4179C67.4196 71.4161 67.9857 71.3731 68.5518 71.364C69.1042 71.3548 69.5707 71.1563 70.0014 70.8143C70.627 70.3167 71.0843 69.6966 71.4264 68.985C71.4831 68.867 71.4931 68.7188 71.4931 68.5843C71.4995 51.2023 71.5087 33.8211 71.4986 16.4391C71.4986 15.1082 71.3697 13.7765 71.2855 12.4466C71.2517 11.9097 70.9389 11.531 70.6041 11.1121C69.8414 10.1572 68.8234 10.0063 67.7388 9.97886C65.4111 9.9185 63.0835 9.84075 60.7559 9.83801C46.6585 9.82246 32.562 9.82612 18.4646 9.82337C17.8966 9.82337 17.2875 9.25629 17.2802 8.72122C17.271 8.04346 17.7887 7.48918 18.4609 7.48461C22.8152 7.44985 27.1705 7.39406 31.5248 7.39314C42.2355 7.38857 52.9472 7.40777 63.6579 7.42332C65.0929 7.42515 66.5269 7.47454 67.9619 7.47363C70.2356 7.47363 71.8882 8.54743 73.0863 10.4051C73.6579 11.2914 73.9287 12.2737 73.9259 13.3375C73.9241 14.103 73.9744 14.8686 74.0009 15.6342V58.6073C73.9872 58.8442 73.9625 59.0811 73.9625 59.318C73.9534 62.5403 73.9488 65.7617 73.9387 68.984C73.9387 69.145 73.9351 69.317 73.882 69.4651C73.1696 71.4838 71.8654 72.9491 69.8423 73.7256C69.578 73.8271 69.2917 73.9314 69.0155 73.9323C59.941 73.9588 50.8665 73.9762 41.792 73.9881C34.5805 73.9973 27.368 74.0064 20.1556 73.9973C15.7757 73.9918 11.3957 73.9534 7.0167 73.9213C6.61611 73.9186 6.20455 73.9076 5.81768 73.8171C3.77815 73.3405 2.24165 72.1469 1.11488 70.41C0.604541 69.6243 0.201209 68.7773 0.145419 67.8252C0.0878002 66.8456 0.0786543 65.8623 0.0768251 64.8809C0.0448147 51.6779 0 38.4749 0 25.2728C0 18.9672 0.0850564 12.6615 0.135359 6.35684C0.137188 6.15744 0.150907 5.95165 0.200294 5.75957C0.80575 3.40708 2.24531 1.71772 4.41287 0.683246C5.12351 0.342995 5.9384 0.221346 6.70665 0H7.83982H7.83891ZM12.2902 61.0028C12.2902 60.7439 12.2902 60.5802 12.2902 60.4174C12.2664 42.6201 12.2381 24.8228 12.2326 7.02545C12.2326 6.27543 12.0597 5.63884 11.6847 5.00407C10.5424 3.07049 8.73337 2.28572 6.56489 2.56377C4.97626 2.76683 3.83851 3.76837 3.03002 5.13944C2.67059 5.74859 2.51968 6.3797 2.51968 7.10228C2.51968 20.3309 2.48767 33.5586 2.48127 46.7872C2.47944 51.2297 2.52791 55.6731 2.55627 60.1156C2.55809 60.3625 2.5837 60.6104 2.60108 60.8976C5.86066 58.6988 9.06079 58.6686 12.2911 61.0028H12.2902ZM22.7933 44.3826C30.3962 44.3826 37.9983 44.3799 45.6012 44.3918C45.9899 44.3918 46.3146 44.3232 46.4957 43.9847C46.6438 43.7085 46.792 43.3902 46.7975 43.0875C46.8268 41.4896 46.813 39.8908 46.8094 38.2929C46.8094 38.1438 46.7865 37.991 46.7536 37.8456C46.642 37.3535 46.096 36.962 45.5994 37.0096C45.0772 37.059 44.3894 37.6883 44.3885 38.1227C44.3866 39.1545 44.3885 40.1871 44.3885 41.2188C44.3885 41.4411 44.3885 41.6643 44.3885 41.8865H22.2948V17.2266H44.3784C44.3784 17.394 44.3775 17.5421 44.3784 17.6894C44.4004 19.8919 44.4168 22.0944 44.4488 24.2968C44.458 24.9499 44.4872 25.6048 44.5476 26.2551C44.5961 26.7774 45.1403 27.1615 45.6927 27.1176C46.2231 27.0756 46.8322 26.5204 46.8359 26.0731C46.8579 23.3044 46.8789 20.5349 46.8999 17.7662C46.9008 17.619 46.8999 17.4717 46.8999 17.3025H64.1271V41.935C63.2637 41.935 62.3857 41.9204 61.5077 41.9387C60.2126 41.9661 58.9167 42.0009 57.6234 42.075C57.414 42.0868 57.1515 42.2716 57.0262 42.4545C56.4509 43.2978 56.9677 44.304 57.9993 44.3268C59.8989 44.3689 61.8003 44.3671 63.6999 44.3835C63.8472 44.3845 63.9953 44.3835 64.1508 44.3835V64.1903H50.6378C49.9912 64.1903 49.5394 64.5526 49.4031 65.1809C49.244 65.9145 49.7653 66.5703 50.507 66.5703C55.5171 66.5703 60.5263 66.5703 65.5364 66.5703C66.076 66.5703 66.5772 66.0718 66.5772 65.534C66.5772 48.9696 66.5772 32.4043 66.5772 15.84C66.5772 15.3323 66.0641 14.8137 65.562 14.8128C52.0051 14.8082 38.4492 14.8018 24.8923 14.8037C23.5707 14.8037 22.25 14.8485 20.9285 14.8832C20.1639 14.9034 19.8922 15.1805 19.8675 15.9269C19.8602 16.1409 19.8584 16.3549 19.8584 16.5689C19.8502 30.5028 19.8401 44.4366 19.8355 58.3704C19.8355 60.7869 19.8547 63.2034 19.8776 65.6199C19.8831 66.241 20.0267 66.4047 20.6504 66.4569C21.5522 66.5319 22.4586 66.5995 23.3622 66.6032C28.0695 66.6242 32.7769 66.6361 37.4852 66.6261C40.1658 66.6206 42.8465 66.5739 45.5271 66.5346C46.3997 66.5218 46.6987 66.2419 46.8167 65.3895C46.8944 64.8288 46.9411 64.2644 47.0325 63.7065C47.7304 59.4497 50.6186 55.5734 56.215 54.3944C56.6668 54.2993 56.7518 54.3642 56.7674 54.8344C56.7948 55.6649 56.7893 56.4954 56.8095 57.3259C56.8387 58.5085 56.8616 59.6912 56.932 60.8711C56.9448 61.0796 57.1277 61.343 57.3097 61.4647C58.0048 61.9302 58.9286 61.536 59.1051 60.7238C59.1581 60.4796 59.1947 60.2262 59.1974 59.9765C59.2221 58.1143 59.2468 56.2521 59.2477 54.3898C59.2477 53.8767 59.192 53.359 59.1179 52.8496C59.0191 52.1746 58.6981 51.8809 58.0112 51.837C57.6243 51.8123 57.2302 51.827 56.8442 51.8718C51.1043 52.5358 47.2584 55.6429 45.1979 60.9909C44.8659 61.8516 44.7269 62.7873 44.5138 63.6919C44.458 63.9297 44.3793 64.0705 44.1022 64.0669C43.7766 64.0623 43.4492 64.1172 43.1227 64.1181C36.2752 64.1446 29.4277 64.1666 22.5811 64.1885C22.4842 64.1885 22.3881 64.1748 22.2775 64.1657V44.3826H22.7915H22.7933Z" fill="#8CAD3C"/>
</g>
<defs>
<clipPath id="clip0_662_1881">
<rect width="74" height="74" fill="white"/>
</clipPath>
</defs>
</svg>
