<svg width="18" height="19" viewBox="0 0 18 19" fill="none" xmlns="http://www.w3.org/2000/svg">
<g clip-path="url(#clip0_618_851)">
<path d="M15.75 7.91675C15.75 13.4584 9 18.2084 9 18.2084C9 18.2084 2.25 13.4584 2.25 7.91675C2.25 6.02708 2.96116 4.21481 4.22703 2.87861C5.4929 1.54242 7.20979 0.791748 9 0.791748C10.7902 0.791748 12.5071 1.54242 13.773 2.87861C15.0388 4.21481 15.75 6.02708 15.75 7.91675Z" stroke="#8DAE3E" stroke-width="2" stroke-linecap="round" stroke-linejoin="round"/>
<path d="M9 10.2917C10.2426 10.2917 11.25 9.22842 11.25 7.91675C11.25 6.60507 10.2426 5.54175 9 5.54175C7.75736 5.54175 6.75 6.60507 6.75 7.91675C6.75 9.22842 7.75736 10.2917 9 10.2917Z" stroke="#8DAE3E" stroke-width="2" stroke-linecap="round" stroke-linejoin="round"/>
</g>
<defs>
<clipPath id="clip0_618_851">
<rect width="18" height="19" fill="white"/>
</clipPath>
</defs>
</svg>
