<svg width="21" height="12" viewBox="0 0 21 12" fill="none" xmlns="http://www.w3.org/2000/svg">
<g clip-path="url(#clip0_624_827)">
<path d="M3.25538e-05 1.19284C3.25501e-05 1.50298 0.115927 1.80119 0.336126 2.03976L9.67719 11.6541C9.89738 11.8807 10.1871 12 10.5 12C10.8129 12 11.1027 11.8688 11.3229 11.6541L20.6639 2.03976C21.1159 1.57455 21.1159 0.823062 20.6639 0.357854C20.212 -0.107355 19.4818 -0.107355 19.0298 0.357854L10.5 9.12525L1.98182 0.357854C1.52983 -0.107355 0.799702 -0.107355 0.347716 0.357854C0.115927 0.596422 0.0116216 0.894633 0.0116216 1.20477L3.25538e-05 1.19284Z" fill="#17395B"/>
</g>
<defs>
<clipPath id="clip0_624_827">
<rect width="12" height="21" fill="white" transform="matrix(1.19249e-08 -1 -1 -1.19249e-08 21 12)"/>
</clipPath>
</defs>
</svg>
