<svg width="608" height="261" viewBox="0 0 608 261" fill="none" xmlns="http://www.w3.org/2000/svg">
<g clip-path="url(#clip0_2666_355)">
<path opacity="0.67" d="M86.976 174.009H45.4338C20.3405 174.009 0 194.351 0 219.446V260.992H43.7113C67.6031 260.992 86.976 241.617 86.976 217.723V174.009Z" fill="#8CAD3C"/>
<path opacity="0.71" d="M173.835 174.009H132.293C107.199 174.009 86.859 194.351 86.859 219.446V260.992H130.57C154.462 260.992 173.835 241.617 173.835 217.723V174.009Z" fill="#8CAD3C"/>
<path d="M260.705 174.009H219.163C194.069 174.009 173.729 194.351 173.729 219.446V260.992H217.44C241.332 260.992 260.705 241.617 260.705 217.723V174.009Z" fill="#8CAD3C"/>
<path d="M347.564 174.009H306.022C280.928 174.009 260.588 194.351 260.588 219.446V260.992H304.299C328.191 260.992 347.564 241.617 347.564 217.723V174.009Z" fill="#8CAD3C"/>
<path d="M434.423 174.009H392.881C367.787 174.009 347.447 194.351 347.447 219.446V260.992H391.158C415.05 260.992 434.423 241.617 434.423 217.723V174.009Z" fill="#8CAD3C"/>
<path opacity="0.88" d="M521.282 174.009H479.74C454.646 174.009 434.306 194.351 434.306 219.446V260.992H478.017C501.909 260.992 521.282 241.617 521.282 217.723V174.009Z" fill="#8CAD3C"/>
<path opacity="0.4" d="M608.141 174.009H566.599C541.506 174.009 521.165 194.351 521.165 219.446V260.992H564.876C588.768 260.992 608.141 241.617 608.141 217.723V174.009Z" fill="#8CAD3C"/>
<path opacity="0.5" d="M173.835 87.0042H132.293C107.199 87.0042 86.859 107.346 86.859 132.442V173.987H130.57C154.462 173.987 173.835 154.613 173.835 130.719V87.0042Z" fill="#8CAD3C"/>
<path d="M260.705 87.0042H219.163C194.069 87.0042 173.729 107.346 173.729 132.442V173.987H217.44C241.332 173.987 260.705 154.613 260.705 130.719V87.0042Z" fill="#8CAD3C"/>
<path opacity="0.71" d="M347.564 87.0042H306.022C280.928 87.0042 260.588 107.346 260.588 132.442V173.987H304.299C328.191 173.987 347.564 154.613 347.564 130.719V87.0042Z" fill="#8CAD3C"/>
<path d="M434.423 87.0042H392.881C367.787 87.0042 347.447 107.346 347.447 132.442V173.987H391.158C415.05 173.987 434.423 154.613 434.423 130.719V87.0042Z" fill="#8CAD3C"/>
<path d="M521.282 87.0042H479.74C454.646 87.0042 434.306 107.346 434.306 132.442V173.987H478.017C501.909 173.987 521.282 154.613 521.282 130.719V87.0042Z" fill="#8CAD3C"/>
<path opacity="0.88" d="M608.141 87.0042H566.599C541.506 87.0042 521.165 107.346 521.165 132.442V173.987H564.876C588.768 173.987 608.141 154.613 608.141 130.719V87.0042Z" fill="#8CAD3C"/>
<path opacity="0.5" d="M347.564 0H306.022C280.928 0 260.588 20.3421 260.588 45.4374V86.983H304.299C328.191 86.983 347.564 67.6085 347.564 43.7148V0Z" fill="#8CAD3C"/>
<path opacity="0.77" d="M434.423 0H392.881C367.787 0 347.447 20.3421 347.447 45.4374V86.983H391.158C415.05 86.983 434.423 67.6085 434.423 43.7148V0Z" fill="#8CAD3C"/>
<path d="M521.282 0H479.74C454.646 0 434.306 20.3421 434.306 45.4374V86.983H478.017C501.909 86.983 521.282 67.6085 521.282 43.7148V0Z" fill="#8CAD3C"/>
<path d="M608.141 0H566.599C541.506 0 521.165 20.3421 521.165 45.4374V86.983H564.876C588.768 86.983 608.141 67.6085 608.141 43.7148V0Z" fill="#8CAD3C"/>
</g>
<defs>
<clipPath id="clip0_2666_355">
<rect width="608" height="261" fill="white"/>
</clipPath>
</defs>
</svg>
