<svg width="608" height="261" viewBox="0 0 608 261" fill="none" xmlns="http://www.w3.org/2000/svg">
<g clip-path="url(#clip0_2666_340)">
<path opacity="0.67" d="M86.976 174.005H45.4338C20.3405 174.005 0 194.347 0 219.443V260.988H43.7113C67.6031 260.988 86.976 241.614 86.976 217.72V174.005Z" fill="#8CAD3C"/>
<path opacity="0.71" d="M173.835 174.005H132.293C107.2 174.005 86.8594 194.347 86.8594 219.443V260.988H130.571C154.462 260.988 173.835 241.614 173.835 217.72V174.005Z" fill="#8CAD3C"/>
<path d="M260.705 174.005H219.162C194.069 174.005 173.729 194.347 173.729 219.443V260.988H217.44C241.332 260.988 260.705 241.614 260.705 217.72V174.005Z" fill="#8CAD3C"/>
<path d="M347.564 174.005H306.022C280.928 174.005 260.588 194.347 260.588 219.443V260.988H304.299C328.191 260.988 347.564 241.614 347.564 217.72V174.005Z" fill="#8CAD3C"/>
<path d="M434.423 174.005H392.881C367.787 174.005 347.447 194.347 347.447 219.443V260.988H391.158C415.05 260.988 434.423 241.614 434.423 217.72V174.005Z" fill="#8CAD3C"/>
<path opacity="0.88" d="M521.282 174.005H479.739C454.646 174.005 434.306 194.347 434.306 219.443V260.988H478.017C501.909 260.988 521.282 241.614 521.282 217.72V174.005Z" fill="#8CAD3C"/>
<path opacity="0.4" d="M608.141 174.005H566.599C541.506 174.005 521.165 194.347 521.165 219.443V260.988H564.876C588.768 260.988 608.141 241.614 608.141 217.72V174.005Z" fill="#8CAD3C"/>
<path opacity="0.5" d="M173.835 87.0007H132.293C107.2 87.0007 86.8594 107.343 86.8594 132.438V173.984H130.571C154.462 173.984 173.835 154.609 173.835 130.716V87.0007Z" fill="#8CAD3C"/>
<path d="M260.705 87.0007H219.162C194.069 87.0007 173.729 107.343 173.729 132.438V173.984H217.44C241.332 173.984 260.705 154.609 260.705 130.716V87.0007Z" fill="#8CAD3C"/>
<path opacity="0.71" d="M347.564 87.0007H306.022C280.928 87.0007 260.588 107.343 260.588 132.438V173.984H304.299C328.191 173.984 347.564 154.609 347.564 130.716V87.0007Z" fill="#8CAD3C"/>
<path d="M434.423 87.0007H392.881C367.787 87.0007 347.447 107.343 347.447 132.438V173.984H391.158C415.05 173.984 434.423 154.609 434.423 130.716V87.0007Z" fill="#8CAD3C"/>
<path opacity="0.5" d="M347.564 -0.00341797H306.022C280.928 -0.00341797 260.588 20.3387 260.588 45.434V86.9796H304.299C328.191 86.9796 347.564 67.6051 347.564 43.7114V-0.00341797Z" fill="#8CAD3C"/>
<path opacity="0.77" d="M434.423 -0.00341797H392.881C367.787 -0.00341797 347.447 20.3387 347.447 45.434V86.9796H391.158C415.05 86.9796 434.423 67.6051 434.423 43.7114V-0.00341797Z" fill="#8CAD3C"/>
<path d="M607.497 -0.00341797H525.023C486.104 -0.00341797 452.913 24.5471 440.035 59.0186C436.143 69.1367 434 80.1089 434 91.5848V173.471C434 173.778 434.219 173.997 434.503 173.997H521.59C569.321 173.997 608 135.254 608 87.4456V0.500295C608 0.237488 607.781 -0.00341797 607.497 -0.00341797ZM508.406 140.029V160.134H454.815L516.474 98.9433L563.899 146.446C552.201 154.877 537.923 159.936 522.465 160.112V140.029H508.406ZM514.79 80.7878L500.95 94.5413V17.7579C505.41 16.2906 510.024 15.2175 514.79 14.5605V80.7659V80.7878ZM539.388 56.3686V13.8596H553.229V42.6151L539.388 56.3686ZM475.827 31.7524V119.442L461.987 133.196V46.8638C465.923 41.2354 470.58 36.1325 475.827 31.7524ZM574.481 137.116L526.466 89.0224L594.138 21.8533V87.4456C594.138 106.63 586.66 124.107 574.481 137.116Z" fill="#8CAD3C"/>
</g>
<defs>
<clipPath id="clip0_2666_340">
<rect width="608" height="261" fill="white"/>
</clipPath>
</defs>
</svg>
