<svg width="202" height="40" viewBox="0 0 202 40" fill="none" xmlns="http://www.w3.org/2000/svg">
<g clip-path="url(#clip0_618_365)">
<path d="M76.3042 0.647949C78.9984 0.647949 81.1299 1.39385 82.7085 2.88067C84.2872 4.37246 85.0741 6.36152 85.0741 8.85779C85.0741 11.4734 84.2573 13.4724 82.6189 14.8548C80.9805 16.2372 78.6 16.9234 75.4676 16.9234H59.7855V26.9483H55.418V0.647949H76.2992H76.3042ZM75.5423 13C78.9138 13 80.597 11.6425 80.597 8.93238C80.597 6.02338 78.8142 4.57137 75.2485 4.57137H59.7855V13H75.5373H75.5423Z" fill="#17395B"/>
<path d="M111.16 26.9483H89.5117V4.6062H93.8792V23.0249H111.16V26.9483Z" fill="#17395B"/>
<path d="M143.973 15.7251C143.973 19.38 142.409 22.3636 139.282 24.661C136.612 26.6202 133.281 27.6048 129.277 27.6048C125.273 27.6048 121.926 26.6252 119.237 24.661C116.11 22.3835 114.546 19.4049 114.546 15.7251C114.546 12.0454 116.125 9.13636 119.277 6.85889C122.041 4.84993 125.377 3.84546 129.282 3.84546C133.186 3.84546 136.488 4.84993 139.252 6.85889C142.404 9.16122 143.983 12.115 143.983 15.7251H143.973ZM139.426 15.7052C139.426 13.3979 138.48 11.4984 136.583 10.0066C134.685 8.51478 132.245 7.76888 129.257 7.76888C126.269 7.76888 123.784 8.51975 121.877 10.0265C119.969 11.5332 119.018 13.4228 119.018 15.7052C119.018 17.9877 119.954 20.0066 121.827 21.4735C123.699 22.9454 126.174 23.6764 129.262 23.6764C132.35 23.6764 134.785 22.9404 136.642 21.4735C138.5 20.0066 139.431 18.0822 139.431 15.7052H139.426Z" fill="#17395B"/>
<path d="M173.116 8.52962H162.419V26.9483H158.052V8.52962H147.354V4.6062H173.111V8.52962H173.116Z" fill="#17395B"/>
<path d="M198.111 10.1307C195.203 8.60407 192.035 7.84325 188.614 7.84325C183.644 7.84325 181.154 8.72839 181.154 10.4937C181.154 11.533 182.085 12.2142 183.958 12.5275C186.503 12.7463 189.052 12.975 191.597 13.2187C195.258 13.5817 197.867 14.2381 199.421 15.1779C201.144 16.2172 202.005 17.8084 202.005 19.9367C202.005 22.3336 200.93 24.1884 198.783 25.4962C196.637 26.804 193.525 27.4554 189.451 27.4554C183.704 27.4554 179.107 26.1476 175.661 23.532L178.027 20.4439C181.104 22.6021 184.889 23.6762 189.376 23.6762C191.901 23.6762 193.853 23.3579 195.233 22.7115C196.617 22.07 197.304 21.2147 197.304 20.1506C197.304 18.9621 196.453 18.1317 194.76 17.6443C193.813 17.3808 192.344 17.1968 190.357 17.0974C187.255 16.9531 185.347 16.8438 184.645 16.7692C181.881 16.5056 179.844 15.9089 178.535 14.989C177.225 14.069 176.572 12.7264 176.572 10.9561C176.572 8.82287 177.623 7.13714 179.72 5.889C181.816 4.64087 184.76 4.01929 188.544 4.01929C193.589 4.01929 197.678 5.1083 200.805 7.28632L198.111 10.1207V10.1307Z" fill="#17395B"/>
<path d="M55.413 34.8151C55.6719 34.4571 56.1251 34.1985 56.648 34.1985C57.5444 34.1985 58.1022 34.7554 58.1022 35.4615C58.1022 35.8693 57.8582 36.2124 57.5892 36.3765C58.0424 36.5307 58.3612 36.9533 58.3612 37.5053C58.3612 38.281 57.7038 38.9325 56.7128 38.9325C56.1948 38.9325 55.5425 38.7087 55.2188 38.2512L55.4927 37.8633H55.5574C55.8213 38.2064 56.3044 38.4053 56.7128 38.4053C57.405 38.4053 57.7884 37.9827 57.7884 37.5053C57.7884 37.0627 57.4847 36.7345 56.9568 36.7345H56.1899L56.155 36.6997V36.2671L56.1899 36.2323H56.892C57.2008 36.2323 57.5295 35.9339 57.5295 35.5063C57.5295 35.0786 57.1709 34.7206 56.648 34.7206C56.3094 34.7206 55.9807 34.8847 55.7715 35.1284H55.7068L55.413 34.8101V34.8151Z" fill="#17395B"/>
<path d="M63.0723 34.2979L63.1072 34.3327V34.7653L63.0723 34.8001H60.9658V36.088H62.5544L62.5843 36.1228V36.5654L62.5544 36.6002H60.9658V38.3406H63.2666L63.3014 38.3754V38.808L63.2666 38.8429H60.4977L60.4678 38.808V34.3376L60.4977 34.3028H63.0723V34.2979Z" fill="#17395B"/>
<path d="M65.8513 34.2979L65.9161 34.3327L67.6043 36.4112L69.2925 34.3327L69.3573 34.2979H69.7706L69.8005 34.3327V38.8031L69.7706 38.8379H69.3373L69.3025 38.8031V35.0537L67.6342 37.1074H67.5694L65.9111 35.0537V38.8031L65.8762 38.8379H65.443L65.4131 38.8031V34.3327L65.443 34.2979H65.8513Z" fill="#17395B"/>
<path d="M75.7962 34.2979L75.8311 34.3327V38.8031L75.7962 38.8379H75.363L75.3331 38.8031V34.8001H73.5801L73.0722 37.9925C72.9427 38.5644 72.5393 38.9324 71.857 38.9324L71.8271 38.8926V38.4898L71.857 38.46C72.2455 38.46 72.4945 38.2113 72.5891 37.7588L73.122 34.3327L73.1568 34.2979H75.7962Z" fill="#17395B"/>
<path d="M81.1149 34.3328V38.8032L81.0801 38.838H80.6468L80.6169 38.8032V36.8191H79.9247L78.4307 38.8032L78.3958 38.838H77.8132L77.7783 38.8032L79.3172 36.7247C78.8042 36.5506 78.4357 36.1379 78.4357 35.5611C78.4357 34.8152 78.9984 34.303 79.8899 34.303H81.0851L81.1199 34.3378L81.1149 34.3328ZM79.8899 34.8002C79.3321 34.8002 79.0084 35.0837 79.0084 35.5561C79.0084 36.0534 79.4018 36.3119 79.9297 36.3119H80.6169V34.7953H79.8899V34.8002Z" fill="#17395B"/>
<path d="M84.0685 38.2959L84.0984 38.3307V38.8081C84.0984 39.2507 83.8643 39.5142 83.436 39.5142C83.3912 39.5142 83.3514 39.5142 83.2617 39.4844V39.4496C83.4908 39.4048 83.6004 39.1761 83.6004 38.8429V38.3307L83.6302 38.2959H84.0635H84.0685Z" fill="#17395B"/>
<path d="M92.171 34.2979L92.2058 34.3327V34.7653L92.171 34.8001H90.0644V38.8031L90.0295 38.8379H89.5963L89.5664 38.8031V34.3327L89.5963 34.2979H92.171Z" fill="#17395B"/>
<path d="M97.0163 34.2979L97.0511 34.3327V38.3356H97.5392L97.574 38.3704V39.9716L97.5392 40.0065H97.1059L97.071 39.9716V38.8379H93.6796V39.9716L93.6498 40.0065H93.2165L93.1816 39.9716V38.3704L93.2165 38.3356H93.6697C93.7842 38.2064 93.8788 37.9726 93.9486 37.6295L94.2872 34.3327L94.3171 34.2979H97.0212H97.0163ZM94.4416 37.7439C94.4017 38.0025 94.342 38.2412 94.2772 38.3356H96.5481V34.8001H94.7304L94.4366 37.7489L94.4416 37.7439Z" fill="#17395B"/>
<path d="M102.325 34.2979L102.36 34.3327V34.7653L102.325 34.8001H100.219V36.088H101.807L101.837 36.1228V36.5654L101.807 36.6002H100.219V38.3406H102.519L102.554 38.3754V38.808L102.519 38.8429H99.7506L99.7207 38.808V34.3376L99.7506 34.3028H102.325V34.2979Z" fill="#17395B"/>
<path d="M108.116 34.2979L108.151 34.3327V36.088H110.766V34.3327L110.796 34.2979H111.229L111.264 34.3327V38.8031L111.229 38.8379H110.796L110.766 38.8031V36.5952H108.151V38.8031L108.116 38.8379H107.683L107.653 38.8031V34.3327L107.683 34.2979H108.116Z" fill="#17395B"/>
<path d="M115.507 34.2979L115.541 34.3327L117.349 38.8031L117.314 38.8379H116.836L116.801 38.8031L116.313 37.6196H114.237L113.759 38.8031L113.724 38.8379H113.246L113.216 38.8031L115.019 34.3327L115.053 34.2979H115.507ZM114.441 37.1173H116.119L115.278 34.9841L114.441 37.1173Z" fill="#17395B"/>
<path d="M118.928 34.2979L118.958 34.3327V35.2128C118.958 36.1825 119.386 36.6499 120.153 36.6499C120.626 36.6499 121.03 36.461 121.249 36.1725V34.3327L121.279 34.2979H121.712L121.747 34.3327V38.8031L121.712 38.8379H121.279L121.249 38.8031V36.8041C120.99 37.0278 120.537 37.177 120.153 37.177C119.137 37.177 118.46 36.5306 118.46 35.3322V34.3327L118.495 34.2979H118.928Z" fill="#17395B"/>
<path d="M124.63 34.2979L124.665 34.3327V38.0373L127.474 34.3327L127.538 34.2979H128.007L128.041 34.3327V38.8031L128.007 38.8379H127.573L127.538 38.8031V35.0984L124.725 38.8031L124.66 38.8379H124.197L124.167 38.8031V34.3327L124.197 34.2979H124.63Z" fill="#17395B"/>
<path d="M130.91 34.2979L130.945 34.3327V36.088H133.56V34.3327L133.59 34.2979H134.023L134.058 34.3327V38.8031L134.023 38.8379H133.59L133.56 38.8031V36.5952H130.945V38.8031L130.91 38.8379H130.477L130.447 38.8031V34.3327L130.477 34.2979H130.91Z" fill="#17395B"/>
<path d="M138.305 34.2979L138.34 34.3327L140.148 38.8031L140.113 38.8379H139.635L139.6 38.8031L139.112 37.6196H137.036L136.557 38.8031L136.523 38.8379H136.045L136.015 38.8031L137.817 34.3327L137.852 34.2979H138.305ZM137.24 37.1173H138.918L138.076 34.9841L137.24 37.1173Z" fill="#17395B"/>
<path d="M144.71 34.2979L144.745 34.3327V34.7653L144.71 34.8001H142.603V36.088H144.192L144.222 36.1228V36.5654L144.192 36.6002H142.603V38.3406H144.904L144.939 38.3754V38.808L144.904 38.8429H142.135L142.105 38.808V34.3376L142.135 34.3028H144.71V34.2979Z" fill="#17395B"/>
<path d="M150.248 34.2979L150.278 34.3327V34.7653L150.248 34.8001H148.719V38.8031L148.689 38.8379H148.246L148.211 38.8031V34.8001H146.682L146.647 34.7653V34.3327L146.682 34.2979H150.248Z" fill="#17395B"/>
<path d="M155.501 35.2875C155.068 34.9294 154.53 34.7256 153.978 34.7256C152.972 34.7256 152.15 35.5411 152.15 36.5654C152.15 37.5898 152.972 38.4053 153.978 38.4053C154.53 38.4053 155.068 38.1965 155.501 37.8434L155.536 37.8782V38.4501C155.113 38.7534 154.595 38.9374 153.978 38.9374C152.648 38.9374 151.577 37.8683 151.577 36.5754C151.577 35.2825 152.648 34.2134 153.978 34.2134C154.595 34.2134 155.113 34.3924 155.536 34.7007V35.2726L155.501 35.3074V35.2875Z" fill="#17395B"/>
<path d="M160.556 34.3328V38.8032L160.521 38.838H160.088L160.058 38.8032V36.8191H159.366L157.872 38.8032L157.837 38.838H157.254L157.225 38.8032L158.763 36.7247C158.25 36.5506 157.882 36.1379 157.882 35.5611C157.882 34.8152 158.445 34.303 159.336 34.303H160.531L160.566 34.3378L160.556 34.3328ZM159.331 34.8002C158.773 34.8002 158.45 35.0837 158.45 35.5561C158.45 36.0534 158.843 36.3119 159.371 36.3119H160.058V34.7953H159.331V34.8002Z" fill="#17395B"/>
<path d="M169.42 35.2875C168.987 34.9294 168.449 34.7256 167.896 34.7256C166.891 34.7256 166.069 35.5411 166.069 36.5654C166.069 37.5898 166.891 38.4053 167.896 38.4053C168.449 38.4053 168.987 38.1965 169.42 37.8434L169.455 37.8782V38.4501C169.032 38.7534 168.514 38.9374 167.896 38.9374C166.567 38.9374 165.496 37.8683 165.496 36.5754C165.496 35.2825 166.567 34.2134 167.896 34.2134C168.514 34.2134 169.032 34.3924 169.455 34.7007V35.2726L169.42 35.3074V35.2875Z" fill="#17395B"/>
<path d="M172.13 34.2979L172.16 34.3327V35.2128C172.16 36.1825 172.588 36.6499 173.355 36.6499C173.828 36.6499 174.232 36.461 174.451 36.1725V34.3327L174.481 34.2979H174.914L174.949 34.3327V38.8031L174.914 38.8379H174.481L174.451 38.8031V36.8041C174.192 37.0278 173.739 37.177 173.355 37.177C172.339 37.177 171.662 36.5306 171.662 35.3322V34.3327L171.697 34.2979H172.13Z" fill="#17395B"/>
<path d="M179.196 34.2979L179.231 34.3327L181.039 38.8031L181.004 38.8379H180.526L180.491 38.8031L180.003 37.6196H177.926L177.448 38.8031L177.413 38.8379H176.935L176.9 38.8031L178.703 34.3327L178.738 34.2979H179.191H179.196ZM178.13 37.1173H179.809L178.967 34.9841L178.13 37.1173Z" fill="#17395B"/>
<path d="M186.448 35.2875C186.014 34.9294 185.477 34.7256 184.924 34.7256C183.918 34.7256 183.096 35.5411 183.096 36.5654C183.096 37.5898 183.918 38.4053 184.924 38.4053C185.477 38.4053 186.014 38.1965 186.448 37.8434L186.483 37.8782V38.4501C186.059 38.7534 185.541 38.9374 184.924 38.9374C183.594 38.9374 182.523 37.8683 182.523 36.5754C182.523 35.2825 183.594 34.2134 184.924 34.2134C185.541 34.2134 186.059 34.3924 186.483 34.7007V35.2726L186.448 35.3074V35.2875Z" fill="#17395B"/>
<path d="M191.99 34.2979L192.02 34.3327V34.7653L191.99 34.8001H190.461V38.8031L190.431 38.8379H189.988L189.953 38.8031V34.8001H188.424L188.39 34.7653V34.3327L188.424 34.2979H191.99Z" fill="#17395B"/>
<path d="M194.54 34.2979L194.575 34.3328V36.0881H195.496C196.423 36.0881 197.02 36.6898 197.02 37.4655C197.02 38.2413 196.423 38.833 195.496 38.833H194.107L194.077 38.7982V34.3278L194.107 34.293H194.54V34.2979ZM194.575 38.3357H195.496C196.094 38.3357 196.448 37.9678 196.448 37.4655C196.448 36.9384 196.089 36.5903 195.496 36.5903H194.575V38.3308V38.3357Z" fill="#17395B"/>
<path d="M201.776 34.2979L201.811 34.3327V34.7653L201.776 34.8001H199.67V36.088H201.259L201.288 36.1228V36.5654L201.259 36.6002H199.67V38.3406H201.971L202.006 38.3754V38.808L201.971 38.8429H199.202L199.172 38.808V34.3376L199.202 34.3028H201.776V34.2979Z" fill="#17395B"/>
<path d="M39.5165 -0.00341797H20.7319C11.8674 -0.00341797 4.30773 5.57092 1.37449 13.3979C0.488043 15.6952 0 18.1865 0 20.7922V39.3849C0 39.4546 0.0498003 39.5043 0.114541 39.5043H19.95C30.8214 39.5043 39.6311 30.7077 39.6311 19.8524V0.110953C39.6311 0.0512812 39.5813 -0.00341797 39.5165 -0.00341797ZM16.947 31.7917V36.3566H4.74099L18.7847 22.463L29.5864 33.2487C26.922 35.1632 23.6701 36.3118 20.1492 36.3516V31.7917H16.947ZM18.4012 18.3407L15.2489 21.4635V4.0294C16.2648 3.69623 17.3156 3.45257 18.4012 3.30339V18.3357V18.3407ZM24.0037 12.7962V3.14427H27.1561V9.67336L24.0037 12.7962ZM9.5268 7.20692V27.1174L6.37444 30.2402V10.6381C7.27084 9.36008 8.33159 8.20145 9.5268 7.20692ZM31.9967 31.1303L21.0606 20.2104L36.4737 4.95929V19.8524C36.4737 24.2084 34.7706 28.1766 31.9967 31.1303Z" fill="#8CAD3C"/>
<path d="M39.5165 -0.00341797H20.7319C11.8674 -0.00341797 4.30773 5.57092 1.37449 13.3979C0.488043 15.6952 0 18.1865 0 20.7922V39.3849C0 39.4546 0.0498003 39.5043 0.114541 39.5043H19.95C30.8214 39.5043 39.6311 30.7077 39.6311 19.8524V0.110953C39.6311 0.0512812 39.5813 -0.00341797 39.5165 -0.00341797ZM16.947 31.7917V36.3566H4.74099L18.7847 22.463L29.5864 33.2487C26.922 35.1632 23.6701 36.3118 20.1492 36.3516V31.7917H16.947ZM18.4012 18.3407L15.2489 21.4635V4.0294C16.2648 3.69623 17.3156 3.45257 18.4012 3.30339V18.3357V18.3407ZM24.0037 12.7962V3.14427H27.1561V9.67336L24.0037 12.7962ZM9.5268 7.20692V27.1174L6.37444 30.2402V10.6381C7.27084 9.36008 8.33159 8.20145 9.5268 7.20692ZM31.9967 31.1303L21.0606 20.2104L36.4737 4.95929V19.8524C36.4737 24.2084 34.7706 28.1766 31.9967 31.1303Z" fill="#8CAD3C"/>
</g>
<defs>
<clipPath id="clip0_618_365">
<rect width="202" height="40" fill="white" transform="translate(0 -0.00341797)"/>
</clipPath>
</defs>
</svg>
