<svg width="204" height="145" viewBox="0 0 204 145" fill="none" xmlns="http://www.w3.org/2000/svg">
<g clip-path="url(#clip0_613_158)">
<path d="M29.3024 91.2761C33.0482 91.2761 36.0075 92.3216 38.1988 94.4031C40.3901 96.4846 41.4858 99.282 41.4858 102.767C41.4858 106.431 40.3527 109.228 38.0771 111.159C35.8014 113.09 32.4864 114.06 28.1411 114.06H6.34956V128.094H0.28125V91.2761H29.3024ZM28.2442 108.569C32.9265 108.569 35.277 106.676 35.277 102.87C35.277 98.8016 32.7954 96.7672 27.8415 96.7672H6.34956V108.569H28.2442Z" fill="#17395B"/>
<path d="M77.7459 128.094H47.6572V96.8142H53.7255V122.602H77.7459V128.094Z" fill="#17395B"/>
<path d="M123.352 112.383C123.352 117.498 121.179 121.67 116.825 124.891C113.116 127.641 108.481 129.007 102.918 129.007C97.3554 129.007 92.7012 127.632 88.9647 124.891C84.6195 121.708 82.4375 117.535 82.4375 112.383C82.4375 107.231 84.6288 103.162 89.0115 99.9788C92.851 97.1627 97.4865 95.7593 102.918 95.7593C108.35 95.7593 112.929 97.1627 116.768 99.9788C121.151 103.2 123.342 107.335 123.342 112.383H123.352ZM117.031 112.355C117.031 109.124 115.71 106.468 113.079 104.377C110.447 102.286 107.048 101.241 102.899 101.241C98.7508 101.241 95.2952 102.296 92.645 104.406C89.9948 106.515 88.665 109.162 88.665 112.355C88.665 115.548 89.9667 118.373 92.5607 120.436C95.1641 122.489 98.6009 123.516 102.89 123.516C107.179 123.516 110.56 122.489 113.144 120.436C115.729 118.383 117.021 115.689 117.021 112.355H117.031Z" fill="#17395B"/>
<path d="M163.854 102.315H148.993V128.103H142.924V102.315H128.062V96.8237H163.864V102.315H163.854Z" fill="#17395B"/>
<path d="M198.587 104.547C194.542 102.409 190.14 101.345 185.392 101.345C178.481 101.345 175.026 102.579 175.026 105.056C175.026 106.516 176.327 107.467 178.921 107.9C182.461 108.202 186.001 108.531 189.541 108.87C194.626 109.379 198.25 110.292 200.413 111.621C202.811 113.08 204 115.303 204 118.279C204 121.633 202.511 124.232 199.524 126.059C196.536 127.886 192.219 128.81 186.554 128.81C178.566 128.81 172.179 126.982 167.394 123.318L170.681 118.995C174.96 122.009 180.223 123.526 186.46 123.526C189.962 123.526 192.678 123.074 194.598 122.179C196.518 121.284 197.482 120.088 197.482 118.59C197.482 116.933 196.302 115.765 193.942 115.077C192.631 114.7 190.59 114.446 187.827 114.314C183.51 114.107 180.869 113.956 179.886 113.853C176.047 113.476 173.209 112.647 171.392 111.357C169.576 110.066 168.658 108.183 168.658 105.715C168.658 102.729 170.119 100.365 173.031 98.6228C175.944 96.8803 180.036 96.0044 185.289 96.0044C192.304 96.0044 197.979 97.5302 202.333 100.582L198.587 104.547Z" fill="#17395B"/>
<path d="M0.224351 138.962C0.524021 138.548 1.04844 138.246 1.64778 138.246C2.68726 138.246 3.32406 138.896 3.32406 139.716C3.32406 140.187 3.04312 140.592 2.73408 140.78C3.2585 140.959 3.62373 141.449 3.62373 142.089C3.62373 142.993 2.86519 143.747 1.71333 143.747C1.114 143.747 0.364821 143.483 -0.00976562 142.956L0.308633 142.504H0.383551C0.692585 142.909 1.2451 143.135 1.7227 143.135C2.52806 143.135 2.9682 142.645 2.9682 142.089C2.9682 141.581 2.61234 141.194 2.00364 141.194H1.114L1.07654 141.157V140.648L1.114 140.61H1.92872C2.28458 140.61 2.66853 140.262 2.66853 139.763C2.66853 139.264 2.25648 138.849 1.64778 138.849C1.25447 138.849 0.870513 139.038 0.636397 139.32H0.561479L0.224351 138.953V138.962Z" fill="#17395B"/>
<path d="M9.08378 138.36L9.12124 138.397V138.906L9.08378 138.944H6.64897V140.441H8.48445L8.5219 140.479V140.987L8.48445 141.025H6.64897V143.06H9.30854L9.34599 143.097V143.606L9.30854 143.643H6.10582L6.06836 143.606V138.397L6.10582 138.36H9.08378Z" fill="#17395B"/>
<path d="M12.2949 138.36L12.3698 138.397L14.3177 140.818L16.2656 138.397L16.3405 138.36H16.8181L16.8555 138.397V143.606L16.8181 143.643H16.3124L16.2749 143.606V139.236L14.3458 141.628H14.2709L12.3511 139.236V143.606L12.3137 143.643H11.808L11.7705 143.606V138.397L11.808 138.36H12.2856H12.2949Z" fill="#17395B"/>
<path d="M23.7947 138.36L23.8322 138.397V143.606L23.7947 143.644H23.2891L23.2516 143.606V138.944H21.2288L20.6482 142.664C20.4984 143.333 20.0301 143.757 19.2435 143.757L19.2061 143.71V143.239L19.2435 143.201C19.693 143.201 19.9833 142.909 20.0957 142.382L20.7138 138.388L20.7512 138.35H23.8041L23.7947 138.36Z" fill="#17395B"/>
<path d="M29.9481 138.397V143.606L29.9106 143.644H29.4049L29.3675 143.606V141.298H28.5621L26.839 143.606L26.8016 143.644H26.1273L26.0898 143.606L27.8691 141.185C27.2792 140.978 26.8484 140.498 26.8484 139.829C26.8484 138.963 27.5039 138.369 28.5247 138.369H29.9013L29.9387 138.407L29.9481 138.397ZM28.534 138.944C27.8879 138.944 27.5133 139.273 27.5133 139.829C27.5133 140.413 27.9721 140.714 28.5808 140.714H29.3768V138.953H28.534V138.944Z" fill="#17395B"/>
<path d="M33.3662 143.012L33.4036 143.05V143.606C33.4036 144.114 33.132 144.425 32.6357 144.425C32.5795 144.425 32.5421 144.425 32.4297 144.388V144.35C32.6919 144.293 32.823 144.03 32.823 143.643V143.05L32.8605 143.012H33.3662Z" fill="#17395B"/>
<path d="M42.74 138.36L42.7775 138.397V138.906L42.74 138.944H40.3052V143.606L40.2678 143.643H39.7621L39.7246 143.606V138.397L39.7621 138.36H42.74Z" fill="#17395B"/>
<path d="M48.3398 138.36L48.3773 138.397V143.06H48.9392L48.9766 143.097V144.962L48.9392 145H48.4335L48.396 144.962V143.643H44.4722V144.962L44.4348 145H43.9291L43.8916 144.962V143.097L43.9291 143.06H44.4535C44.5846 142.909 44.697 142.636 44.7719 142.24L45.1652 138.397L45.2027 138.36H48.3305H48.3398ZM45.3619 142.372C45.315 142.673 45.2495 142.956 45.1746 143.06H47.7967V138.944H45.699L45.3619 142.372Z" fill="#17395B"/>
<path d="M54.4832 138.36L54.5207 138.397V138.906L54.4832 138.944H52.0484V140.441H53.8839L53.9213 140.479V140.987L53.8839 141.025H52.0484V143.06H54.7079L54.7454 143.097V143.606L54.7079 143.643H51.5052L51.4678 143.606V138.397L51.5052 138.36H54.4832Z" fill="#17395B"/>
<path d="M61.1701 138.36L61.2076 138.397V140.441H64.2324V138.397L64.2698 138.36H64.7755L64.813 138.397V143.606L64.7755 143.643H64.2698L64.2324 143.606V141.035H61.2076V143.606L61.1701 143.643H60.6644L60.627 143.606V138.397L60.6644 138.36H61.1701Z" fill="#17395B"/>
<path d="M69.7194 138.36L69.7568 138.397L71.8545 143.606L71.8171 143.643H71.2645L71.2271 143.606L70.6652 142.221H68.2678L67.7153 143.606L67.6779 143.643H67.1254L67.0879 143.606L69.1762 138.397L69.2137 138.36H69.7381H69.7194ZM68.4926 141.647H70.4404L69.4665 139.16L68.502 141.647H68.4926Z" fill="#17395B"/>
<path d="M73.6808 138.36L73.7183 138.397V139.424C73.7183 140.554 74.2146 141.1 75.0949 141.1C75.6381 141.1 76.1063 140.884 76.3591 140.545V138.407L76.3966 138.369H76.9023L76.9398 138.407V143.615L76.9023 143.653H76.3966L76.3591 143.615V141.279C76.0595 141.543 75.5351 141.713 75.0949 141.713C73.915 141.713 73.1377 140.959 73.1377 139.565V138.407L73.1752 138.369H73.6808V138.36Z" fill="#17395B"/>
<path d="M80.2736 138.36L80.3111 138.397V142.711L83.5606 138.397L83.6355 138.36H84.1787L84.2161 138.397V143.606L84.1787 143.643H83.673L83.6355 143.606V139.292L80.3766 143.606L80.3017 143.643H79.7679L79.7305 143.606V138.397L79.7679 138.36H80.2736Z" fill="#17395B"/>
<path d="M87.5402 138.36L87.5777 138.397V140.441H90.6025V138.397L90.6399 138.36H91.1456L91.1831 138.397V143.606L91.1456 143.643H90.6399L90.6025 143.606V141.035H87.5777V143.606L87.5402 143.643H87.0345L86.9971 143.606V138.397L87.0345 138.36H87.5402Z" fill="#17395B"/>
<path d="M96.0905 138.36L96.1279 138.397L98.2256 143.606L98.1881 143.643H97.6356L97.5982 143.606L97.0363 142.221H94.6389L94.0864 143.606L94.049 143.643H93.4964L93.459 143.606L95.5473 138.397L95.5848 138.36H96.1092H96.0905ZM94.8637 141.647H96.8115L95.8376 139.16L94.873 141.647H94.8637Z" fill="#17395B"/>
<path d="M103.498 138.36L103.535 138.397V138.906L103.498 138.944H101.063V140.441H102.899L102.936 140.479V140.987L102.899 141.025H101.063V143.06H103.723L103.76 143.097V143.606L103.723 143.643H100.52L100.482 143.606V138.397L100.52 138.36H103.498Z" fill="#17395B"/>
<path d="M109.903 138.36L109.94 138.397V138.906L109.903 138.944H108.133V143.606L108.096 143.643H107.59L107.552 143.606V138.944H105.783L105.745 138.906V138.397L105.783 138.36H109.912H109.903Z" fill="#17395B"/>
<path d="M115.972 139.518C115.466 139.104 114.848 138.859 114.211 138.859C113.05 138.859 112.095 139.81 112.095 140.997C112.095 142.184 113.05 143.135 114.211 143.135C114.848 143.135 115.476 142.89 115.972 142.476L116.009 142.513V143.173C115.522 143.531 114.923 143.738 114.211 143.738C112.676 143.738 111.439 142.495 111.439 140.988C111.439 139.481 112.676 138.237 114.211 138.237C114.923 138.237 115.522 138.445 116.009 138.802V139.462L115.972 139.499V139.518Z" fill="#17395B"/>
<path d="M121.825 138.397V143.606L121.788 143.644H121.282L121.244 143.606V141.298H120.439L118.716 143.606L118.679 143.644H118.004L117.967 143.606L119.746 141.185C119.156 140.978 118.725 140.498 118.725 139.829C118.725 138.963 119.381 138.369 120.402 138.369H121.778L121.816 138.407L121.825 138.397ZM120.411 138.944C119.765 138.944 119.39 139.273 119.39 139.829C119.39 140.413 119.849 140.714 120.458 140.714H121.254V138.953H120.411V138.944Z" fill="#17395B"/>
<path d="M132.079 139.518C131.574 139.104 130.956 138.859 130.319 138.859C129.158 138.859 128.202 139.81 128.202 140.997C128.202 142.184 129.158 143.135 130.319 143.135C130.956 143.135 131.583 142.89 132.079 142.476L132.117 142.513V143.173C131.63 143.531 131.031 143.738 130.319 143.738C128.783 143.738 127.547 142.495 127.547 140.988C127.547 139.481 128.783 138.237 130.319 138.237C131.031 138.237 131.63 138.445 132.117 138.802V139.462L132.079 139.499V139.518Z" fill="#17395B"/>
<path d="M135.207 138.36L135.245 138.397V139.424C135.245 140.554 135.741 141.1 136.621 141.1C137.164 141.1 137.633 140.884 137.886 140.545V138.407L137.923 138.369H138.429L138.466 138.407V143.615L138.429 143.653H137.923L137.886 143.615V141.279C137.586 141.543 137.061 141.713 136.621 141.713C135.441 141.713 134.664 140.959 134.664 139.565V138.407L134.702 138.369H135.207V138.36Z" fill="#17395B"/>
<path d="M143.382 138.36L143.42 138.397L145.518 143.606L145.48 143.643H144.928L144.89 143.606L144.328 142.221H141.931L141.378 143.606L141.341 143.643H140.788L140.751 143.606L142.839 138.397L142.877 138.36H143.401H143.382ZM142.156 141.647H144.094L143.12 139.16L142.156 141.647Z" fill="#17395B"/>
<path d="M151.764 139.518C151.258 139.104 150.64 138.859 150.003 138.859C148.842 138.859 147.887 139.81 147.887 140.997C147.887 142.184 148.842 143.135 150.003 143.135C150.64 143.135 151.268 142.89 151.764 142.476L151.801 142.513V143.173C151.314 143.531 150.715 143.738 150.003 143.738C148.468 143.738 147.231 142.495 147.231 140.988C147.231 139.481 148.468 138.237 150.003 138.237C150.715 138.237 151.314 138.445 151.801 138.802V139.462L151.764 139.499V139.518Z" fill="#17395B"/>
<path d="M158.178 138.36L158.216 138.397V138.906L158.178 138.944H156.409V143.606L156.371 143.643H155.865L155.828 143.606V138.944H154.058L154.021 138.906V138.397L154.058 138.36H158.188H158.178Z" fill="#17395B"/>
<path d="M161.119 138.36L161.156 138.397V140.441H162.224C163.301 140.441 163.984 141.148 163.984 142.052C163.984 142.956 163.291 143.643 162.224 143.643H160.622L160.585 143.606V138.397L160.622 138.36H161.128H161.119ZM161.156 143.06H162.224C162.917 143.06 163.329 142.626 163.329 142.052C163.329 141.44 162.917 141.035 162.224 141.035H161.156V143.069V143.06Z" fill="#17395B"/>
<path d="M169.491 138.36L169.528 138.397V138.906L169.491 138.944H167.056V140.441H168.892L168.929 140.479V140.987L168.892 141.025H167.056V143.06H169.716L169.753 143.097V143.606L169.716 143.643H166.513L166.476 143.606V138.397L166.513 138.36H169.491Z" fill="#17395B"/>
<path d="M122.565 0H87.241C70.5719 0 56.3563 10.5583 50.8405 25.3832C49.1736 29.7347 48.2559 34.4534 48.2559 39.3888V74.6051C48.2559 74.7369 48.3495 74.8311 48.4712 74.8311H85.7707C106.214 74.8311 122.78 58.1695 122.78 37.6086V0.216629C122.78 0.103605 122.686 0 122.565 0ZM80.1238 60.2228V68.8691H57.171L83.5794 42.5534L103.891 62.9825C98.8813 66.6087 92.7661 68.7843 86.1453 68.8597V60.2228H80.1238ZM82.8583 34.7454L76.9305 40.6603V7.63852C78.8409 7.00747 80.8168 6.54596 82.8583 6.2634V34.736V34.7454ZM93.3936 24.2436V5.962H99.3214V18.3287L93.3936 24.2436ZM66.1798 13.6476V51.3693L60.252 57.2842V20.1559C61.9376 17.7353 63.9323 15.5408 66.1798 13.657V13.6476ZM108.433 58.9607L87.8684 38.2774L116.852 9.39039V37.5992C116.852 45.85 113.649 53.366 108.433 58.9607Z" fill="#8CAD3C"/>
</g>
<defs>
<clipPath id="clip0_613_158">
<rect width="204" height="145" fill="white"/>
</clipPath>
</defs>
</svg>
