<svg width="406" height="303" viewBox="0 0 406 303" fill="none" xmlns="http://www.w3.org/2000/svg">
<g clip-path="url(#clip0_618_566)">
<path opacity="0.71" d="M102 201.997H53.7595C24.6202 201.997 1 225.617 1 254.756V302.997H51.7593C79.5034 302.997 102 280.5 102 252.756V201.997Z" fill="#8CAD3C"/>
<path d="M203 201.997H154.76C125.62 201.997 102 225.617 102 254.756V302.997H152.759C180.503 302.997 203 280.5 203 252.756V201.997Z" fill="#8CAD3C"/>
<path d="M304 201.997H255.76C226.62 201.997 203 225.617 203 254.756V302.997H253.759C281.503 302.997 304 280.5 304 252.756V201.997Z" fill="#8CAD3C"/>
<path d="M405 201.997H356.76C327.62 201.997 304 225.617 304 254.756V302.997H354.759C382.503 302.997 405 280.5 405 252.756V201.997Z" fill="#8CAD3C"/>
<path opacity="0.5" d="M102 100.997H53.7595C24.6202 100.997 1 124.617 1 153.756V201.997H51.7593C79.5034 201.997 102 179.5 102 151.756V100.997Z" fill="#8CAD3C"/>
<path d="M203 100.997H154.76C125.62 100.997 102 124.617 102 153.756V201.997H152.759C180.503 201.997 203 179.5 203 151.756V100.997Z" fill="#8CAD3C"/>
<path opacity="0.71" d="M304 100.997H255.76C226.62 100.997 203 124.617 203 153.756V201.997H253.759C281.503 201.997 304 179.5 304 151.756V100.997Z" fill="#8CAD3C"/>
<path d="M405 100.997H356.76C327.62 100.997 304 124.617 304 153.756V201.997H354.759C382.503 201.997 405 179.5 405 151.756V100.997Z" fill="#8CAD3C"/>
<path opacity="0.5" d="M304 -0.00341797H255.76C226.62 -0.00341797 203 23.6168 203 52.7561V100.997H253.759C281.503 100.997 304 78.5 304 50.7559V-0.00341797Z" fill="#8CAD3C"/>
<path opacity="0.77" d="M405 -0.00341797H356.76C327.62 -0.00341797 304 23.6168 304 52.7561V100.997H354.759C382.503 100.997 405 78.5 405 50.7559V-0.00341797Z" fill="#8CAD3C"/>
</g>
<defs>
<clipPath id="clip0_618_566">
<rect width="406" height="303" fill="white"/>
</clipPath>
</defs>
</svg>
