<svg width="527" height="176" viewBox="0 0 527 176" fill="none" xmlns="http://www.w3.org/2000/svg">
<g clip-path="url(#clip0_618_1703)">
<path opacity="0.5" d="M88.5864 87.8042H46.6258C21.2797 87.8042 0.734375 108.333 0.734375 133.659V175.587H44.8859C69.0184 175.587 88.5864 156.034 88.5864 131.921V87.8042Z" fill="#8CAD3C"/>
<path d="M176.331 87.8042H134.37C109.024 87.8042 88.4785 108.333 88.4785 133.659V175.587H132.63C156.763 175.587 176.331 156.034 176.331 131.921V87.8042Z" fill="#8CAD3C"/>
<path opacity="0.71" d="M264.065 87.8042H222.104C196.758 87.8042 176.213 108.333 176.213 133.659V175.587H220.364C244.497 175.587 264.065 156.034 264.065 131.921V87.8042Z" fill="#8CAD3C"/>
<path d="M351.798 87.8042H309.838C284.492 87.8042 263.946 108.333 263.946 133.659V175.587H308.098C332.23 175.587 351.798 156.034 351.798 131.921V87.8042Z" fill="#8CAD3C"/>
<path d="M439.532 87.8042H397.571C372.225 87.8042 351.68 108.333 351.68 133.659V175.587H395.831C419.964 175.587 439.532 156.034 439.532 131.921V87.8042Z" fill="#8CAD3C"/>
<path opacity="0.88" d="M527.266 87.8042H485.305C459.959 87.8042 439.414 108.333 439.414 133.659V175.587H483.566C507.698 175.587 527.266 156.034 527.266 131.921V87.8042Z" fill="#8CAD3C"/>
<path opacity="0.5" d="M264.065 0H222.104C196.758 0 176.213 20.5292 176.213 45.8553V87.7828H220.364C244.497 87.7828 264.065 68.2302 264.065 44.1168V0Z" fill="#8CAD3C"/>
<path opacity="0.77" d="M351.798 0H309.838C284.492 0 263.946 20.5292 263.946 45.8553V87.7828H308.098C332.23 87.7828 351.798 68.2302 351.798 44.1168V0Z" fill="#8CAD3C"/>
<path d="M439.532 0H397.571C372.225 0 351.68 20.5292 351.68 45.8553V87.7828H395.831C419.964 87.7828 439.532 68.2302 439.532 44.1168V0Z" fill="#8CAD3C"/>
<path d="M527.266 0H485.305C459.959 0 439.414 20.5292 439.414 45.8553V87.7828H483.566C507.698 87.7828 527.266 68.2302 527.266 44.1168V0Z" fill="#8CAD3C"/>
</g>
<defs>
<clipPath id="clip0_618_1703">
<rect width="527" height="176" fill="white"/>
</clipPath>
</defs>
</svg>
