<svg width="372" height="63" viewBox="0 0 372 63" fill="none" xmlns="http://www.w3.org/2000/svg">
<path d="M53.0039 -0.00341797C59.8411 -0.00341797 65.2502 1.714 69.2564 5.13738C73.2627 8.57222 75.2595 13.152 75.2595 18.8996C75.2595 24.922 73.1869 29.5247 69.0289 32.7077C64.871 35.8906 58.8301 37.4706 50.8807 37.4706H11.0836V60.5527H0V-0.00341797H52.9913H53.0039ZM51.0703 28.437C59.6263 28.437 63.8979 25.3113 63.8979 19.0714C63.8979 12.3734 59.3735 9.0302 50.3247 9.0302H11.0836V28.437H51.0577H51.0703Z" fill="white"/>
<path d="M141.457 60.5527H86.5195V9.11035H97.6031V51.5191H141.457V60.5527Z" fill="white"/>
<path d="M224.73 34.7115C224.73 43.1268 220.762 49.9965 212.825 55.2862C206.051 59.7972 197.596 62.0642 187.435 62.0642C177.274 62.0642 168.781 59.8087 161.957 55.2862C154.02 50.0423 150.052 43.1841 150.052 34.7115C150.052 26.2389 154.058 19.541 162.058 14.2971C169.072 9.67155 177.539 7.35876 187.448 7.35876C197.356 7.35876 205.735 9.67155 212.749 14.2971C220.749 19.5982 224.755 26.3992 224.755 34.7115H224.73ZM213.191 34.6657C213.191 29.3532 210.79 24.9795 205.975 21.5446C201.16 18.1098 194.967 16.3924 187.385 16.3924C179.802 16.3924 173.495 18.1212 168.655 21.5904C163.815 25.0596 161.401 29.4104 161.401 34.6657C161.401 39.921 163.777 44.5695 168.529 47.9471C173.28 51.3361 179.562 53.0192 187.397 53.0192C195.233 53.0192 201.413 51.3246 206.127 47.9471C210.841 44.5695 213.204 40.1385 213.204 34.6657H213.191Z" fill="white"/>
<path d="M298.688 18.144H271.542V60.5527H260.458V18.144H233.312V9.11035H298.675V18.144H298.688Z" fill="white"/>
<path d="M362.117 21.8304C354.736 18.3154 346.698 16.5637 338.016 16.5637C325.403 16.5637 319.084 18.6017 319.084 22.6662C319.084 25.0591 321.448 26.6277 326.2 27.349C332.658 27.8528 339.128 28.3795 345.586 28.9405C354.875 29.7763 361.498 31.2876 365.441 33.4516C369.813 35.8445 372 39.5084 372 44.4087C372 49.9273 369.27 54.198 363.823 57.2092C358.376 60.2204 350.477 61.7203 340.139 61.7203C325.555 61.7203 313.89 58.7091 305.145 52.6867L311.148 45.5766C318.958 50.5456 328.563 53.0187 339.95 53.0187C346.357 53.0187 351.311 52.2859 354.812 50.7975C358.325 49.3205 360.069 47.3512 360.069 44.901C360.069 42.1646 357.908 40.2526 353.611 39.1305C351.21 38.5237 347.482 38.1001 342.439 37.8711C334.566 37.539 329.725 37.2872 327.944 37.1154C320.929 36.5086 315.76 35.1347 312.437 33.0165C309.113 30.8984 307.457 27.807 307.457 23.731C307.457 18.8192 310.124 14.9378 315.445 12.064C320.765 9.19021 328.234 7.75903 337.839 7.75903C350.641 7.75903 361.017 10.2665 368.954 15.2813L362.117 21.8075V21.8304Z" fill="white"/>
</svg>
