<svg width="435" height="174" viewBox="0 0 435 174" fill="none" xmlns="http://www.w3.org/2000/svg">
<path opacity="0.5" d="M87.8349 87.0042H46.2927C21.1994 87.0042 0.858887 107.346 0.858887 132.442V173.987H44.5702C68.462 173.987 87.8349 154.613 87.8349 130.719V87.0042Z" fill="#8CAD3C"/>
<path d="M174.705 87.0042H133.162C108.069 87.0042 87.7285 107.346 87.7285 132.442V173.987H131.44C155.332 173.987 174.705 154.613 174.705 130.719V87.0042Z" fill="#8CAD3C"/>
<path opacity="0.71" d="M261.564 87.0042H220.022C194.928 87.0042 174.588 107.346 174.588 132.442V173.987H218.299C242.191 173.987 261.564 154.613 261.564 130.719V87.0042Z" fill="#8CAD3C"/>
<path d="M348.423 87.0042H306.881C281.787 87.0042 261.447 107.346 261.447 132.442V173.987H305.158C329.05 173.987 348.423 154.613 348.423 130.719V87.0042Z" fill="#8CAD3C"/>
<path d="M435.282 87.0042H393.739C368.646 87.0042 348.306 107.346 348.306 132.442V173.987H392.017C415.909 173.987 435.282 154.613 435.282 130.719V87.0042Z" fill="#8CAD3C"/>
<path opacity="0.5" d="M261.564 0H220.022C194.928 0 174.588 20.3421 174.588 45.4374V86.983H218.299C242.191 86.983 261.564 67.6085 261.564 43.7148V0Z" fill="#8CAD3C"/>
<path opacity="0.77" d="M348.423 0H306.881C281.787 0 261.447 20.3421 261.447 45.4374V86.983H305.158C329.05 86.983 348.423 67.6085 348.423 43.7148V0Z" fill="#8CAD3C"/>
<path d="M435.282 0H393.739C368.646 0 348.306 20.3421 348.306 45.4374V86.983H392.017C415.909 86.983 435.282 67.6085 435.282 43.7148V0Z" fill="#8CAD3C"/>
</svg>
