<svg width="30" height="30" viewBox="0 0 30 30" fill="none" xmlns="http://www.w3.org/2000/svg">
<path d="M14.7251 2.89999C9.97627 2.89999 6.1355 6.61687 6.1355 11.2125C6.1355 17.4469 14.7251 26.65 14.7251 26.65C14.7251 26.65 23.3147 17.4469 23.3147 11.2125C23.3147 6.61687 19.4739 2.89999 14.7251 2.89999ZM14.7251 14.1812C13.9115 14.1812 13.1312 13.8685 12.5559 13.3117C11.9806 12.755 11.6574 11.9999 11.6574 11.2125C11.6574 10.4251 11.9806 9.67002 12.5559 9.11327C13.1312 8.55652 13.9115 8.24374 14.7251 8.24374C15.5387 8.24374 16.319 8.55652 16.8943 9.11327C17.4696 9.67002 17.7928 10.4251 17.7928 11.2125C17.7928 11.9999 17.4696 12.755 16.8943 13.3117C16.319 13.8685 15.5387 14.1812 14.7251 14.1812Z" fill="#FFA506"/>
</svg>
