<svg width="20" height="13" viewBox="0 0 20 13" fill="none" xmlns="http://www.w3.org/2000/svg">
<g clip-path="url(#clip0_37_513)">
<path d="M18.4 1.6H1.60005C1.16005 1.6 0.800049 1.24 0.800049 0.8C0.800049 0.36 1.16005 0 1.60005 0H18.4C18.84 0 19.2 0.36 19.2 0.8C19.2 1.24 18.84 1.6 18.4 1.6ZM19.2 6.4C19.2 5.96 18.84 5.6 18.4 5.6H1.60005C1.16005 5.6 0.800049 5.96 0.800049 6.4C0.800049 6.84 1.16005 7.2 1.60005 7.2H18.4C18.84 7.2 19.2 6.84 19.2 6.4ZM19.2 12C19.2 11.56 18.84 11.2 18.4 11.2H1.60005C1.16005 11.2 0.800049 11.56 0.800049 12C0.800049 12.44 1.16005 12.8 1.60005 12.8H18.4C18.84 12.8 19.2 12.44 19.2 12Z" fill="white"/>
</g>
<defs>
<clipPath id="clip0_37_513">
<rect x="0.800049" width="18.4" height="12.8" fill="white"/>
</clipPath>
</defs>
</svg>
