<svg width="233" height="48" viewBox="0 0 233 48" fill="none" xmlns="http://www.w3.org/2000/svg">
<path d="M39.5894 40.0274L33.2997 32.907C36.0964 30.3689 37.6986 26.7337 37.6986 22.9339C37.6986 15.5575 31.7769 9.55246 24.4949 9.55246C17.2129 9.55246 11.2948 15.5575 11.2948 22.9376C11.2948 26.7191 12.8068 30.2153 15.5529 32.779L9.1622 39.808C4.52522 35.4779 1.86572 29.3266 1.86572 22.9413C1.86212 10.2912 12.0166 0 24.4949 0C36.9732 0 47.1277 10.2912 47.1277 22.9376C47.1277 29.451 44.3816 35.6827 39.5894 40.0311V40.0274Z" fill="url(#paint0_linear_2023_32)"/>
<path d="M42.3246 48L24.4984 29.9337L6.6722 48L0 41.2416L21.1605 19.7961C23.0009 17.9309 25.9887 17.9309 27.8291 19.7961L48.9896 41.2416L42.321 48H42.3246Z" fill="white"/>
<path d="M63.8026 20.9883C63.8026 17.7627 66.2889 15.0601 70.4098 15.0601C73.0152 15.0601 75.1984 15.9524 76.4722 17.3641L74.473 20.191C73.441 19.178 72.4126 18.5929 70.7129 18.5929C68.8654 18.5929 67.7431 19.5437 67.7431 20.959C67.7431 25.4134 77.3527 24.0018 77.3491 31.1588C77.3491 34.783 74.2277 37.2406 70.2547 37.2406C67.5266 37.2406 64.3439 36.0411 63.3154 33.8614L65.4372 31.2795C66.6786 32.9069 68.6813 33.7078 70.316 33.7078C72.0734 33.7078 73.4085 32.8155 73.4085 31.1881C73.4085 26.9494 63.799 27.9917 63.8026 20.9883Z" fill="white"/>
<path d="M98.0511 27.9953C98.0511 34.5709 94.0781 37.2406 89.6252 37.2406C84.3495 37.2406 80.593 34.0772 80.593 27.7796V15.3965H84.3242V26.9787C84.3242 31.0015 85.9589 33.7078 89.6252 33.7078C92.8368 33.7078 94.3524 31.4038 94.356 27.2273V15.4001H98.0548V27.9953H98.0511Z" fill="white"/>
<path d="M118.057 36.9078L106.391 22.0086V36.9078H102.905V15.4001H105.878L117.548 30.3615V15.4038H121.034V36.9078H118.061H118.057Z" fill="white"/>
<path d="M133.79 15.4038H137.518V36.9078H133.787V15.4038H133.79Z" fill="white"/>
<path d="M158.249 36.9115L146.583 22.0123V36.9115H143.097V15.4038H146.07L157.74 30.3652V15.4075H161.226V36.9115H158.253H158.249Z" fill="white"/>
<path d="M174.859 36.9736H172.041L163.315 15.4075H167.285L173.589 31.3526L179.622 15.4111H183.35L174.859 36.9773V36.9736Z" fill="white"/>
<path d="M185.472 15.4111H197.748V18.9439H189.2V24.287H196.839V27.8198H189.2V33.3787H198.051V36.9115H185.472V15.4111Z" fill="white"/>
<path d="M201.05 21.0029C201.05 17.7773 203.536 15.0747 207.657 15.0747C210.263 15.0747 212.446 15.967 213.719 17.3787L211.72 20.2057C210.688 19.1926 209.66 18.6075 207.96 18.6075C206.113 18.6075 204.99 19.5584 204.99 20.9737C204.99 25.4281 214.6 24.0164 214.596 31.1734C214.596 34.7977 211.475 37.2553 207.502 37.2553C204.774 37.2553 201.591 36.0557 200.563 33.8761L202.685 31.2941C203.926 32.9216 205.929 33.7225 207.563 33.7225C209.321 33.7225 210.656 32.8301 210.656 31.2027C210.656 26.9641 201.046 28.0064 201.05 21.0029Z" fill="white"/>
<path d="M215.509 15.4148H233V18.9513H226.118V36.9225H222.387V18.9476H215.509V15.4148Z" fill="white"/>
<defs>
<linearGradient id="paint0_linear_2023_32" x1="1.86212" y1="20.0155" x2="47.1277" y2="20.0155" gradientUnits="userSpaceOnUse">
<stop stop-color="#FFAF00"/>
<stop offset="1" stop-color="#FFDB00"/>
</linearGradient>
</defs>
</svg>
