<svg width="1814" height="234" viewBox="0 0 1814 234" fill="none" xmlns="http://www.w3.org/2000/svg">
<g opacity="0.5" clip-path="url(#clip0_37_15)">
<path d="M5.20788 62.5002C5.20788 28.4933 31.7873 0 75.8421 0C103.695 0 127.034 9.40781 140.651 24.2907L119.28 54.0949C108.247 43.4147 97.2523 37.2457 79.0826 37.2457C59.3312 37.2457 47.3338 47.2704 47.3338 62.1918C47.3338 109.154 150.064 94.2709 150.025 169.726C150.025 207.936 116.656 233.846 74.1833 233.846C45.0192 233.846 10.9944 221.199 0 198.219L22.6832 170.999C35.9536 188.156 57.3638 196.6 74.8391 196.6C93.6261 196.6 107.899 187.192 107.899 170.035C107.899 125.347 5.1693 136.336 5.20788 62.5002Z" fill="#01574D"/>
<path d="M371.341 136.375C371.341 205.699 328.868 233.846 281.264 233.846C224.865 233.846 184.706 200.494 184.706 134.1V3.58569H224.595V125.694C224.595 168.107 242.07 196.639 281.264 196.639C315.597 196.639 331.8 172.348 331.838 128.316V3.58569H371.38V136.375H371.341Z" fill="#01574D"/>
<path d="M585.211 230.337L460.492 73.2189V230.298H423.227V3.58569H455.014L579.772 161.321V3.62425H617.037V230.337H585.25H585.211Z" fill="#01574D"/>
<path d="M753.406 3.62427H793.256V230.337H753.368V3.62427H753.406Z" fill="#01574D"/>
<path d="M1014.88 230.376L890.161 73.2961V230.376H852.896V3.66284H884.683L1009.44 161.398V3.66284H1046.71V230.376H1014.92H1014.88Z" fill="#01574D"/>
<path d="M1192.45 231.031H1162.32L1069.04 3.66284H1111.48L1178.87 171.77L1243.37 3.7014H1283.22L1192.45 231.07V231.031Z" fill="#01574D"/>
<path d="M1305.9 3.70142H1437.14V40.9471H1345.75V97.2783H1427.42V134.524H1345.75V193.13H1440.38V230.376H1305.9V3.70142Z" fill="#01574D"/>
<path d="M1472.44 62.6545C1472.44 28.6476 1499.02 0.154297 1543.07 0.154297C1570.93 0.154297 1594.27 9.56211 1607.88 24.445L1586.51 54.2492C1575.48 43.569 1564.48 37.4 1546.31 37.4C1526.56 37.4 1514.57 47.4247 1514.57 62.3461C1514.57 109.308 1617.3 94.4252 1617.26 169.88C1617.26 208.09 1583.89 234 1541.42 234C1512.25 234 1478.23 221.354 1467.23 198.374L1489.92 171.153C1503.19 188.311 1524.6 196.754 1542.07 196.754C1560.86 196.754 1575.13 187.347 1575.13 170.189C1575.13 125.502 1472.4 136.49 1472.44 62.6545Z" fill="#01574D"/>
<path d="M1627.02 3.73999H1814V40.9857H1740.43V230.453H1700.55V40.9857H1627.02V3.73999Z" fill="#01574D"/>
</g>
<defs>
<clipPath id="clip0_37_15">
<rect width="1814" height="234" fill="white"/>
</clipPath>
</defs>
</svg>
