<svg width="351" height="240" viewBox="0 0 351 240" fill="none" xmlns="http://www.w3.org/2000/svg">
<g opacity="0.1">
<mask id="mask0_37_516" style="mask-type:alpha" maskUnits="userSpaceOnUse" x="0" y="0" width="351" height="240">
<rect width="350.155" height="240" fill="#D9D9D9"/>
</mask>
<g mask="url(#mask0_37_516)">
<path d="M285.996 169.104C300.111 148.649 307.857 124.497 307.857 99.5947C307.868 29.9535 248.54 -26.6956 175.604 -26.6956C102.668 -26.6956 43.3512 29.9535 43.3512 99.5837C43.3512 124.431 51.1199 148.616 65.2238 169.092L32.4612 200.375L71.4318 237.586L175.616 138.108L279.799 237.586L318.77 200.375L286.019 169.092L285.996 169.104ZM156.124 82.2976L105.559 130.579C100.911 121.02 98.4488 110.534 98.4488 99.5837C98.4488 58.9624 133.061 25.9245 175.604 25.9245C218.147 25.9245 252.759 58.9734 252.759 99.5837C252.759 110.379 250.25 120.91 245.592 130.513L195.095 82.2976C184.332 72.0208 166.887 72.0208 156.124 82.2976Z" fill="url(#paint0_linear_37_516)"/>
</g>
</g>
<defs>
<linearGradient id="paint0_linear_37_516" x1="32.4612" y1="105.445" x2="318.758" y2="105.445" gradientUnits="userSpaceOnUse">
<stop stop-color="#FFAF00"/>
<stop offset="1" stop-color="#FFDB00"/>
</linearGradient>
</defs>
</svg>
